<svg xmlns="http://www.w3.org/2000/svg" viewBox="0 0 500 123.77"><defs><style>.cls-1{fill:#fff;}</style></defs><title>manature</title><g id="Layer_2" data-name="Layer 2"><g id="Layer_1-2" data-name="Layer 1"><path class="cls-1" d="M499.89,64.71a24.55,24.55,0,0,0-3-9.88l1.58-1c-.29-1.82-2-1.64-3.23-2.3l1-.58c-1.19-.94-2.65-.44-3.52-.77l-5.35,2.67c-.84.42-1.67.87-2.52,1.27-1.51.71-3,1.46-4.57,2.07-3.06,1.19-5.59,3.2-8.37,4.82a6.27,6.27,0,0,0-1.07,1.08,8.8,8.8,0,0,1-1.13,1.06c-3.44,2.38-6.53,5.06-8.5,8.78-.24.45-.65.8-.91,1.24a39.88,39.88,0,0,0-2.57,4.54c-1.67,3.95-3.18,8-4.76,12a15.89,15.89,0,0,1-.74,1.42,7.16,7.16,0,0,1-4.51-1.93,4,4,0,0,1-1.27-4.43A7.23,7.23,0,0,1,448.93,81a60.42,60.42,0,0,0,8-7.71c3.11-3.58,4.71-7.41,3.48-12.11a1.6,1.6,0,0,1,0-.31c-.26-4.24-2.67-7.47-5.51-10.42a13.63,13.63,0,0,0-3.66-2.41,5,5,0,0,0-2.73-.64c-2.6.35-5.24.5-7.69,1.62a31,31,0,0,0-6.16,3.7,107.18,107.18,0,0,0-14.7,13.79,53.27,53.27,0,0,0-7,10.08c-.91,1.71-2,3.34-3,5a1,1,0,0,1-1.42.54c-.37-1.6-.08-3.34-.23-5a21.79,21.79,0,0,1,1.66-10.17,11.92,11.92,0,0,1,4.19-5.5,7.8,7.8,0,0,1-.25-1.85,9.51,9.51,0,0,1,.59-2.05,2.29,2.29,0,0,0-.92-3,3.3,3.3,0,0,1-1.52-1.84c-.11-.33-.57-.56-.9-.86l-5.29,1.51a11.61,11.61,0,0,1-1.24,2.68c-.67.84-1.83,1.27-2.37,2.31-.27.53-.81.93-1.09,1.45-.86,1.62-1.62,3.3-2.48,4.92a33.51,33.51,0,0,1-2.73,4.8c-4.13,5.39-8.34,10.7-12.52,16a23.14,23.14,0,0,1-5.45,5,10.1,10.1,0,0,1-3.8,1.63l-.93-3.27a15.15,15.15,0,0,1,.63-10.18c1.79-4.35,3.47-8.74,5.24-13.1a7.45,7.45,0,0,1,1.3-2.42c.89-.92,1.78-1.7,1.32-3.11,2-3.26-.06-5.06-2.57-6.7a4.33,4.33,0,0,0-.51-.36,6.31,6.31,0,0,0-5.18-.38,9.93,9.93,0,0,0-3.72,3.17,30.31,30.31,0,0,0-2.83,5.39,56.91,56.91,0,0,1-4.6,8.67C359,74.58,356,79.3,352.8,84c-1.32,2-2.67,3.9-4.17,5.71a47.18,47.18,0,0,1-3.92,3.91,2,2,0,0,1-2.3.56,24.16,24.16,0,0,1-2.86-17.37c1.73-8.29,3.5-16.58,5.87-24.72.62-2.14,1-4.38,2.18-6.44a20.13,20.13,0,0,1,2.14-.42c6-.53,12-1,18-1.45,4.43-.32,8.88-.4,13.29-.86,3-.31,6.16-.32,8.58-2.59a3.51,3.51,0,0,1,1.48-.46c2.83-.7,2.87-.78,1.5-3.59L395.26,34c-.26-.7-.29-1.5-.72-1.81-1.38-1-1.66-2.52-2.31-3.87-.26-.55-.46-1.29-.93-1.56a16.13,16.13,0,0,0-6.82-2.43,48.14,48.14,0,0,0-6.4.14c-7.34.45-14.67,1-22,1.51a14.31,14.31,0,0,1-1.71-.11c.35-1.33.57-2.42.94-3.46.78-2.22,1.68-4.41,2.46-6.63,1-2.8,1.92-5.61,2.8-8.43a2.84,2.84,0,0,0-.1-1.76c-.7-1.78-1.51-3.52-2.42-5.59-.35.72-.59,1.15-.76,1.6a12.46,12.46,0,0,1-.68,2c-1.09,1.86-2.29,3.66-3.42,5.51-3.18,5.19-6.45,10.34-8.59,16-.35.94-.88,1.83-1.39,2.88-3.64.38-7.23.75-10.81,1.15s-7.45.45-11,1.73a15,15,0,0,1-7.3,1.06,23.36,23.36,0,0,0-1.25,2.41c-.07.18.42.56.65.85l.8-.76c-.19.17.28.69.09.86.67.35.91.2,1.27.74s0,1.33,0,1.68L319,41.47l2.68.14a3,3,0,0,0,1.17,3c3.26.5,6.56,1.1,9.93,0a5.48,5.48,0,0,1,3.83.12c-.14.77-.23,1.46-.4,2.13q-1.8,7-3.62,13.94c-.56,2.17-1,4.37-1.72,6.51-1.07,3.41-2.3,6.77-3.4,10.17-1,3.12-4.18,4.61-5.71,7.52a22.21,22.21,0,0,1-1.56,2.2c-.63.81-1,1.21-.74-.05-1.33,1.27-2,1.75-2.67,2.42a23,23,0,0,1-3.67,3.71c-.47.54-2.06.77-2.59,1.25a2.14,2.14,0,0,1-2.83.24,9.83,9.83,0,0,1-1.19-1c-3-2.63-4-6.16-4.31-9.88-.39-4.25-.27-8.56-1.51-12.71a5.17,5.17,0,0,1-.06-.61c-.45-2.62-.88-5.23-1.37-7.84a5.54,5.54,0,0,0-.63-1.71,2.63,2.63,0,0,0-3.79-.84c-.83.56-1.79,1-1.68,2.35,0,.36-.63.76-1.17.61a13.91,13.91,0,0,1-1.46-3,13.46,13.46,0,0,1,.07-3.29,9.73,9.73,0,0,0-4.31-.95,4.87,4.87,0,0,0-4.45,2.77c-1.12,2.19-2.47,4.27-4.64,5.1-1,1.58-2.25,2.88-3,4.18-1.5,2.45-3.18,4.81-4.44,7.38a32.92,32.92,0,0,0-3.32,10,1.82,1.82,0,0,1-.55,1.06c-1.66,1.39-1.36,4.9-5,6-2.33.74-2.52-1-2.85-1.7a17.87,17.87,0,0,1-.27-3.85,17.28,17.28,0,0,1,.18-3.66c.6-3.52.3-8.3.75-11.71.76-2.86.26-5.64-.28-8.49-.44-2.3-1.76-2.92-4-3.53-1.93-.12-3.41-1.28-5.19-.61-5.46.48-9.93.77-18.66,10.75-2.5,2.6-5.69,9-8,12.91-.41.38-1.18,2.82-1.65,1.46-.38-1-.22-2.39-.49-3.26-.25-4.08-.65-7.72-.75-11.4a56.9,56.9,0,0,0-.6-6.69c-.4-2.74-2.71-4-4.85-5.23a1.94,1.94,0,0,0-1.22-.19c-2.82.5-5.33,3.28-6.67,5.67.83,12.37-2.56,18.37-4.47,24.55-.63,2-1.45,4-2.24,6a10.64,10.64,0,0,1-1.13,1.69c-1.52,2.85-6.64-6.66-4.61-23.4.17-2.14.28-4.29.66-6.4a5.68,5.68,0,0,0-.93-4.92,4.26,4.26,0,0,1-.54-1.42c-.74-2.44-.73-2.44-3.45-2.52-.21,0-.41,0-.62-.06-.89-2.55-.79-2.73-3.93-2.56-1.66,1.78-3.28,3.51-4.89,5.26a65.78,65.78,0,0,0-13.57,21.52c-1,2.78-2,5.58-2.94,8.39a16.42,16.42,0,0,0-.76,3.27c-.24,2.13-.37,4.27-.51,6.4a7.47,7.47,0,0,0,1.26,4.95,9,9,0,0,0,9.88,3,16.19,16.19,0,0,0,7.23-5c.62-.77,3.49-4.86,4.58-5.12,1.41,1.68,2.79,3.31,4.14,5,.89,1.09,3.56,4.63,4.95,4.87.89,1,2.34.73,4.81.71,4,0,3.07-.54,5.39-3.81a18.51,18.51,0,0,0,1.09-1.84,82.67,82.67,0,0,0,3.46-8.9c.27-.49.15-1.92.5-2.4.43.26.21.39.44.59,1.21,5.84,2.81,14.8,5.87,14.63a14.78,14.78,0,0,1,3.35.37,3.88,3.88,0,0,0,3.41-1,15.54,15.54,0,0,0,1.31-1.3c2.11-2.36,5.91-12,7.93-14.44,2.26-4.56,4-7.84,6.68-10,2-2.56,4.3-5.89,7.08-7.53.22-.13,1.6-.68,1.54-.13-.1.93-.11,2.2-.33,3.3-1,7.47-.61,10.89-1,16.08-.23,3.42.65,8.62,2.86,11.06a10.31,10.31,0,0,0,5.8,2.6c6.78.55,8.82-.56,12.22-4.19.15-.07.39,0,.74.1,1.2,1.34,2.11,3.44,3,4.33,3.11,3.29,5.6,5.78,10.39,5.83.61,0,1.21.2,1.83.25a7.81,7.81,0,0,0,6.26-1.84,15.81,15.81,0,0,0,3.57-4.15,4,4,0,0,1,1.79-2l1.34,1.36a16.49,16.49,0,0,0,12.42,5.08c1.13,0,2.25.05,3.38.15,4.53.38,6.32-1.91,10-5.49.2-.58,1.42-1.7,1.53-2.3.77-1.18,1.89-1.85,2.51-2.83,1.22-1.94,1-2.5,2.31-4.35.95-1,1.66-3.21,2.76-4.5,1.63,3,2.89,6.57,4.58,8.6a20.52,20.52,0,0,0,3.4,5.09,7.31,7.31,0,0,0,8.18,1.92c1.07-.36,2.12-.78,3.15-1.23a17,17,0,0,0,7.14-5.67c1.24-1.75,2.3-3.62,3.45-5.42.2-.31.28-.83,1-.56a6.13,6.13,0,0,1,.45,1c1,3.33,3.13,6,5.31,8.55a6.76,6.76,0,0,0,5,2.7,20.87,20.87,0,0,0,9.87-2.06c4.46-2.2,8.59-4.88,11.14-9.37a8,8,0,0,1,1.42-1.45,10.5,10.5,0,0,1,2.39,3.06,7,7,0,0,0,6.48,3.4,28.08,28.08,0,0,0,8.47-1.6c2-.72,4.09-1.59,5.37-3.45a22.58,22.58,0,0,0,3.82-7.63A29.4,29.4,0,0,1,428.16,73c3-3.5,6.27-6.81,9.46-10.19A14.74,14.74,0,0,1,439,61.6a5.44,5.44,0,0,1,6.33-.56,2.76,2.76,0,0,1-.44,2.73c-1.17,1.81-2.3,3.65-3.62,5.35a49.53,49.53,0,0,0-4.77,7.16,15,15,0,0,0-1.35,11c.25,1,.55,2,.9,2.93a2.43,2.43,0,0,0,.78,1.26c2,1.16,3.06,3.07,4.15,4.88a9.75,9.75,0,0,0,5.5,4.23,33.59,33.59,0,0,0,4.44,1.33,3.35,3.35,0,0,1,2.84,2.42,20.58,20.58,0,0,0,4.72,7.49c1.85,1.92,3.65,3.89,5.6,5.7a18.06,18.06,0,0,0,8.72,4.31,49.43,49.43,0,0,1,5.33,1.43,8.18,8.18,0,0,0,3,.53,16.67,16.67,0,0,0,9-3.63,38.21,38.21,0,0,0,2.85-2.59s-.95.82-.83.31c.08-.36,1.33-2.6,1.46-2.94a12.92,12.92,0,0,0,1-4.61c0-1-.27-1.91-.87-2.07-.76-.21-.66-.58-.94-1.1-.2-.36-.64-.58-.69-1-.12-.89-1.28-.26-.41-.67a5.84,5.84,0,0,1-1.09.07c-3.45.18-6.58,1.54-9.8,2.26-.75.17-1.51.27-2.27.38l-1.08.17a5.9,5.9,0,0,1-.88.1,6.09,6.09,0,0,1-3.55-1,24.5,24.5,0,0,1-3.12-2.25c-.11-.1,1.14.64,1.14.64l-1.59-1.3c-.3-.27-.34-.84-.53-1.37a34.41,34.41,0,0,0,15.5-9c1.49-1.41,2.88-2.93,4.43-4.28,1.23-1.07,2.25-2.3,3.36-3.46,2.21-2.31,3.32-5.13,4.45-8,.61-1.51,1.14-3.06,1.69-4.59C499.37,70.93,500.34,68.07,499.89,64.71ZM357.12,14.45c.58,1.26-1.24,3.7-1.78,4.66C356.17,17.3,356.37,15.91,357.12,14.45ZM180,82.9a39.6,39.6,0,0,1-5.39,11.26c-.76,1.07-1.46,2.24-3,2.72a3.38,3.38,0,0,1-2.19-2.56,16.39,16.39,0,0,1,.23-7.86A33.09,33.09,0,0,1,179,69.84c.11-.11.38-.08.57-.11.52.19.41.66.43,1,.11,3,.23,6.09.29,9.14A9.53,9.53,0,0,1,180,82.9ZM288.1,84.75c-.8,2.85-1.85,3.57-3.45,6.06-1.15,1.78-2.43,3.49-3.75,5.15a14.48,14.48,0,0,1-2.07,1.8c-1.65-1.88-3.43-2.41-3.22-8.19.11-.65.18-2.9.64-3.38a32.11,32.11,0,0,1,3.07-6,21.12,21.12,0,0,1,6.54-6.65c.31-.45,1.45,4.89,1.87,4.48A18.59,18.59,0,0,1,288.1,84.75ZM491,70.82c-2.48,3.43-4,7.71-7.27,10.37-5.06,4.06-7.49,6.56-12.58,9.38a11.45,11.45,0,0,1-1.62.84,1.12,1.12,0,0,1-1.48-1.33,1.88,1.88,0,0,1,.1-.33c.29-4.31.78-8.72,3.37-12.56a17,17,0,0,1,4-4.21c3.86-2.85,6.92-5.43,11.76-6.41,1.73-.35,2.46-.87,4.45,0C491.68,68.36,491.86,69.67,491,70.82Z"/><path class="cls-1" d="M72.19,70.31c-.23-.54-.43,0-.54-.47a4.69,4.69,0,0,0-1.41-2.39,12.94,12.94,0,0,0-8.12-2.87l-5.3.17c-.65,0-1.29,0-2,0a9.11,9.11,0,0,1-.28-1.34,21.1,21.1,0,0,1,0-2.79,9.13,9.13,0,0,0-1.73-6.68c-.26-.33-.6-.78-.55-1.13a2.25,2.25,0,0,0-1.79-2.75c-.33-.11-.55-.46-.86-.66A6.65,6.65,0,0,0,44.47,48c-1.56.28-3,1-4.46,1.33A1.76,1.76,0,0,0,38.77,51c-.16,1.28-.39,2.55-.51,3.83-.29,3.2-.54,6.4-.8,9.61a5.05,5.05,0,0,1-.63,2.52c-2.82.56-5.62,1.14-8.43,1.69a5.57,5.57,0,0,1-1.26,0c-.07-.48-.12-.83-.16-1.18-.34-2.7-.17-7-.55-9.72-.14-1-.91-.32-1.19-1.28a.84.84,0,0,0-1.4-.36,2.15,2.15,0,0,0-.54.67,43.45,43.45,0,0,0-1.66,4.21c-.86,2.88-1.59,5.79-2.38,8.76a5.36,5.36,0,0,1-2.31,1c-1.08.21-2.15.49-3.23.72a26.44,26.44,0,0,0-7.06,2.44,14.84,14.84,0,0,0-2,1.27c-.68.51-.74,1.08-.14,1.63,1.29,1.17.19,2.25.27,4.17a1.24,1.24,0,0,0,.36,1.72,2.56,2.56,0,0,0,1.61.57c8,1,5.8.26,9,.44.5,0,1.61.2,2.22.31.07.88.17,1.51.15,2.15,0,1.29-.12,2.57-.16,3.86,0,1.64-.09,3.29-.09,4.94a2.13,2.13,0,0,1-1.72,2.19,14.52,14.52,0,0,1-1.92.41c-2.23.35-1.91.56-4.15.8-3.1.34-4.91,1.31-7.6,2.79a1.9,1.9,0,0,0-.83.66c-.48,1-1.28,1.93-1.37,3.21.44.41-.12.93.42,1.43-.24.47-.45.91-.67,1.34s.56.73.35,1.12c.66.65.38.83,1.08,1a22.24,22.24,0,0,0,6.69.38c3.32-.29,4.1-.4,7.42-.7,2.7-.24,2.77-.1,3.08,2.48.26,2.19.79,4.35,1.1,6.54.25,1.77,1.51,2.69,2.79,3.62.18.13,1.49-2.35,1.66-2.35.56,1.1.59-2.37,1-4.69s.14-4.62.45-7a47.94,47.94,0,0,1,6.48-1.19c2.12-.22,4.19-.94,6.5-.7a8,8,0,0,1,.11,2,7.21,7.21,0,0,0,.38,3.8,36.41,36.41,0,0,0,1.76,4.37,8.84,8.84,0,0,0,1.57,2c.23.25.64.34.76.64.26.61.39,1,.39,1,0-.43,0-.72.1-.68.14,1.08.49,2,.61,2.95l.16,0c.13,0,.11.17.24.21a2.52,2.52,0,0,1,.66.26c.79.49,1.38-1.1,2.09-1.63.56-.2.12,1.46.12,1.46-.24.92.79-2.48.32-.46.05,0,0,.45.12.89s.56-.35.72-.37-.21,0,.07-.11.28.44.49.42c.42.13.72-.34.75-.48s.13.46.11.84a38.09,38.09,0,0,0,.5-5.85c0-2.36,0-4.72.09-7.08a36.41,36.41,0,0,1,.57-7.35c.84-.22,1.67-.46,2.51-.64,4-.84,8.62-1.17,12.66-2a9,9,0,0,0,1.69-.64h-.06l.21-.12a1.11,1.11,0,0,0,.28-.3s-.15.16-.24.13-.11-.47-.21-.62-.14-.09-.24-.24-.3-.3-.22-.45c.42-.54.25-1.49.62-2,.12-.15.15-.54.36-.46-.23-.4-.86-1.19-.62-1a.87.87,0,0,1,.15.18l-.2-.35a4.09,4.09,0,0,0-4-2.19c-.65,0,.53-.52-2-.62a49.72,49.72,0,0,0-6.5.12,4.9,4.9,0,0,1-2.64-.27,11,11,0,0,1-.21-1.21c-.09-1.43-.22-2.86-.21-4.29,0-2.15.08-4.29.18-6.43A8,8,0,0,1,53,78.19a89.61,89.61,0,0,0,10.77-1.67,20.56,20.56,0,0,0,6.64-2.61L70.1,72.7C70.52,72.19,72.73,69.91,72.19,70.31ZM38.28,91.87a8.85,8.85,0,0,1-.39,1.55,86,86,0,0,1-11.3,2.18c0-4.41.26-8.54.41-12.59a48.83,48.83,0,0,1,11.08-1.74,5.84,5.84,0,0,1,.11,1.39,32.13,32.13,0,0,0,.07,6.64A21.69,21.69,0,0,1,38.28,91.87Z"/><path class="cls-1" d="M152.75,105.59c-.1-.06-.25-.17-.31-.13a.36.36,0,0,0-.17.44,4.93,4.93,0,0,0,1.68,2.4l-1.1-2.56A.31.31,0,0,0,152.75,105.59Z"/><path class="cls-1" d="M160.22,103.23A14.74,14.74,0,0,0,159,98.88c-1.11-2.87-2-5.63-3-8.53-1.52-4.18-2-6.77-3.53-11.63a10.66,10.66,0,0,1-.67-2.25,32.7,32.7,0,0,0-.84-3.68,16.37,16.37,0,0,0-.47-4,3.55,3.55,0,0,0-.07-1.8,9.72,9.72,0,0,1,0-5.86c.53-1.45,1.13-3.09.35-4.6a4.86,4.86,0,0,1-.35-2c-.08-1.21.78-2.42-.07-3.4-.34-.92-1.46-1.85-1.34-2.83a9.77,9.77,0,0,0,0-1.44c-.14-1.34-.29-1.47-1.78-1.43a4.93,4.93,0,0,1-2.77-1.19c-.52-.6-.93-.89-1.64-.36-.2.15-.45,0-.67,0-2.59-1-5.31,3-4.48.17.09-.3-.65,1-.62,1.37-.05-.8-.87,1.4-.9,1.73a.73.73,0,0,1-.59.13c0-.5.14-1.05-.3-1.47-.82.17-.4,1-.67,1.41a4.45,4.45,0,0,0-.33,1.18,1.75,1.75,0,0,1-.47.26,2.26,2.26,0,0,0-1.73,1.46,16.94,16.94,0,0,1-1.34,2.21c-.3.46.5-1.69.5-1.69-.56.73-1.87,4.45-2.39,5.13-.78,1-.42,2.11-.82,3.33s-.77,2.17-1.14,3.27c-.64,1.9-1.69,3.83-2.07,5.8-.25,1.31-.76,2.67-1.11,3.94s-1.09,2.44-1.5,3.71a44.62,44.62,0,0,1-4.35,9,8.41,8.41,0,0,1-.71,1c-.18.22-.43.18-.6-.05a3.89,3.89,0,0,1-.71-2,15.09,15.09,0,0,0-1.57-5.38A14.1,14.1,0,0,1,112.95,75c-.11-.47-.25-.94-.36-1.41a44.61,44.61,0,0,0-2-5.85,4.69,4.69,0,0,1-.31-3.36,3.49,3.49,0,0,0,0-2.16,2.35,2.35,0,0,1,.15-1.6,13.87,13.87,0,0,0,.6-5.37c0-1.13-1.09-2.2-1.21-4.08,0-.28.13,1.57-.41,1.11a1.51,1.51,0,0,1-.47-.79c-.19-.88-.89-1-1.13-1.82-.36-1.24-.79-2.44-2.12-3a1.11,1.11,0,0,1-.62-1,4.21,4.21,0,0,0-.59-1.89c-.27-.42-1.08.07-1.33.41-.48.63-.69.07-1.35.33a1.22,1.22,0,0,1-1.47-.29c-.39-.38-.52,0-.91-.4a.51.51,0,0,0-.75.22c0,.05,0,.16-.05.17-1.07.17-3.59,3.34-2,1.27-1.06,1.25-2.2,2.48-2.09,4.28a3.52,3.52,0,0,1-.23,1.6c-.51,1.23-.95,2.5-1.57,3.68-.5,1-1,1.91-1.43,2.91-1.13,2.69-2.2,5.41-3.54,8a74.31,74.31,0,0,0-4,9.35,125.33,125.33,0,0,1-4.83,11.89,40.14,40.14,0,0,0-3,6,1.42,1.42,0,0,0-.47,1A29.56,29.56,0,0,0,74,98.07a8.63,8.63,0,0,0-.42,4.59.91.91,0,0,0-.05.71,2.47,2.47,0,0,0,.2,1.46h0A4.52,4.52,0,0,0,74,106a33.65,33.65,0,0,1,1.85,3.89c.35.77.86,1.44,1.18,2.21a.63.63,0,0,0,.72.39,6.51,6.51,0,0,0,.71-.14c.87-.17,1.08-.14,1.38.67a1.17,1.17,0,0,0,1,.85,2.32,2.32,0,0,0,2.62-1.13,3.49,3.49,0,0,1,2-1.76,1.06,1.06,0,0,0,1-.36c1.64-1.76,3.56-3.24,5.07-5.14a4.5,4.5,0,0,0,1.31-2.7,3.51,3.51,0,0,1,.29-.85,105.27,105.27,0,0,1,4.64-12.12l0-.07c.19-.3.41-.59.58-.91,1.19-2.24,2.36-4.48,3.54-6.72a23.36,23.36,0,0,0,2.24-4.92c.15-.26.3-.52.46-.77.27-.43.57-.49.86-.17a8.58,8.58,0,0,1,2.29,4.47,5.72,5.72,0,0,0,.72,2.42,19.87,19.87,0,0,1,2.56,5.6,51.38,51.38,0,0,0,1.65,5,6.34,6.34,0,0,1,.14,4.77,1.81,1.81,0,0,0-.18,1.06,17.27,17.27,0,0,1,.05,3.06,3.32,3.32,0,0,0-.44,1.92,4.16,4.16,0,0,1-.34,2.12,2,2,0,0,0-.12,1.42,6.84,6.84,0,0,1-.07,4.46.5.5,0,0,0,.16.46c.12.07.34,0,.51,0,.43,0,.52-.69,1-.57.46.4.28,1.26,1.08,1.37a1.8,1.8,0,0,1,.31-.18c.17-.06.4-.09.46.11s-.12.29-.2.43-.1.06-.15.09a.5.5,0,0,0,.62.4,8.56,8.56,0,0,0,1-.27.87.87,0,0,0,.72,0,1.11,1.11,0,0,0,1.05-1,7.28,7.28,0,0,0,.1-1.2l.31-.39a1.24,1.24,0,0,0,1-.59L122,111a2.16,2.16,0,0,0,1.39-.75c.74-.62,1.39-1.34,2.18-1.89a6.4,6.4,0,0,0,2.1-2.86q1.82-4.11,3.62-8.22a.21.21,0,0,0,.1-.23c.23-.34.5-.67.7-1,1.51-2.72,3-7.95,4.5-10.68a2.63,2.63,0,0,0,.16-.69c.3-.33,1.1-1.67,1.41-2-.8.18,2.85-5.73,3.39-7.07,1.25.25,1.08,3.74,1.54,3.87.42,2.14,1,4.61,1.77,5.53.71,1.86.44,3.72,1.43,5.45a27.74,27.74,0,0,1,2.56,6.18c.56,2,.62,3.64,1.82,5.23a4.4,4.4,0,0,1,.85,1.75,4.14,4.14,0,0,0,.53,1.72.37.37,0,0,0,.58,0c.21-.27.06-.75.57-.87a18.53,18.53,0,0,1,1.7,2.48c.66.82,1.64,1.1,2.66,1.78-.14-1.21-.06-2.15,1-2.62,1.71-.62,1.82-.79,1.65-2.44C160.25,103.47,160.22,103.35,160.22,103.23Z"/></g></g></svg>