<?xml version="1.0" encoding="utf-8"?>
<!-- Generator: Adobe Illustrator 22.1.0, SVG Export Plug-In . SVG Version: 6.00 Build 0)  -->
<svg version="1.1" id="Layer_1" xmlns="http://www.w3.org/2000/svg" xmlns:xlink="http://www.w3.org/1999/xlink" x="0px" y="0px"
	 viewBox="0 0 1920 1080" style="enable-background:new 0 0 1920 1080;" xml:space="preserve">
<style type="text/css">
	.st0{display:none;}
	.st1{fill:#FFFFFF;}
</style>
<g>
	<rect x="-203" y="-363.4" class="st0" width="2376" height="1836"/>
	<g>
		<path class="st1" d="M940.3,391.6c-1.3,1.7-2.7,3.2-4.7,4.2c-1,0.5-1.9,1.5-2.8,2.4c-5.3,5.2-8.1,12.2-11.4,18.8
			c-2.4,4.8-3.4,9.9-3.7,15.2c-0.2,2.7-0.3,5.5-0.5,8.2c-0.4,5.2,0.1,10.2,1.2,15.2c1.7,7.9,5.9,13.4,12.7,16.9
			c2.6,1.3,5.1,2.9,7.5,4.7c2.6,1.9,5.4,3.2,8.5,3.8c1,0.2,1.9,0.5,3,0.7c0.2,1.3,0.6,2.4,0.5,3.4c-0.4,4.9-0.8,9.8-1.6,14.7
			c-2.4,14.9-5.1,29.8-7.6,44.8c-1.5,8.8-2,17.7-2.3,26.6c-0.2,5.8,1.3,11.6,0.4,17.4c0.9,12.2,1.6,24.4,4.1,36.4
			c1.4,6.6,3.5,12.9,7.4,18.3c4.1,5.7,9.5,8.6,16.3,8.5c2.7,0,5.4-0.1,8.1,0.5c3.9,0.9,7.8-0.2,11.7-1c6.1-1.2,11.5-3.6,14.8-9.7
			c0.3-0.5,0.6-0.9,1-1.3c3.3-3.1,4.3-7.4,5.3-11.7c0.3-1.4,0.4-2.9,0.2-4.3c-1.5-7.6-3-15.1-7.9-21.3c-3.2-4.1-5.2-8.8-4.1-14.5
			c0.4-2,0.1-4-1.3-5.6c-0.6,0.1-1.3,0.1-2.2,0.2c-0.7-2.3-2.4-4.5-0.3-7c0.1-0.1,0-0.3,0-0.5c-2.2-1.6-2.5-4.2-3-6.6
			c-0.2-1.2-0.9-2.9-0.4-3.6c1.9-3,0.7-5.9,0.5-8.9c-0.1-2.2-0.3-4.3-0.2-6.5c0.1-5.4,0.4-10.9,0.3-16.3c-0.1-8-0.3-16-0.6-23.9
			c-0.2-5.6-0.8-11.2-1.2-16.8c-0.2-3.1-0.7-6.1-0.9-9.2c-0.1-1.2-0.4-2.6,1-3.4c7.6,8.7,7.9,8.8,16.8,10.2c2.3,1.9,4.1,3.9,6.4,5.1
			c2.4,1.4,5.1,2.1,7.7,3c3.2,1.1,6.4,1,9.6-0.6c7.4-3.7,14.2-8.3,18.9-15.6c0.5-0.8,1.3-1.5,1.8-2.2c3.3,2,6,4.4,9.2,5.5
			c4.3,1.6,7.2,4.7,10.3,7.8c0.7,0.7,1.4,1.6,2.1,2.3c1.8,2,4,3.4,6.6,3.9c1.2,0.3,2.4,0.5,3.5,0.9c4.8,1.6,9.1,0.5,13.3-2.2
			c1.6-1.1,3.2-2.1,4.9-3c3.1-1.6,5.9-0.7,7.2,2.4c1.1,2.7,2.9,4.3,5.6,5.1c1.3,0.4,2.7,0.7,3.9,1.4c4.6,2.7,9.6,2.4,14.5,2.5
			c0.8,0,1.7-0.2,2.5-0.4c2.3-0.6,4.6-1.4,7-1.9c4.4-0.9,8-3.2,11.1-6.5c1.7-1.8,3.4-3.6,5.1-5.3c3-3.1,6.5-5.9,8.2-10.2
			c0.3-0.8,1-1.5,1.5-2.2c2.9-4,5.9-8,8.5-12.2c5-8,7.9-17,10.7-26.1c0.9-2.8,1-5.9,1.5-9c-1.9-1.2-2.7-3.4-5-3.7
			c-0.8-0.1-1.8-1.7-2-2.8c-0.4-1.7-0.3-3.5-0.3-5.3c0-1.8,0.2-3.5,0.3-5.7c-3,2.9-6-0.4-8.8,1c-1.4,1.8-1.9,3.7-1,6.2
			c0.8,2.1,0.4,4.5-1.8,5.7c-3.1,1.7-4.9,4.6-6.2,7.7c-3.8,8.9-9,17-14.2,25c-4.1,6.2-9,11.2-15.8,14.2c-2.4,1-4.5,2.7-6.7,4
			c-1.8,1-3.6,2.1-5.5,2.9c-2,0.9-3.6,0.2-5-1.6c0.5-0.7,0.9-1.4,1.3-1.8c5.4-5.1,9.9-11,14.2-17.1c2.7-3.9,5.1-8.2,6.9-12.6
			c1.8-4.5,3.8-8.8,6.3-12.9c3.5-5.8,5.6-12.3,8-18.6c1.6-4.3,2.1-9,2.9-13.6c0.4-2.3,0.5-4.6,0.6-6.9c0.1-1.8,0.2-3.6,0.3-5.3
			c0.2-3.9,0.7-7.9,0.7-11.8c0-4.6-2.1-8.3-6.4-10.2c-1.1-0.5-2.2-1.1-3.4-1.3c-2.4-0.4-4.5-1.6-6.4-2.9c-0.8,0.5-1.4,1.2-1.9,1.2
			c-3.4-0.2-5.9,1.6-8.5,3.4c-2.9,2.1-5.9,4.2-8.8,6.3c0.9,0.1,1.7,0.3,2.6,0.4c0,0.4,0,0.6-0.1,0.7c-0.7,0.8-1.4,1.5-2.2,2.3
			c-6.1,5.7-11.2,12.1-14.2,20.1c-2.2,5.8-4.1,11.6-6.1,17.4c0.6,0.1,1.1-0.2,1.4-0.9c0.5-1,0.7-2.2,1.9-2.8c0.3,2.3-0.2,4.1-1,5.9
			c-0.9,2.1-2.1,4.4-1.2,7.4c0.5-0.8,0.8-1.3,0.9-1.7c1.4-4.6,2.3-9.4,4.7-13.6c0.3-0.5,0.2-1.4,0-2c-0.2-0.7-0.6-1.3,0.5-1.4
			c1.5-0.1,1.6-1.7,2.4-2.6c0.8-0.9,1.4-1.9,2.6-2c-1,2.2-2.7,4.4-2.2,6.9c0.4,2-0.3,3.5-0.9,5.2c-1.8,5.1-3.6,10.1-4.1,15.6
			c-0.6,5.7-1.4,11.4-2,17.1c-0.3,2.5-0.8,4.9-3,6.4c-1.7-1.9,0.1-4.3-1.1-6.3c-1.7-0.5-2.7-1.7-2.8-3.8c0-1.1,0-2.2-0.3-3.2
			c-0.2-1-0.8-1.8-1.3-2.8c-1.9,0.6-3.3,1.1-2.9,3.3c0.8,0.3,1.5,0.6,2.5,1c-1.2,1.8-1.4,3.6-1,5.7c0.5,3,0.7,6.1,0.8,9.1
			c0,0.7-0.6,1.4-1.5,3.3c-0.3-3.1-0.6-5-0.8-6.9c-0.3-3.9-0.3-3.9-1.9-5c-0.4,2.7,0.8,5,1,7.5c0.2,2.5,0.7,4.9,1.1,7.4
			c-2.2,2.1-4.1,4.4-7.2,5.6c-1.3-3.8-0.8-7.4-1.1-10.9c-0.3-3.6,1.1-7.2,0.1-11.4c-1.8,8.4-1.4,16.4-1.4,24.3
			c-0.9,0.5-1.6,1.1-2.3,1.4c-3.3,1.4-5.2,1.1-7.2-1.8c-1.2-1.7-2.6-3.7-2.9-5.6c-1-7.1-2.7-14.3,0.8-21.2c0.3-0.6,0.5-1.3,0.7-2
			c2.1-7.4,4.3-14.8,8.2-21.4c0.8-1.3,1.6-3,1.5-4.5c-0.1-2,0.7-3.4,1.5-5c1.6-3,2.8-6.2,3.3-9.6c0.3-1.9,0.8-3.9,1.5-5.7
			c1.2-3.4,2.5-6.7,3.7-10.1c0.5-1.5,1.1-3.2,0.9-4.7c-0.5-4.2,0.7-8.2,1.4-12.2c-0.4-0.4-0.8-0.8-1.1-1.1c-2.3-1.7-3.5-2.6-5.8-4.3
			c-2-1.6-4.5-2.7-4.9-5.8c-0.3-2.2-0.7-4.5-1-6.7c-1.8-0.6-3.1-0.1-4.1,1.5c-1.1,1.9-1.9,3.8-2.1,6c-0.3,2.9-1.8,5-4.5,6
			c-1,0.4-1.9,0.9-2.8,1.4c-1.6,4.5-3.1,8.8-4.7,13.2c0,0,0,0,0.1,0c0.7,0.1,1.3,0.3,2.1,0.4c0.3,2.7-0.5,5-1.7,7.2
			c-0.8-0.2-1.4-0.4-2-0.6c-1.5,4.7-3.1,9.1-4.4,13.6c-3,10.4-5.7,20.8-8.7,31.2c-1.8,6.3-4.2,12.4-8,17.6c-3.3,4.4-7.2,8.3-11,12.2
			c-2.1,2.1-4.7,3.6-8,3.8c-0.4-0.9-0.9-1.7-0.9-2.5c-0.2-2.2-0.4-4.4-0.3-6.5c0.3-5.6,0.5-11.2,1.1-16.8c0.6-5.4,1.4-10.8,2.6-16.1
			c1-4.6,2.8-8.9,4-13.5c1.2-4.9,2.5-9.9,2.8-14.9c0.3-5.2,0-10.4,1.3-15.3c-0.4-0.5-0.5-0.9-0.8-1c-2.2-1-3.7-2.5-4.1-5.1
			c-0.2-0.9-1.1-1.7-1.7-2.6c-1.3,0.6-2.3,1.3-3.5,1.7c-1.9,0.6-3.1,1.8-4.3,3.6c-0.9,1.4-1.9,2.4-1.2,4.2c0.2,0.5-0.1,1.6-0.5,2
			c-1.5,1.7-1.5,3.9-1.9,6c-1.1,6.2-3.4,12.2-4.3,18.4c-0.2,1.4-0.9,2.8-1.4,4.1c-0.7,1.6-1.1,3.3-1.3,5.1
			c-0.5,4.7-1.7,9.3-4.5,13.2c-1.7,2.3-3.2,4.7-4.9,7c-0.3,0.5-0.9,0.8-2.1,1.6c0.6-3.1,0.9-5.4,1.5-7.6c0.5-1.7,1.3-3.3,2-4.9
			c0,0,0,0,0,0c-2.2,0.2-3.8,1.5-4.9,3.4c-0.8,1.3-1.7,2.6-2.7,4c-0.3-0.6-0.7-1-0.6-1.2c0.6-3.6,1.1-7.2,1.9-10.7
			c2.4-10.5,3.2-21.2,3.5-31.9c0.1-5.2-0.1-10.3-0.1-15.4c-1.8-2.1-4.1-2.1-6.6-1.9c-2.8,0.2-3,3.2-4.8,4.5c-1.1-0.3-2.1-0.7-3.2-1
			c-2.1,1.7-4.3,3.4-6.4,5c-2.1-0.5-3.6-2.5-5.6-1.7c-5,1.9-10.6,1.5-15.1,5c-0.7,0.5-1.6,0.6-2.4,0.9
			C946.9,385.2,943.1,387.7,940.3,391.6z M950.3,627.5c-0.1,0-0.3,0-0.3-0.1c0-0.1,0-0.2,0.1-0.4c0.1,0,0.3,0,0.3,0.1
			C950.4,627.3,950.3,627.4,950.3,627.5z M951.7,631.5c-0.1-0.1-0.3-0.1-0.3-0.2c-0.1-0.1,0-0.3,0-0.5c0.2,0.1,0.4,0.1,0.4,0.2
			C951.8,631.1,951.7,631.3,951.7,631.5z M1133.7,376.4c0.1,0.1,0.2,0.2,0.4,0.3c-0.1,0.1-0.3,0.2-0.4,0.2c-0.1,0-0.2-0.2-0.4-0.3
			C1133.5,376.6,1133.6,376.5,1133.7,376.4z M1121.2,385.8c-0.5,0.6-0.9,1.3-1.5,1.9c-0.4,0.4-1,0.7-2.3,1.6
			C1118.2,386.9,1119.2,386,1121.2,385.8z M1110.8,395.6c0.3-0.8,0.5-1.7,0.8-2.5c0.1-0.2,0.1-0.3,0.2-0.5c0.6-0.8,1.2-1.7,1.9-2.4
			c0.2-0.2,1-0.1,1.4,0.1c0.3,0.2,0.6,0.9,0.5,1.3c-0.4,1.8-1.6,3-3.1,4c-0.2,0-0.3,0-0.4,0C1111.6,395.7,1111.2,395.6,1110.8,395.6
			z M1112.3,401.2c1.9-3.4,3.7-7,6.5-9.6c4.3-3.9,8.5-7.9,13.9-10.2c1.2-0.5,2.2-1.6,3.3-2.5c0.8-0.6,1.4-1.4,2.5-2.5
			c-1.3,5.3-4.8,9.6-9.3,11.3c-3.4,1.3-6.1,3.2-7.8,6.5c-0.5,0.9-1.2,2-2,2.4c-3.3,1.3-4.9,4.4-6.9,7
			C1112,402.7,1111.9,401.9,1112.3,401.2z M1106.2,446.4c2.4-12.9,5.8-25.5,11.8-37.2c3.9-7.5,9.2-13.4,16.4-17.4
			c0.7-0.4,1.5-0.7,2.3-1.1c1.1,0.7,0.8,1.6,0.4,2.4c-2.9,6.5-5.3,13.2-8.7,19.4c-5.9,10.8-11.7,21.6-18.3,31.9
			c-0.9,1.5-2,2.9-2.9,4.3c-0.3-0.1-0.6-0.1-0.9-0.2C1106.2,447.8,1106.1,447.1,1106.2,446.4z M1053.3,474.1
			c2.7,3.3,5.7,6.2,7.3,11.1c-4-1.5-6.6-3.5-8.6-6.4C1051,477.3,1051.3,476.5,1053.3,474.1z M990.6,464.1c0.6-2.7,1.9-4.6,4.2-5.8
			c1.2-0.6,2.3-1.3,3.7-2.1c1.8,3.7,0.3,7.4,0.9,10.8c0.6,3.6,1,7.2,1.6,10.7c0.6,3.5,2.8,6.6,2.6,10.3c-5.4,1-9.3-0.7-11.4-5.8
			C990,476.5,989.3,470.4,990.6,464.1z M981.6,614.4c0.3,1.5,0.2,2.9-1.1,4.3c-0.8-0.8-1.7-1.6-2.4-2.5c-3.2-4.8-4.7-10.4-6.3-15.9
			c-3.5-12.3-4-25-3.7-37.8c0.2-5.6,0.3-11.3,1.6-16.8c0.1-0.3,0.3-0.6,0.8-1.3c0.4,3.6,0.8,6.8,1.1,10c0.8,8,2.4,15.8,4,23.6
			c0.4,1.8,0.7,3.4,0,5.3c-0.8,2.1-0.3,4.3,0.2,6.4c1.3,5.1,2.7,10.1,3.9,15.2C980.5,608,981.1,611.2,981.6,614.4z M951.6,429.9
			c1.6-8.2,5.4-16,10-23.4c1.1-1.8,2.4-3.7,5.4-3.9c0.9,5.8-1,16.6-6.4,36c-1,3.7-0.9,7.7-4.1,11.2c-3.8-2.4-5.1-5.6-5.3-9
			C950.9,437.2,950.9,433.5,951.6,429.9z M948.1,450.9c1.5-0.3,2.7-0.6,3.9-0.8c0.9,1.2,1.8,2.5,2.7,3.8c-0.1,0.8-0.4,1.5-1.2,1.6
			c-0.6,0.1-1.2,0.1-1.8-0.1c-1.7-0.6-3-1.6-3.6-3.4C948.1,451.7,948.2,451.3,948.1,450.9z"/>
		<path class="st1" d="M1100,417.5c0,0,0-0.1,0-0.1c-0.1,0-0.1,0-0.2,0C1099.8,417.4,1100,417.5,1100,417.5z"/>
		<path class="st1" d="M1119.9,376.6c0,0,0.1-0.1,0.1-0.1c-0.1,0-0.2,0-0.3,0C1119.8,376.5,1119.8,376.5,1119.9,376.6z"/>
	</g>
	<g>
		<path class="st1" d="M1420.1,512c0.8,2.5,0.2,5.4,2.2,7.5c0.2,0.2,0.5,0.4,0.7,0.6c2,1.5,3.9,3,6.4,4.9c0.2,1.7,0.6,4,0.9,6.4
			c2.9,1.6,3.4,1.6,5.4-0.5c0.2-0.2,0.4-0.5,0.6-0.7c2-2.2,4-4.5,6.1-6.6c2.8-2.8,5.6-5.7,7.1-9.4c2-4.7,5.3-7.6,9.8-9.6
			c0.4-0.2,0.8-0.5,1.2-0.7c2.2-1.2,4.2-2.7,5.5-5c0.2-0.4,0.7-0.6,1.1-0.9c1.1,0.1,2.1,0.3,3.2,0.4c3.3,0.3,6.5-0.1,9.6-1.6
			c2.3-1.1,3.9-3.1,5.6-4.9c0.7-0.7,1.1-2,2.7-1.6c0.5,2.1,1,4.2,1.4,6.3c0.9,4.5,1.5,9,2.5,13.5c1.2,5.7,2.6,11.4,4.1,17
			c1.8,6.9,4.7,13.4,9.5,18.6c4.6,5,9.9,8.5,17.1,7.7c1.2-0.1,2.5,0,3.6,0.3c6.4,1.8,12.6,0.6,18.8-1.2c1-0.3,1.9-1,2.9-1.5
			c3.7-2.2,6.6-5.3,8.5-9.2c1.7-3.6,3.8-6.8,6.4-9.8c1.4-1.7,2.5-3.6,2-6c-0.3-1.7,0.6-3,1.5-4.3c2.2-3.4,4.4-6.9,6.7-10.2
			c0.8-1.2,1.3-2.4,1.6-3.8c1-3.9,2.4-7.8,1.5-12c-0.1-0.3,0.1-0.6,0.2-0.9c0.8-1.7,0.1-3.1-1.3-4.1c-1.6-1.2-2-3-2.4-4.9
			c-0.6-3-0.3-5.9,0-8.9c0.1-0.9,0.5-1.9-1-2.5c-1.3,1.4-2.3,3.2-3.2,5c-3.4,6.8-7.8,12.8-13.5,17.9c-2.1,1.9-4.2,3.8-6.1,5.9
			c-5.2,5.8-11.2,10.5-17.5,14.9c-1.7,1.2-3.4,2.2-5.2,3.1c-2,1-3.1,0.9-4.6-0.8c-0.8-0.9-1.4-2-1.9-3.2c-2.2-5.9-2.8-12.2-3.5-18.5
			c0-0.5,0-0.9,0-1.4c0-2.5,0.1-5,0-7.5c0-1.6-0.2-3.1-0.2-4.7c0-14.8,0.1-29.6,2.2-44.3c0.9-6.2,1.8-12.4,3.6-18.5
			c1.3-4.3,2.1-8.9,2.5-13.4c0.4-3.9,1.2-7.7,2.4-11.5c1.7-5.6,3.2-11.1,4.9-16.7c0.4-1.3,1-2.6,1.5-3.9c1.2-3.2,2.5-6.4,3.5-9.7
			c0.6-2,1.7-3.3,3.7-3.7c2.4-0.6,4.8-1.3,7.3-1.9c3.2-0.7,6.6-1,9.6-2.1c5.8-2.1,11.8-3.3,17.6-5c6.9-2,13.9-3.9,20.8-5.8
			c3.5-1,6.2-2.9,8.1-6c0.7-1,1.6-1.9,2.3-2.9c0.4-0.6,0.8-1.4,0.7-2.1c-0.4-2.3-1.6-4.4-1.6-6.7c-2-1.4-1.6-3.5-1.6-5.5
			c0-0.5-0.3-1.2-0.6-1.6c-1.8-2.1-2.9-4.4-2.3-7.2c0.3-1.3,0-2.5-1.3-3.5c-2.4,0.7-5,1.4-7.5,2c-4.9,1.1-9.8,2-14.7,3.1
			c-7.8,1.7-15.7,3.3-23.5,5.1c-1.7,0.4-3.4,0.7-5.7,0c0.6-2.8,1.8-5,2.8-7.2c2-4.9,3.8-9.9,4-15.4c0.1-3.3,0.4-6.6,0.6-9.8
			c0.1-1.6,0.2-3.1,0.6-4.6c1.1-4.2,2.8-8.2,4.6-12.2c0.3-0.6,0.5-1.1,0.6-1.7c0.3-2.2,1-4.4,0.7-6.5c-0.3-2.1-1.6-4-2.4-6.1
			c-0.2-0.6-0.5-1.1-0.8-1.7c-1.4-0.6-2.7-1-4.1-0.2c-0.1,1.1-0.1,2.1-0.2,3.3c-0.8,0.1-1.5,0.3-2,0.2c-3.8-0.8-6.3,0.8-8.2,3.9
			c-0.6,0.9-1.2,1.8-1.7,2.8c-7,12.1-12.8,24.7-17,38.1c-2.3,7.5-4.5,15-6.8,22.5c-0.5,1.8-1.2,3.5-1.8,5.2
			c-1.4,0.4-2.6,0.9-3.8,1.2c-3.2,0.7-6.4,1.4-9.6,2.1c-4.3,0.9-8.5,2.2-12.4,4.4c-1.9,1.1-3.1,2.6-3.6,4.6
			c-0.1,0.6-0.4,7.7-0.3,8.4c0.1,3.7,1.3,7.5-0.1,11.2c-0.5,1.4,0.2,2.7,1.6,2.9c2.3,0.3,4.7,0.6,7,0.4c2.8-0.2,5.6-0.8,8.4-1.2
			c0.7-0.1,1.5-0.1,2.5-0.1c0,0.8,0.2,1.4,0,2c-0.6,2.4-1.3,4.9-2,7.3c-3.3,12.1-6.9,24.2-9.1,36.7c-0.8,4.7-1.5,9.3-2.5,14
			c-0.4,1.8-0.9,3.7-1.8,5.3c-4.3,7.9-9.4,15.3-14.8,22.5c-0.7,0.9-6.9,9.8-8.6,10.1c-0.1-0.8,1.5-7.5,1.6-8.2
			c0.4-3.3,1.6-6.1,2-9.4c1-8.3,4-18.4,5-26.7c-0.1,0.5,0.7-7.8,1.4-11.3c0.7-3.6,1.3-5.7-1.5-8.2c-0.8-0.7-1.1-1.5-1.1-2.5
			c0.1-2.2-1.2-3.1-3.1-3.4c-0.6-0.1-1.3-0.2-1.8-0.5c-1.9-0.9-2.7-2.5-2.3-4.7c0.8-4.2,1.6-8.4,2.4-12.6c0.2-1.2,0.7-2.4,0.8-3.7
			c0.2-3.9-1.2-5.1-5.1-4.6c-0.5,0-0.9,0.1-1.1,0.1c-3.4,3.5-5.9,7.7-10.5,9.3c-0.9-0.6-1.7-1.1-2.4-1.6c-2.5,2.4-2.6,5.7-3.5,8.7
			c-2.2,6.8-3,13.9-4.3,20.9c-0.4,2.3-0.7,4.7-0.8,7.1c-0.1,4.6-0.8,9.1-1.9,13.6c-1.2,4.6-2,9.3-2.8,14c-1.8,10.5-3.3,21-5.5,31.4
			c-1.6,7.6-4,15-6.2,22.5c-1.3,4.2-2.7,8.5-5.5,12C1420.5,509,1419.6,510.4,1420.1,512z"/>
		<path class="st1" d="M1239,453.5c0.3,2.9,0.8,5.8,1.5,8.6c1.1,4.9,2.6,9.7,3.7,14.6c0.9,4,2.1,7.8,3.5,11.5
			c0.9,2.3,1.8,4.6,2.8,6.9c2.1,4.8,5,9.2,8.1,13.3c0.7,1,1.7,1.7,2.6,2.6c2,1.9,4,3.6,5.9,5.6c7.4,7.9,16.4,10.8,26.8,9.5
			c3.4-0.4,6.8-1.5,10.2-2.5c4.5-1.4,8.8-3.4,13-5.7c2.7-1.4,5.1-3.2,7-5.5c1.5-1.8,2.8-3.7,4.3-5.5c2.6-3.1,4.6-6.5,5.8-10.4
			c0.8-2.4,1.6-4.7,2.4-7.1c0.8-2.4,1.5-4.7,1.2-7.3c-0.1-1.6,0.1-3.3,0.3-5c0.6-5,0.2-10-0.7-14.9c-1.3-8-4.7-15.3-9-22.1
			c-6.6-10.7-11.9-22-17.4-33.3c-2.6-5.5-5.4-10.9-10-15c-1.4-1.3-2.7-2.7-3.9-4.2c-1.8-2.2-2.8-4.8-2.1-7.7
			c1.2-5.2,2.6-10.2,5.1-14.9c1-1.9,2.6-3.5,4-5.2c0.8-1,2-1.3,3.3-1.1c0.9,0.2,1.4,1.1,0.9,1.9c-0.6,1-1.3,1.9-2.3,3.2
			c1.2,0.3,2.1,0.5,3,0.7c0.8,0.2,1.7,0.1,2.3,0.5c3.3,2.2,7.2,2.4,10.7,3.5c2.9,0.9,5-0.7,6.4-3.5c1.4-2.7,1.7-5.4,1-8.4
			c-0.8-3.4-2.4-6.2-4.6-8.7c-1-1.1-1.9-2.3-3-3.4c-2.4-2.4-4.9-4.8-7.4-7.1c-1.4-1.3-3.2-2.1-5-2.8c-7-2.4-14.1-2.8-21.4-2.1
			c-4.6,0.4-8.7,2.2-12.3,5c-3.2,2.4-5.9,5.3-8.3,8.6c-4.4,6.1-6.5,13.1-7.6,20.4c-0.5,3.5-0.4,7,0.6,10.4
			c2.1,7.2,4.9,14.1,8.7,20.6c3.3,5.6,6.3,11.4,9,17.3c3.4,7.2,6.7,14.6,10.7,21.5c2.9,5.1,5.7,10.4,8.6,15.5
			c1.4,2.6,2.2,5.3,2.2,8.3c0,4.9-0.7,9.7-2.2,14.3c-0.4,1.2-1.1,2.2-2.1,3c-2.9,2.4-6,4.1-9.6,5.2c-2.1,0.6-3.9,0.5-5.8-0.5
			c-5.4-3-8.6-8-10.6-13.7c-0.6-1.8-1.2-3.7-1.6-5.5c-0.9-3.9-2.2-7.7-2.7-11.8c-0.3-2.7-0.9-5.4-2.2-7.9c-0.4,0.1-0.7,0.2-0.9,0.4
			c-0.2,0.1-0.4,0.4-0.6,0.6c-1.2,1.3-2.5,1-3.5-0.2c-0.2-0.2-0.4-0.4-0.5-0.6c-1.6-2.6-3.9-3.6-6.9-3.6c-1.3,0-2.5-0.7-3.8-1.1
			c-0.4-1.7-1.8-2.2-3.1-3.1c-0.3-0.2-0.6-0.7-0.6-1c-0.1-2.5-1.8-4.7-1.1-7.2c0.1-0.2-0.3-0.6-0.7-1.1c-0.8,1.2-1.6,2.2-2.2,3.2
			c-0.6,0.9-0.7,1.8,0,2.7c0.1,0.2-0.1,1-0.2,1c-0.5,0-1.2,0-1.4-0.3c-1.2-1.7-2.2-3.4-3.7-5.8c-0.1,2.6,0.6,4.4,1,6.2
			C1236.7,440.1,1238.3,446.7,1239,453.5z"/>
		<path class="st1" d="M1443.6,343.1c0.6-0.1,1.3-0.1,1.9,0c0.7,0.1,1.3,0.5,2.5,0.9c-5.1,2.3-5.1,2.3-6.8,4.7
			c1.5,1.4,4.1,1,5.9,2.4c6.2,1.3,12.1-0.5,18-1.4c0.8-0.1,1.5-0.5,2.2-0.9c-0.2-0.7,5.5-2.6,7.3-3.3c6.8-2.8,12.7-9.6,10.7-15
			c0-2.6-4.2-2.7-5.1-5.2c-1-0.8-2.3-2.5-3.4-3.1c-0.9-0.5-2-0.9-3-1.1c-1.9-0.3-3.8-0.2-5.6-0.5c-3.7-0.5-9.9-2.7-11.1-2.7
			c1.1,0.8-5.8,2.6-9.2,3.7c-1.9,0.6-3.7,1.6-5.5,2.6c-0.5,0.3-1.1,0.6-0.9,1.4c0.8,1.6,3.3-0.1,3.9,2.2c-0.5,0.4-1,1-1.5,1.4
			c-1.1,0.9-2.3,1.7-3.2,2.7c-0.8,0.9-1.1,2.3-1.9,3.2c-0.8,1-2.9,2.9-4.1,4C1433.8,340,1441.4,342.5,1443.6,343.1z"/>
		<path class="st1" d="M1364.1,505c5.2,3.8,10.5,7.4,17,8.4c3.8,0.6,7.7,1,11.6,1.2c4.1,0.2,7.3-1.7,9.5-5.1c1.5-2.4,2.8-5,3.9-7.6
			c1.3-3.3,2.6-6.4,4.5-9.4c3.5-5.5,6.8-11,9.3-17.1c0.7-1.6,1.4-3.2,2.3-4.7c1.5-2.7,2.2-5.6,2.7-8.5c1.3-7.3-0.1-14.3-2.6-21
			c-2.8-7.6-5.3-15.2-7.6-23c-1.5-5-2.9-10.1-4.3-15.1c-0.3-1-0.5-2.2-0.3-3.3c0.4-1.9-0.2-3.4-1.3-4.8c-0.9-1.1-2.1-2.4-2.1-3.6
			c0-2.3-0.9-3.5-2.9-4.3c-0.7-0.3-1.2-1-1.7-1.6c-1.1-1.2-2.4-2-4-2.3c-5.4-0.9-10.5-3.2-16-3.8c-1.9-0.2-3.6-0.7-5.2,0.9
			c-0.6,0.6-1.7,0.6-2.6,0.6c-1.1,0-2.2-0.2-3.3-0.2c-1.1,0-2.2,0.1-2.7,1.5c0.4,2,1.9,4.1-0.2,6.2c-0.2,0.2,0,0.9,0,1.3
			c0.1,0.9,0.2,1.9,0.2,2.3c-2.6,3.4-5,6.4-7.1,9.5c-2.1,3.2-4.1,6.5-5.6,9.9c-6,13.6-9.8,27.9-10.9,42.9
			c-0.4,5.7-0.7,11.5,0.3,17.2C1347.4,485.2,1352.9,496.8,1364.1,505z M1364.2,449.9c0.7-7.4,2.2-14.8,3.4-22.2
			c0.2-1.4,0.7-2.8,1.1-4c1.6-0.7,3-1.3,4.3-2c5.7,1.1,10.3,4.5,15.4,7c1.2,0.6,1.8,1.7,2,3.1c0.2,1.6,0.6,3.1,0.8,4.7
			c1,8.5,2.3,17,2.3,25.7c0,6.4-1.5,12.2-4.8,17.7c-1.7,3-4.1,5.2-6.7,7.3c-1.5,1.2-2.4,1.3-3.8,0.1c-4.9-4.2-9.4-8.8-11.6-15.2
			C1364,464.8,1363.5,457.4,1364.2,449.9z"/>
	</g>
	<g>
		<path class="st1" d="M811.9,781.5c0,0,0.1,0,0.1-0.1c0,0,0,0,0-0.1C811.9,781.4,811.9,781.4,811.9,781.5z"/>
		<path class="st1" d="M565.6,795.4c0.7-1.5,1.4-3.1,0.4-5.5c-0.9,1.6-1.3,2.5-1.8,3.4c-3.7,7.5-7.8,14.9-13.2,21.4
			c-0.2,0.2-0.1,0.7-0.1,1.3C557.4,811.2,561.7,803.8,565.6,795.4z"/>
		<path class="st1" d="M573,760.1c1.1-1.1,0.8-2.1,0.6-3.7C572.8,757.9,572.1,758.8,573,760.1z"/>
		<path class="st1" d="M573.6,750.9c-0.1,0-0.2,0-0.3,0c0,0.6,0,1.3,0,1.9c0.1,0,0.2,0,0.3,0C573.7,752.1,573.6,751.5,573.6,750.9z"
			/>
		<path class="st1" d="M574.5,744.7c0-0.1,0-0.1,0-0.2c0-0.1-0.1-0.2-0.1-0.3c0-0.1-0.1-0.2-0.1-0.3l0,0h0c0,0.1-0.1,0.3-0.1,0.4
			c0.1,0.1,0.1,0.3,0.2,0.4c0,0.1,0.1,0.1,0.1,0.2C574.4,744.8,574.5,744.8,574.5,744.7z"/>
		<path class="st1" d="M472.2,701.5c-0.1-0.1-0.3-0.4-0.3-0.3c-0.3,0.1-0.5,0.3-0.7,0.4c0.3,0.1,0.5,0.2,0.8,0.3
			C472,701.9,472.1,701.6,472.2,701.5z"/>
		<path class="st1" d="M721.5,597.3c0.2-0.1,0.3-0.3,0.5-0.4c0.2-0.1,0.3-0.3,0.5-0.4c-0.4-0.2-0.7-0.5-0.8-0.4
			c-0.3,0.1-0.5,0.4-0.6,0.7c0,0.1,0.1,0.2,0.3,0.4C721.5,597.2,721.5,597.2,721.5,597.3z"/>
		<g>
			<path class="st1" d="M403.5,835.6c0.5,0.5,1.1,0.9,1.8,0.9c3.4,0.3,6.8,0.5,10.2,0.5c1.9,0,3.6-0.9,4.8-2.5
				c1.6-2.2,3.4-4.3,4.9-6.5c4-6.2,8.9-11.8,13.4-17.5c11.4-14.2,22-31.1,29.7-47.6c1.8-3.8,3.3-7.7,4.6-11.8
				c3.1-10.1,7.5-19.6,15.1-27.4c1.8-1.9,3.1-3.9,3-6.7c-0.1-1.8,0.6-3.6,1.1-5.4c1.4-4.7,2.7-9.4,4.2-14.1c0.9-2.9-1.2-6-4.5-5.8
				c-1.2,0.1-2.5,0-3.5,0.4c-2.1,0.8-4.1,1.7-5.9,2.9c-8.1,5.6-14.8,12.6-20.1,20.8c-5.6,8.6-10.7,17.4-14.9,26.7
				c-6,13.2-13.8,25.4-21.3,37.9c-1.5,2.5-3.3,4.8-5,7.1c-0.7,0.9-1.6,1.6-3.4,3.3c-0.1-5,0.4-8.7,0.9-12.3c1.6-11.5,3-23,3.8-34.5
				c0.2-3.1,0.6-6.1,1-9.1c0.4-3.4,0.8-6.7,1.3-10.1c0.4-2.7,0.8-5.4,1.3-8.1c0.7-3.5,1.1-7,1-10.6c0-2.8-0.8-5-2.9-6.7
				c-0.8-0.7-1.5-1.4-2.3-2.1c-2-1.8-4.4-1.9-6.8-1.3c-1.7,0.5-3.7,1.2-3.1,3.9c0.2,0.6-0.5,1.6-1,2.2c-2.7,3.3-4.6,7.1-6,11.2
				c-3.8,11.6-5.9,23.5-7,35.6c-0.9,10.4-2,20.7-3,31.1c-0.8,9.5-1.6,19.1-1.7,28.6c0,8.5,3.5,15.9,6.9,23.3
				C400.8,833.3,402.3,834.4,403.5,835.6z"/>
			<path class="st1" d="M565.6,672.7c0.9-0.4,2.1-0.8,3-1.4c1.7-1.1,3.2-0.9,4.7,0.4c0.6,0.5,1.2,1.1,1.7,1.6
				c4.1-1.1,8.1-0.9,12-0.3c1.4,0.2,2.6,0,3.9,0c1.6-0.1,3.4-0.8,5.1,0.8c-0.2,1.2-0.4,2.5-0.7,3.7c-4.4,17.1-9.1,34.5-12.4,51.9
				c-1,5.2-2.8,10.4-3.1,15.8c-0.1,0.8-0.4,1.6-0.5,2.5c-0.4,1.8-0.8,3.6-1.1,5.4c-0.7,4.1-1.5,8.3-2.1,12.4c-0.3,2-0.5,4-0.7,6
				c-0.2,1.7-0.4,3.3-0.7,5c-0.2,1.5-0.1,3-1.1,5.1c-0.6-3.4-0.7-6.1-0.1-8.7c0.6-2.6-0.2-4.9-0.8-7.3c-0.6,6.4-0.9,12.7-1.1,19
				c-0.1,2.6-0.4,5.1-1.5,7.4c-2.5,5.3-4.9,10.8-7.7,16c-4,7.2-8.2,14.4-14.2,20.4c-0.3,0.3-0.8,0.9-0.7,1.2c1,2.2-1,2.9-2.1,4
				c-1,1-2.2,1.9-3,2.5c0.5,1.8,0.9,3.1,1.3,4.3c3.4,1.9,6.7,0.9,9.1,0.3c3.5-3.4,6.4-6.2,9.3-9c3.7-3.5,7.4-6.9,11.4-10.5
				c0.6,1.3,1.2,2.3,1.6,3.3c2.1,5.7,5.2,10.9,8.3,16.1c2.6,4.4,6.1,8,10.5,10.8c1.5,1,3,2.2,4.6,3.1c2.6,1.6,5.5,2.7,8.7,2.6
				c3.1-0.1,6.1-0.4,9.2-0.7c3.3-0.3,5.7-2.2,8.1-4.1c2-1.7,3.1-3.7,3.7-6.4c0.6-2.6,0.5-4.9-0.4-6.9c1-2,2.2-3.5,2.5-5.2
				c0.3-1.7,0.9-3.2,1.7-4.7c2.9-6.1,6.1-12,8.5-18.3c3.8-9.5,8.8-18.5,13.4-27.6c3.5-7.1,6.9-14.2,9-21.8c0.3-0.9,0.8-1.7,1.3-2.8
				c4.2,1.3,8.3-0.2,12.1,0.9c1.8,1.9,2,4.1,2.2,6.3c0.5,5.8-0.7,11.3-2.6,16.7c-4.4,12.5-7.8,25.2-10.1,38.2
				c-0.8,4.8-1.7,9.5-1.5,14.4c0.2,4.9,2.2,8.9,5.7,12.4c3.2,3.2,6.6,6.1,10,9.2c2.6,2.4,5.6,3.8,8.7,5.1c2.1,0.9,4.4,0.6,6.4-0.7
				c2-1.3,4.1-2.5,6-3.8c3.4-2.3,6.7-4.7,10.1-6.9c9.4-6.2,17.8-13.5,24.8-22.3c0.7-0.9,1.6-1.6,2.7-2.6c1.4,1.1,2.6,2,3.6,3.1
				c3,3.4,6.8,5.3,11.2,6.6c2.1,0.6,4.3,1.4,5.9,2.7c1.6,1.3,3.2,1.9,5,2c3.1,0.1,6.2,0.3,9.2-0.3c8.9-1.7,16.6-5.8,23.2-11.9
				c0.9-0.8,1.8-1.5,2.8-2.2c9-6.2,16.6-13.7,23.5-22c2.2-2.7,3.7-5.6,4.3-8.8c0.6-3.5,1.8-6.6,4-9.5c-3.4-4.9-5.6-10.5-10.4-14.9
				c-0.7,1.2-1.4,2.1-1.8,3.1c-1.4,3.4-3.6,6.2-6.8,8.2c-0.6,0.9-1,2.1-1.9,2.8c-4.8,4.2-9.6,8.4-14.6,12.5c-1.3,1-2.9,1.8-4.4,2.4
				c-2.2,0.9-4.4,1.7-6.5,2.9c-1.4,0.8-3.2,1.7-4.7,1.5c-2.4-0.3-4.3,0.5-6.4,1.3c-2.1,0.8-4.2,1.4-6.3,2c-3,0.8-6.1,0.9-9.2,0.5
				c-1.2-0.1-2.4-0.4-2.8-2c0.5-0.7,1.1-1.5,1.7-2.3c4.7-6.1,9.7-12.1,14-18.4c6.1-8.9,12.2-17.8,16.1-28c2.6-6.8,5.8-13.4,8.1-20.2
				c0.7-2.2,1.3-4.4,1.4-6.7c0.1-3.3,0.9-6.5,1.5-9.7c1.5-6.9,2.5-13.9,4.1-20.8c0.9-3.9-2.7-6.2-3.1-9.5c-0.1-1-1.2-2-2-2.7
				c-0.7-0.6-1.8-0.9-2.6-1.4c-0.5-0.3-1-0.8-1.2-1.3c-0.3-0.9-0.8-1.4-1.7-1.7c-1.8-0.5-3.6-1.3-5.4-0.6c-1.4,2-2.4,4.3-4.2,5.6
				c-2.1,1.6-3.3,3.7-4.9,5.5c-0.8,0.9-1.4,1.8-2.2,2.7c-1.1,1.3-2.3,2.3-4.4,2.1c-1.5-0.1-3,0.2-4.6,0.3c-1.2,3.1-3.2,5.5-5.8,7.5
				c-1.7,1.3-3.3,3-4.2,4.9c-1,2.2-2.4,4-3.7,5.9c-4.5,6.8-9.4,13.5-13.5,20.5c-4.7,7.9-9,16-13,24.2c-4.6,9.3-6.5,19.2-4.6,29.5
				c0.6,3.4,1.4,6.8,2.3,10.2c0.5,1.8,0.3,3.1-0.9,4.6c-2.2,2.8-5.2,4.8-7.9,7c-4.5,3.7-9.2,6.9-14.3,9.6c-1.3,0.7-2.6,1.5-4.4,1.2
				c0.2-1.4,0.2-2.5,0.5-3.6c1.4-5.5,2.7-11,4.3-16.4c1.9-6.6,4.2-13,5.8-19.6c3-12.2,1.8-23.7-5.9-34.2c-1.7-2.3-3.4-4.6-4.9-7
				c-2.5-4-6.2-5.9-10.7-7.1c-3.8-1-7.4-2.4-11.3-3.7c0.1-1.2,0.1-2.1,0.4-3.1c0.7-2.4,1.5-4.8,2.2-7.2c1.9-6.6,4.4-13,4.8-19.9
				c0.2-3.2,0.7-6.2,1.9-9.1c1.3-3.2-0.5-5.9-4-6.8c-1.4-0.4-2.7-0.6-4,0.1c-2.2,1-4.4,1.8-6.6,2.8c-2.6,1.3-4.9,2.9-8.1,3
				c-1.6,0-2.5,1-2.4,2.6c0.1,2-0.8,3.5-2,5c-1.7,2.1-3,4.5-3.6,7.1c-0.3,1.1-0.8,2.2-1.3,3.2c-4.2,7.6-6.2,15.9-8.6,24
				c-0.9,2.9-0.2,5.7,1.9,7.9c1.1,1.2,2.5,2.3,3.1,2.8c1.2,3.4,2.1,6.1,2.9,8.4c-7.7,19.6-16.1,38.4-25.2,57.3
				c-4.3,2.5-9.2,4.4-11.1,9.6c-0.1,0.3-0.3,0.6-0.6,0.8c-0.8,0.5-1.7,1.2-2.6,1.4c-4,0.6-7.2-1-8.5-4.7c-1.2-3.5-2.1-7.1-2.7-10.7
				c-1.9-11-1.7-22-1.6-33.1c0.1-10.4,2.5-20.3,6.6-29.8c0.7-1.7,1.3-3.5,1.8-5.2c0.7-2.8,1.9-5.3,3.1-8c3-6.6,6.3-13,8.6-19.9
				c4.4-13.4,8.9-26.7,12-40.4c0.2-1,0.6-1.9,0.9-2.9c0.8-0.4,1.6-0.7,2.4-1c15.4-6,31.7-11.7,47.8-15.6c13.2-3.1,26-7.5,39.2-10.8
				c1.7-0.4,3.5-0.8,4.3-2.4c1-2.1,3-2.7,4.8-3.4c4.6-1.7,8.3-4.5,11.6-7.9c1.2-1.2,2.5-2.2,3.8-3.2c1.1-0.8,2.2-1.6,3.2-2.4
				c0.6-0.5,1.4-1.1,0.8-2.1c-2.3-0.2-4.9,0.2-6.1-2.6c-0.1-0.3-0.9-0.3-1.4-0.4c-0.8-0.1-1.6-0.2-2.7-0.3c0.6-1.4,1-2.4,1.3-3.1
				c-1-1.3-2.3-2.3-2.6-3.5c-0.8-2.9-3.1-4.2-5.4-5.7c-0.7-0.5-1.8-0.6-2.3-1.2c-1.7-2-3.9-2.5-6.4-2.5c-1,0.8-2.1,1.6-3.1,2.4
				c0.2,0.6,0.4,1.3,0.7,2c-3.8,2.6-7.6,5-11.9,6.9c-0.8,0.3-1.8,0-3.2,0c0.9-1.6,1.6-2.8,2.3-4.1c-0.5-0.1-0.9-0.2-1.1-0.1
				c-6.4,2.8-13.2,4.7-20.1,6.2c-2.7,0.6-5.3,1.3-8,1.9c-5.6,1.1-11.1,2.3-16.7,3.2c-5.8,0.9-11.6,1.3-17.1,3.5
				c-0.9,0.4-1.9,0.8-3.1-0.1c0.2-0.7,0.3-1.4,0.5-2.2c1.3-3.8,2.6-7.6,3.9-11.3c2.7-7.4,4.6-15,3.3-23c-0.2-1.1,0.1-2.3,0.4-3.4
				c0.3-1.3,0-2.3-0.7-3.3c-0.6-0.8-1.2-1.9-2-2.3c-2.6-1.2-3-3.6-3.7-5.7c-0.3-0.9-0.5-1.9-0.7-2.9c-2.9,0.9-4.4,4-7.8,4.1
				c-0.4-1.3-1.1-1.8-2.6-1.2c-1.3,0.5-2.2,0.8-1.6,2.3c0.6,0.2,1.3,0.5,1.9,0.7c0.6,1.9,0.4,3.5-0.8,5.2c-2,3-4,6.2-5.5,9.6
				c-3.2,7.4-6.1,14.9-8.8,22.4c-3.5,9.4-6.9,18.9-10.1,28.4c-1.4,4.2-3.9,6.5-8.5,6.4c-0.3,0-0.7-0.1-1,0c-2.5,1-5.7,0.9-7.4,3.2
				c-1,1.4-2.4,2.3-3.5,3.6c-2.4,3-5.3,5-9.3,5.8c-2.8,0.6-5.8,1.7-7,4.7c-0.8,2-2.3,3.3-3.9,4.5c-1.2,0.9-2.3,2-3.3,3
				c0.5,1.3,0.9,2.4,1.4,3.4C565,672.4,565.2,672.4,565.6,672.7z M753,761.2c1.7-4.5,4-8.7,5.4-13.3c0.7-2.3,2.2-4,3.2-6
				c3.1-6,6.6-11.9,10-17.8c0.8-1.4,1.9-2.8,3-4c0.5-0.5,1.4-0.8,2.4-1.4c0,1.1,0.2,1.7,0,2.3c-1.2,3.4-2,7-3.7,10.2
				c-6.4,12-12.5,24.1-20.2,35.5c-0.5,0.8-1.2,1.5-2.6,3.2C750.7,766,752.1,763.6,753,761.2z M608.7,691.3L608.7,691.3
				C608.7,691.3,608.7,691.3,608.7,691.3C608.6,691.3,608.7,691.3,608.7,691.3z"/>
			<path class="st1" d="M482.1,802.8c2.2,3.9,4.1,7.8,5.6,11.9c1,2.6,2.5,4.8,4.9,6.3c3.7,2.5,8.1,3.4,12.1,5.2
				c0.6,0.3,1.3,0.2,2,0.2c4.7,0.1,9.1-0.7,13.4-2.7c7.3-3.4,13.1-8.6,18.5-14.3c4.7-4.9,8.9-10.3,12.8-15.8
				c1.4-2.1,3.3-3.9,4.5-6.2c2.7-5.1,5-10.3,7.5-15.5c1.7-3.5,2.7-7.3,3.3-11.1c1-6.8,2.1-13.6,2.9-20.4c0.3-2.6,0.7-5.3-1.3-7.7
				c-0.8-0.9-0.8-2.5-1-3.8c-0.2-1.7-0.1-3.4-0.4-5c-0.2-1.1-0.6-2.3-1.3-3.2c-1.9-2.8-4-5.4-5.9-8.2c-1.4-2-2.9-3.8-5.1-4.9
				c-3.2-1.5-4.7-4.8-7.4-6.8c-0.2-1.9-1.7-2.3-3.2-2.9c-1.7-0.6-3.5-1.3-5-1.9c-1.8,1.1-3.2,2.4-5,3.1c-2.9,1-5.9,1.6-8.9,2.4
				c-4.4,1.2-9.2,1.6-13,5.7c1.2,2.6,0.1,4.3-1.8,6.2c-3,2.9-6.2,5.8-7.4,10.1c-0.3,0.9-1.2,1.7-1.8,2.5
				c-12.3,15.1-19.5,32.8-22.9,50.8C476.6,784.9,477.5,794.7,482.1,802.8z M518.9,742.5c0.5-0.9,1-1.9,1.5-2.9c1.6,0.1,2.7,2,4.7,1
				c1.3-0.7,2.9-0.9,4.2-1.3c1,0.9,0.9,1.7,0,2.1c-1.5,0.7-3.3,0.9-4.7,1.7C522.4,744.2,520.7,743.8,518.9,742.5
				C518.9,742.5,518.9,742.5,518.9,742.5C518.9,742.5,518.9,742.4,518.9,742.5C518.9,742.5,518.9,742.5,518.9,742.5z M493.3,777.5
				c3.6-10.9,7.5-21.8,13.4-31.7c1.1-1.9,2-3.9,3-5.9c0.5-1,1.1-2.1,1.8-3.1c0.7-1,1.7-1,2.8-0.5c1.3,0.6,2.2,1.6,2.3,3.1
				c0,1.3,0,2.6,0.1,3.9c1.1,0.4,1.6-0.3,2.2-0.8c0.1,3.1,0.3,3.3,2.8,3.5c3.9,0.2,7.9,0.4,11.8,0.6c1.3,0.1,2.7,0.3,4.3,0.4
				c0.1,1,0.2,1.8,0.1,2.6c-0.9,7.4-2.6,14.6-5.3,21.5c-3.3,8.3-8.4,15.4-14.5,21.9c-1.7,1.8-3.9,3.3-5.9,4.8
				c-1.1,0.8-2.4,1.3-3.7,1.8c-3.9,1.3-7.5,0.6-10.3-2.4C493.1,791.5,490.9,784.9,493.3,777.5z"/>
		</g>
	</g>
	<g>
		<path class="st1" d="M1072.9,663.2c4.2,7.7,11.1,12.6,20.1,14.8c8.5,2.1,17.3,2.8,26.1,2.8c5.1,0,10.3-0.2,15.7,1.7
			c-0.4,3.6-1.7,7.1-2.8,10.6c-1.1,3.6-2.3,7.1-3.4,10.7c-1.1,3.8-2.3,7.6-3.3,11.4c-1,3.6-1.8,7.3-2.9,10.8c-1,3.3-0.9,7.1-4.3,9.5
			c0.3-0.5,0.5-1,0.8-1.5c-1,0.5-2,0.9-2.2,2.2c-1,5.8-2.1,11.7-3.3,17.5c-1.5,7.1-1.8,14.4-4.6,21.3c-3.6,8.9-8.4,17.2-13.6,25.3
			c-0.8,1.3-2,2.4-3.2,3.5c-1,1-1.7,1.9-1.3,3.4c0.2,0.9-0.3,2.2-0.8,3.1c-2.9,5.1-5.6,10.2-8.9,15.1c-2.8,4.1-6.3,7.7-11.6,9.2
			c-0.3,0.1-0.4,0.7-0.8,1.4c1.6,2.7,7.1,3,6,8.1c-1.2,0.7-2.7,1.7-4.5,2.8c1.5,1,3,1.9,4.8,3.1c2.1-1.3,4.2-2.4,5.9-3.8
			c5.6-4.5,10.5-9.5,14.4-15.3c4-6,8-11.9,12.2-17.8c1.1-1.5,1.9-3.6,4.6-3.7c1.6,3.7,3.2,7.3,4.8,10.9c1.5,3.7,3,7.3,4.5,11
			c1.6,4.1,3.2,8.2,4.9,12.3c0.8,1.9,2.3,3,4.3,4c3.5,1.8,7.2,2.8,10.8,3.8c3.2-1.9,5.2-4.5,5.7-7.6c0.9-4.6,4.1-7.2,8-9.6
			c0.8,0.6,1.6,1,2.2,1.7c4.4,5.3,10.5,7.2,17.4,6.7c4.2-0.3,8.4-1,12.5-1.9c7.1-1.5,12.7-5.4,18-10c2-1.7,3.7-3.9,6.5-4.9
			c0.7,2.1,1.2,4,1.9,5.8c0.6,1.7,1.8,3,3.8,3.5c2.6,0.8,5.2,1.6,7.8,2.4c0.7-0.3,1.4-0.5,2-0.7c3.4-1.3,5.9-4.5,10.1-4
			c0.6,0.1,1.4-1,2.1-1.6c1-0.9,2-1.8,3.1-2.6c2.3-1.8,4.8-3.4,7-5.4c2.1-2,3.8-4.4,5.9-6.5c1.2-1.2,2.1-3,4.6-1.9
			c0.3,0.2,1.4-0.4,1.7-0.8c1.6-2.1,3.4-4.2,4.4-6.6c1.2-3,3.3-5.2,5.8-7.2c1.8-1.4,3.6-2.8,5.2-4.3c9.1-8.6,16.1-18.6,23.8-28.1
			c2.9-3.6,5.4-7.5,7.9-11.2c2.5,0.1,4.6-0.1,6.6,0.2c2.3,0.4,4.4,1.3,6.6,1.9c1.1,0.3,2.3,0.6,3.4,0.8c6,1.1,6,1.1,4.2,6.6
			c-0.2,0.6-0.5,1.2-0.7,1.8c-2.4,6.7-4.9,13.5-7.2,20.3c-0.9,2.7-1.6,5.5-1.5,8.2c0,3.1-0.8,5.9-1.9,8.8c-1.4,3.7-2.4,7.4-3.5,11.2
			c-1.8,6.4,1.9,13.7,8.8,16.6c3,1.3,6,2.4,9,3.7c12.1,5,24.1,4.1,36.1-0.5c2.4-0.9,4.7-1.8,7.4-2.9c1.3,3.2,2.3,5.9,3.4,8.7
			c1.6,3.9,4.3,7.1,8.4,9.1c2.3,1.1,4.4,2.4,5.6,4.6c1.2,2,3,3.1,5.5,3.5c1.6,0.2,3.2,0.8,4.8,1c5.1,0.6,10.2,1.7,15.3,1.6
			c8.4-0.1,16.9-1.3,25-3c21-4.3,41.8-9.7,62.2-16.2c9.7-3.1,19.5-7.4,28.2-12.9c8.1-5.1,16-10.5,24.4-15.1
			c6.9-3.8,11.4-9.3,15.6-15c2.3-3.1,2.9-6.6-0.6-9.7c-0.8-0.7-1.3-1.7-2-2.5c-1.9-2.3-6.7-4.9-11.3-6c0.4,0.6,0.8,1.1,1,1.6
			c1.3,2.2,0.3,4.4-2.2,4.5c-0.9,0.1-2-0.1-2.7-0.5c-4.5-3-8.9-3-13.7-0.5c-2,1.1-4.5,1.3-6.8,0.6c-1.8-2.6-2.3-2.9-4.2-2
			c-1.9,0.9-3.6,1.9-5.4,3c-3.7,2.2-6.8,5-10.9,6.7c-0.4-1,0.3-1.7,1-2.3c0.9-0.8,1.9-1.5,1.6-2.8c-5.2,1.8-9.7,4.9-14.3,7.6
			c-2.9,1.7-5.8,3.5-9.2,5.6c-0.7-1.7-3.2-0.2-3.7-2.4c0.4-0.4,0.9-0.9,1.3-1.4c0.3-0.4,0.6-1,1.5-2.6c-8.8,1.6-15,5.5-21.7,8.7
			c4.1,3.8,4.1,3.8,8.4,2.4c2-0.6,4-1.3,6-1.8c0.1,0,0.3,0.3,0.5,0.4c-0.1,0.4-0.1,0.9-0.4,1.1c-4.6,2.1-9.1,4.6-13.9,6.2
			c-7.5,2.5-15.2,4.4-22.8,6.4c-1.1,0.3-2.3,0.4-3.4,0.3c-0.8-0.1-1.6-0.8-2.5-1.3c1.8-1.8,1.4-3.6,0.9-5.7c-2.4,0.4-4.5,0.6-6.5,1
			c-10.6,1.9-21.3,3.3-32.2,2.9c-1.5-0.1-3-0.5-5.3-0.9c1.1-1.3,1.6-2.3,2.5-2.8c3.5-2.1,7-4.3,10.7-6.1c12.7-6.3,23-14.6,29.9-26.3
			c5.1-8.6,10.2-17.2,17.1-24.8c5.9-6.6,9.8-14.4,11.4-22.9c0.8-4.2,1.5-8.4,2.6-12.5c1.2-4.1-0.4-7.7-2.8-10.7
			c-1.7-2.1-2.9-4.3-4.1-6.6c-0.5-0.9-1-1.9-1.7-2.7c-0.9-1-2.4-1.6-2.9-2.7c-0.6-1.2-0.4-2.8-0.6-4.2c-0.9-0.1-1.7-0.3-2.3-0.2
			c-1.1,0.2-2.2,0.6-3.2,1c-1.1,0.4-2.3,0.9-3.2-0.1c-1.5-1.7-3.3-1.3-5.1-0.7c-7.6,2.5-14.6,5.8-19.8,11.6c0.4,0.2,0.8,0.5,1.1,0.7
			c-0.4,0-0.7-0.1-1.1-0.1c-0.9,0.7-1.6,1.7-2.6,2c-5.1,1.5-8.1,4.9-10.9,8.6c-2.8,3.7-5.6,7.4-7.9,11.3c-3.1,5.2-5.7,10.7-8.6,16.1
			c-1.6,3.1-3.6,6-5,9.2c-3.9,8.9-7.2,18.1-9.5,27.5c-1.1,4.4-2.7,8.6-3.6,13.1c-0.6,3-2.4,4.5-5,5.7c-8.4,3.9-17.2,7-26.5,8.5
			c-1.2,0.2-2.7,0.8-4-1c1.1-1.9,2-4.2,3.5-6c5-6.1,8.3-12.9,11.7-19.8c2.6-5.3,3.1-10.7,0.9-16.2c-0.8-2-1.3-4.1-2-6.2
			c-3.1-9.7-9.3-16.7-20.4-19.7c-1.8-0.5-3.7-1-5.2-2c-4.2-2.7-8.1-5.7-12.2-8.7c1.1-3.1,2.3-6.1,3-9.2c1.2-4.8,1.9-9.7,2.9-14.5
			c0.8-3.9,2.5-7.8,0.7-11.9c-0.3-0.7,0-1.7,0.2-2.5c0.5-2.3,1.1-4.6,1.5-6.8c0.4-1.9-1.2-3.5-3.3-3.2c-0.9,0.1-1.8,0.4-2.7,0.6
			c-2.3,0.5-4.6,0.9-6.8,1.4c-0.7,0.1-1.6,0.1-2,0.5c-3,2.6-6.6,4.6-8.3,8.5c-3,6.9-5.2,13.8-4.8,21.3c0.1,1.9,0.1,3.9,0.3,5.8
			c0.2,1.8-0.4,3.4-1.5,4.9c-4.6,6.3-9.1,12.6-13.7,18.8c-1,1.4-2.2,2.9-3.8,3.7c-1.3,0.6-3.1,0.3-4.6,0.3
			c-6,5.8-10.4,12.5-14.8,19.1c-3.9,6-8.6,11.4-13.6,16.5c-0.5,0.5-1.2,1.5-2.5,0.2c3.4-6.5,6.9-13.1,10.4-19.7l0,0
			c0,0.8-0.3,1.7,1.1,1.7c1.9-2.4,3.7-4.9,5.6-7.3c0,0,0.1,0,0.1,0c-0.1,0-0.1-0.1-0.2-0.1c0,0,0,0,0,0.1c-1.4-0.7-2.6,0.1-3.8,0.6
			c-0.3,1-0.1,2.2-1.6,2.6c0-0.1,0.1-0.2,0.1-0.2c-0.1,0.1-0.1,0.1-0.2,0.2c0.5-0.9,1-1.8,1.6-2.6c0,0,0,0,0.1,0c0-0.1,0-0.1,0-0.2
			c-0.1,0.1-0.1,0.1-0.2,0.2c4.6-8.8,9.1-17.5,13.7-26.3c1.4-2.7,2.9-5.4,4.6-8c2.1-3.5,3.1-7.6,2.5-11.2c-0.7-4.3-2.9-8.6-7.1-11.8
			c-3.5,0.9-6.9,1.8-10,2.6c-1.6-1-2.9-1.8-4.5-2.8c-1,0.9-2.1,1.5-2.6,2.4c-1.9,3.2-4,6.4-5.3,9.9c-5.1,13.5-11.9,26.4-18.1,39.5
			c-1,2-2.2,3.8-3.4,5.7c-2.3,3.6-4.8,7-6.9,10.6c-5.1,8.8-10.9,17.3-17,25.6c-4.7,6.4-10.5,11.7-17.4,16.1
			c-4.3,2.8-8.8,4.9-14.6,5.5c-0.5-1.5-1.2-2.8-1.4-4.3c-0.8-6.8-0.4-13.6,0.8-20.2c1.7-9.9,3.7-19.8,6-29.5c2.7-11.3,6-22.4,9-33.6
			c1.6-5.8,3.8-11.2,9.2-15.3c-0.5-2.2-0.9-4.4-1.6-6.4c-1-2.8-1.7-5.4-0.4-8.2c0.4-0.8,0-2,0-3.3c-5.7,1-10.6,3.2-14.1,6.5
			c-4,3.9-7.4,8.3-9.9,13.3c-6.5,13.1-12.4,26.4-15.8,40.6c-2.4,10-4.4,20.1-6.6,30.2c0.5,8.6-3.4,16.2-6.6,24c-1,2.4-2.5,4.7-3.8,7
			c-0.4,0.6-1.2,1.1-2,1.7c-2.2-6.9-2.4-10.1-1.7-15.1c0.4-2.4,0.5-4.8,0.6-7.2c0.2-4.4,0.2-8.8,0.6-13.1
			c1.1-11.8,2.3-23.6,3.6-35.3c1.1-9.2,2.9-18.2,6.8-26.8c6-13.3,12.2-26.5,18.4-39.7c0.2-0.4,0.6-0.6,1.2-1.3
			c2.2-0.2,4.8-0.7,7.4-0.7c9,0.1,18,0.4,27,0.7c11.5,0.3,22.7-1,33.6-3.9c9-2.4,17.9-5.2,27.3-6.5c4.4-0.6,8.5-2.4,12.8-3.8
			c0.9-0.3,1.7-1,2.8-1.6c-0.9-0.4-1.3-0.6-1.7-0.7c-2.9-1.1-3.2-1.6-2.1-3.6c0.8-1.3,1.6-2.5,2.6-4.1c-2.8-1.9-2.2-4.2-0.9-6.4
			c1.1-1.9,2.3-3.7,3.4-5.6c0.8-1.5,0.6-2.9-1.1-4.2c-1,0-2.1-0.1-3.3-0.1c-3.1-0.2-5.6-1-6.2-4.3c-0.1-0.7-1-1.4-1.6-2
			c-3.7-3.9-8.5-5.5-14-5.4c-6.4,0-12.8,0.4-19.1,1.7c-11.8,2.5-23.8,3.6-36,2.9c-6.9-0.4-13.8-0.4-20.7-0.6c-1.4,0-2.8-0.2-4.1-0.3
			c-1.7-2.1-1.4-4.3-1.3-6.4c0.2-2.2,0.2-4.4,0.6-6.5c0.5-2.7-0.4-4.7-2.9-6c0.2-1.5,0.4-2.8,0.5-4c-1.4-1.2-2.8-2.2-3.9-3.3
			c-0.9-1-1.7-2.1-2.5-3.2c-0.8-1.2,0.3-3.1-2.1-4.1c-2.4,3-5.1,5.6-8.7,7.4c-1.1,0.5-1.6,2.1-2.2,3.3c-3.6,7.1-5.9,14.7-8,22.3
			c-0.6,2.3-1.3,4.6-1.8,6.7c-6.4,2.6-12.9,2.6-19.3,2.9c-9,0.4-18,1.4-26.7,3.4c-2.9,0.6-5.9,1.7-8.4,3.2c-3.1,1.7-6.2,3-9.8,3.4
			c-4.2,0.5-8.4,1.2-12.5,2.1c-2.9,0.6-5.7,1.8-7.7,4.7c2.7,0.6,5,1.1,7.2,1.7C1068.3,658.4,1071.1,659.8,1072.9,663.2z
			 M1507.1,797.5c2.6-1.4,4.8-4.1,8.4-2.7c-2.5,2.5-5.3,4.6-9,5.5C1505.4,798.9,1506.3,797.9,1507.1,797.5z M1439.2,820.4
			c0.6-0.3,1.1-0.5,1.8-0.7c0,0,0.5,0.8,0.4,0.8c-0.5,0.3-1,0.7-1.5,0.8c-0.3,0.1-0.6-0.3-1-0.5C1439,820.7,1439,820.5,1439.2,820.4
			z M1435.6,702.8c0.1,0.1,0.3,0.3,0.4,0.4c-0.4,0.1-0.7,0.3-1.1,0.3c-0.1,0-0.3-0.3-0.4-0.4C1434.9,703,1435.2,702.9,1435.6,702.8z
			 M1415.4,726.8c0,0.3,0,0.6-0.1,0.8c-0.1-0.4-0.2-0.7-0.3-1.1C1415.2,726.7,1415.4,726.7,1415.4,726.8z M1415.3,728.1
			c-0.5,0.4-1,0.8-1.5,1.2c-0.5,0.3-1,0.5-1.7,0.9C1412.5,728.2,1413.4,727.3,1415.3,728.1z M1402.8,781.7
			c4.8-18.9,15.1-35.2,27.3-49c5.1-5.8,12.5-9.4,21.2-11.5c0,1.3,0.2,2.3-0.2,3.2c-1.3,3.2-2.7,6.3-4.1,9.4c-1.2,2.7-2.3,5.3-3.5,8
			c2.9-0.4,3.9-3.3,6.6-4.2c1.3,0.7,0.5,1.8,0.2,2.6c-3.9,10.5-8.9,20.7-17.1,29c-5.7,5.8-11.2,12-19,15.8c-1.3,0.6-2.1,2.2-3.1,3.3
			c0-0.1,0-0.1,0.1-0.2c-0.1,0-0.2,0.1-0.3,0.1c0,0,0.1,0,0.1,0c-2.2,1.7-4.5,2.4-7.2,1.2c1.4-0.7,2.9-1.3,4.3-2
			c0.8,0.6,1.6,1.2,2.7,0.8c-0.9-0.3-1.8-0.6-2.7-0.8c3-3,5.9-5.9,8.9-8.9c2.2-2.2,4.5-4.4,6.6-6.6c0.2-0.2,0-0.8,0-1.2
			c-4.1,1-4.1,1-6.4,2.9c-2.9,2.4-5.8,5-8.8,7.3c-1.5,1.2-3.2,2.4-5.5,2.7C1402.9,782.9,1402.7,782.3,1402.8,781.7z M1402.5,790.2
			c0.3-0.2,0.6-0.3,0.9-0.5c-0.1,0.5-0.2,1-0.4,1.4c-0.1,0.2-0.7,0.3-1.1,0.3c-0.1,0-0.3-0.4-0.3-0.5
			C1401.8,790.7,1402.2,790.4,1402.5,790.2z M1258.9,761.9C1258.9,761.9,1259,761.8,1258.9,761.9
			C1259,761.8,1258.9,761.9,1258.9,761.9L1258.9,761.9z"/>
		<path class="st1" d="M1118.8,733.9C1118.8,733.9,1118.8,733.9,1118.8,733.9C1118.8,733.9,1118.8,733.9,1118.8,733.9
			C1118.8,733.9,1118.8,733.9,1118.8,733.9z"/>
		<path class="st1" d="M878.3,809.1c2.2,2.2,4.1,4.9,5.7,7.6c4.6,7.8,7.3,7.6,14.2,2.5c0.5-0.4,0.8-1.1,1.4-1.9
			c-1.7-3.8,0.3-7.2,1.9-10.7c0.8-1.6,1.7-3.2,2.5-4.8c3.3-6.9,6.8-13.8,9.8-20.8c3.9-9.2,8.9-17.8,15.8-25.2
			c8.6-9.2,17.4-18.2,26.2-27.2c1-1,2-1.9,3.2-2.6c0.8-0.5,2-0.5,3.5-0.9c-0.3,4.2-0.2,7.8-0.8,11.2c-2.4,13.4-5,26.7-7.5,40.1
			c-1.8,10.1-4,20.2-3.5,30.5c0.3,6.5,1.2,12.8,5,18.5c1.1,1.6,1.4,3.7,2.1,5.6c0.6,1.6,1,3.5,3,4.3c7.1-1.3,8.4-2.9,9.9-7.8
			c0.4-1.3,0.9-2.6,1.7-3.6c1.5-1.9,2-4,2.5-6.2c1.8-7.4,3.6-14.8,5.5-22.1c3.7-14.2,6.9-28.5,8.9-43.1c1.4-10.3,0.7-20.4-1.3-30.4
			c-1.3-6.6-3.3-12.9-6.9-18.8c-4.5-7.4-15.4-12-25.1-6.7c-4.1,2.2-8.3,4.2-12.4,6.4c-10.5,5.6-20.2,12.3-28.4,20.8
			c-0.8,0.9-1.5,2.4-3.7,1.3c2-8.8,1.6-18.1,6.7-26.1c-0.9-2.6-1.7-4.9-2.6-7.2c-0.7-1.9-2.3-2.8-4.3-3.1c-1.9-0.2-3.8-0.3-4.4,0.4
			c-1.1,3.7-1.8,6.5-2.6,9.2c-0.9,3-2.1,6-2.6,9c-1.5,7.9-3.5,15.7-6,23.4c-0.4,1.2-1.2,2.4-1.9,3.5c0,0,0.1-0.1,0.1-0.1
			c0,0.9,0.5,2.1,0,2.6c-2.4,2.4-2.8,5.6-3.5,8.6c-3.2,15.4-8.1,31.2-13.7,45.9c-0.9,2.3-2,4.5-3.3,7.2c0.1,0.2,0.5,1.1,0.6,1.9
			C874,803.8,875.7,806.6,878.3,809.1z"/>
		<path class="st1" d="M1001.9,811.5c6,6.5,10.7,7.1,18.2,4.4c8.1-3,15.9-6.7,21.6-13.3c0.7-0.8,1.7-1.2,2.7-1.9
			c1.3,3.6,1.8,7,3.7,9.6c2.7,3.7,3.3,7.6,3.3,11.9c0,2,0.1,4,0.5,5.9c0.4,1.9,1.1,3.8,2,5.6c1.1,2.1,3.5,2.3,5.2,0.6
			c2-2,3.4-4.3,3.8-7c0.3-2.5,1-4.7,2.7-6.7c0.7-0.8,1.2-1.9,1.5-3c2.1-7,4.1-14,5.2-21.2c1.8-11.6,2.8-23.2,5.6-34.6
			c1.6-6.4,2.6-13,4-19.5c2.1-9.5,3.6-19.1,9.2-27.6c1.6-2.3,1.8-5.2,0.5-7.7c-1.6-3.2-2.3-6.6-2.7-10.3c-6-0.9-11.4,0.3-16.7,2.1
			c-1.7,0.6-9.9,2.5-11.3,2.5c-18-0.7-36,6.9-46.4,21.7c-6,8.5-10.4,17.9-14.3,27.4c-0.6,1.4-0.8,3-1,4.5c-0.3,2-0.6,3.9-0.8,5.9
			c-0.6,4.8-1.5,9.7-1.7,14.5c-0.3,7.3-0.4,14.6-0.1,21.9C996.8,802.4,998.2,807.4,1001.9,811.5z M1015.2,782.5
			c4.3-13.6,9.6-26.8,17.6-38.9c5.3-8,13.2-12.9,21.9-16.9c0.5,0.6,1,1,1,1.2c-1.3,7.8-2.4,15.7-4.1,23.5c-0.7,3.4-2.1,6.8-3.7,9.9
			c-3.8,7.6-8.7,14.6-14.7,21c-4.2,4.5-8.9,8.5-15.6,10.7C1015.1,789.4,1014.1,786.2,1015.2,782.5z"/>
		<path class="st1" d="M1534.8,780.2c0.2,0.1,0.4,0.2,0.7,0.4c2.3-1.2,5-1.8,6.8-4c3.1-3.8,3.2-3.9-1.7-6.4
			c-0.4-0.2-0.9-0.1-1.3-0.1c-4,1.7-7,4.2-9.3,8.5c3-0.9,5-1.6,7.9-2.5C1536.5,777.8,1535.7,779,1534.8,780.2z"/>
		<path class="st1" d="M1501.8,794.7c2-1.4,4.2-2.4,6.5-3.3c1-0.4,1.8-1.2,2.6-2c0.6-0.6,2.3-0.6,1.8-2.3c-4.4,2-8.6,4-14.3,6.7
			C1500.7,794.5,1501.6,794.9,1501.8,794.7z"/>
		<path class="st1" d="M1118.8,733.9C1118.8,733.9,1118.8,733.9,1118.8,733.9C1118.9,733.9,1118.8,733.9,1118.8,733.9
			C1118.8,733.9,1118.8,733.9,1118.8,733.9z"/>
		<path class="st1" d="M1118.8,733.9c0.6-4,1.3-8,1.9-11.9C1119.5,725.9,1116.9,729.7,1118.8,733.9z"/>
		<path class="st1" d="M1518.4,789.3c-0.1,0-0.1,0-0.2,0C1518.3,789.4,1518.3,789.4,1518.4,789.3c-0.1,0.1-0.1,0-0.2,0
			c0,0.1,0,0.1,0,0.2c0,0,0.1,0,0.1,0C1518.4,789.4,1518.4,789.4,1518.4,789.3z"/>
		<path class="st1" d="M1520.7,786.7c-1.2,0.6-2.3,1.3-2.3,2.7C1520.9,789,1521,788.9,1520.7,786.7z"/>
		<path class="st1" d="M1121.9,715.1c-0.1,0.1-0.4,0.1-0.4,0.2c-0.1,0.4,0,0.8-0.1,1.2c0.2-0.1,0.6-0.2,0.6-0.3
			C1122.1,715.8,1122,715.5,1121.9,715.1z"/>
		<path class="st1" d="M1123.6,709.8c0.1-0.1-0.1-0.3-0.1-0.5c-0.1,0.1-0.3,0.2-0.3,0.3c-0.1,0.2,0,0.3,0,0.5
			C1123.3,710.1,1123.5,710,1123.6,709.8z"/>
		<path class="st1" d="M1543.3,781.1c0.2,0.1,0.5,0.2,0.7,0.3c0.1-0.2,0.2-0.4,0.2-0.5c-0.1-0.1-0.3-0.2-0.5-0.2
			C1543.6,780.8,1543.5,781,1543.3,781.1z"/>
		<path class="st1" d="M1521.1,786.6c-0.1,0-0.2,0-0.4-0.1c0,0,0,0,0,0c0,0.1,0,0.1,0,0.2c0,0,0.1,0,0.1-0.1
			C1520.9,786.6,1521,786.6,1521.1,786.6z"/>
		<path class="st1" d="M1522.9,786.1c-0.6,0.1-1.2,0.3-1.8,0.4c0.6,0.1,1.2,0.2,1.8,0.3C1522.9,786.6,1522.9,786.4,1522.9,786.1z"/>
		<path class="st1" d="M1130.7,684.3c0.1,0.2,0.1,0.3,0.2,0.5c0.1-0.2,0.1-0.3,0.2-0.5C1130.9,684.3,1130.8,684.3,1130.7,684.3z"/>
		<path class="st1" d="M1265.8,754.9c0-0.2-0.4-0.4-0.6-0.6c-0.1,0.3-0.3,0.7-0.1,1c0.1,0.3,0.4,0.5,0.7,0.7
			C1265.8,755.6,1265.9,755.2,1265.8,754.9z"/>
		<path class="st1" d="M1441.3,746.3c1.8-1.3,2.6-2.5,2.1-4.2C1442.4,743.3,1440.7,744.1,1441.3,746.3z"/>
		<path class="st1" d="M1443.4,742.1C1443.4,742.1,1443.5,742.1,1443.4,742.1c0.1-0.1,0.1-0.1,0.1-0.1c0-0.1,0.1-0.1,0.1-0.2
			c-0.1,0-0.2,0-0.2,0.1C1443.3,742,1443.4,742.1,1443.4,742.1z"/>
		<path class="st1" d="M1437.1,752.4c0.1-0.2,0.2-0.3,0.2-0.5c0-0.1-0.3-0.1-0.4-0.2c-0.1,0.1-0.2,0.3-0.2,0.4
			C1436.7,752.3,1437,752.4,1437.1,752.4z"/>
	</g>
	<g>
		<path class="st1" d="M482.7,560c-0.3-3.1-2.5-5.7-1.9-8.7c1.3-1.3,2.4,1.2,3.6-0.6c-2-5.4-3.6-11-6.5-16c-0.5-0.8-0.9-1.6-1.2-2.5
			c-2-6.5-4.4-12.9-5.3-19.7c-0.4-2.9-1-5.9-1.8-8.7c-2.2-7.2-4.6-14.4-6.7-21.6c-1.5-5.1-2.6-10.4-3.9-15.6
			c-0.8-3.1,0.1-5.7,2.1-8.2c3.5-4.4,6.8-9,10.1-13.5c4-5.4,7.3-11.3,9.4-17.9c0.9-2.8,1.9-5.6,3.1-8.3c5.3-12,7.8-24.6,7.9-37.7
			c0-1.8,0.1-3.8,0.7-5.5c0.8-2,0.9-4,0.9-6c-0.2-3.7-0.5-7.4-0.9-11.1c0-0.3-0.3-0.7-0.4-1c-0.6-0.2-1.2-0.3-1.9-0.5
			c-3-5.5-3.7-11.6-4-17.7c-0.3-5.5-1.3-10.8-4.3-15.3c-3.3-4.9-7.1-9.7-11-11.6c-4.8-2.3-9.2-5.2-14.6-5.8
			c-5.6-0.7-11.1-0.2-16.6,1c-10.2,2.1-20.4,4.4-30.6,6.6c-0.5,0.1-0.9,0.4-1.4,0.6c-2.6,1.1-5.1,2.2-7.7,3.2
			c-5.9,2.2-11.7,4.8-16.4,9.4c-0.8,0.7-1.7,1.6-2.6,1.8c-2.8,0.5-4.1,2.5-5.1,5.1c1.8,4.2,1.1,8.3-0.9,12.4
			c2.4,0.4,4.4,0.8,6.4,1.1c0,0.4,0.1,0.6,0,0.7c-0.3,0.7-0.5,1.4-0.9,2c-5,9.5-8.3,19.7-10.1,30.5c-2.4,14-4.9,28-7.4,42
			c-2.5,13.6-3,27.2-0.7,40.9c1.1,6.9,3.2,13.4,7.3,19c3.5,4.9,7,9.7,9.9,15c0.9,1.6,2,3,3.2,4.4c8.8,10.4,22.8,15.1,36.1,6.8
			c3.9-2.4,7.5-5.3,11.3-8c1.6-1.1,2.9-2.6,5-2.9c2,1.3,2.2,3.7,3,5.7c2.5,5.9,4.7,12,7.3,17.8c4.2,9.4,8.6,18.6,13,27.9
			c3.6,7.6,8,14.7,13,21.3c1.9,2.6,4.1,4.6,6.9,6.3c4.1,2.5,7.7,1.8,12-0.1c-1.5-3-2.7-5.8-4.2-8.4C484.2,566.1,483,563.3,482.7,560
			z M454.9,419.6c-1.4,0-1.1-1-1.2-1.6c-0.5-2.2-1-4.3-1.5-6.5c-1.4-6.3-5-10.9-9.7-14.7c-0.4-0.3-0.9-0.6-1.3-0.9
			c-3.7-2.9-5.9-4-10.4-5c-3.4-0.8-4.6-0.1-6.4,4c-1.3-0.6-2.3-1-3.2-1.4c-0.2,0.3-0.6,0.5-0.7,0.8c-1.7,16.2,0.3,33.7,1.9,49.7
			c0.7,6.4,2.4,12.8,3.7,19.1c1.8,8.6,2.1,6.7-2.7,12.4c-3.4,4-7.1,7.6-11,11.1c-1.9,1.8-4.3,3.3-6.7,4.2c-5,2-9.9,1.1-14.2-2.4
			c-4.4-3.7-7.4-8.4-8.3-14.4c-0.8-5.6-1.2-11.2-0.7-16.8c0.5-5.3,0.2-10.5-0.8-15.7c-0.7-3.5-1-7-1-10.6c0-7.3,0.4-14.6,1.3-21.9
			c0.5-3.7,0.6-7.4,0.9-11.2c0.7-7.7,2.9-15,6-21.9c2.6-5.9,4.9-11.9,6.7-18.2c0.9-3,2.2-5.8,3.5-8.6c0.3-0.7,1.2-1.4,1.9-1.6
			c1.1-0.3,2.3-0.3,3.9-0.4c-1.1,3.4,0.7,5.9,1.7,8.6c-1.8,3.6-3.6,7.2-5.4,10.7c0.9,1.2,1.6,0.2,2.1-0.2c2.6-1.8,5.2-3.7,7.8-5.6
			c2.8-2.2,5.9-3.9,9.2-5c7.3-2.5,14.6-5,22.3-4.8c4.5,0.1,9,0.6,13.5,1c2.1,0.2,4.1,1,6,2.5c0.3,1.3,0.8,2.7,0.8,4.1
			c-0.1,12.3,0.4,24.6-2.2,36.7C459.5,403.4,457.9,411.8,454.9,419.6z"/>
		<path class="st1" d="M752.2,244.1c-0.1-0.1-5-0.8-6-0.3c-1.2,0.6-5.6,1.2-6.4,1.7c-0.5,0.4-4.1-0.1-5.6,2.7
			c-0.9,1.6-4.2,6.6-4.4,7.9c0,0.2-0.7,3.2-0.8,3.8c-0.3,1.1-0.6,2.3-0.9,3.4c-0.6,2.2-1.1,4.4-1.7,6.5c-0.5,0.9-3.9,8.5-4.5,9.3
			c-0.3,0.4-6.2,8.7-6.8,9.4c-0.6,0.6-3.4,8.9-3.6,10.5c-0.6,2.6-1.2,5.2-1.8,7.8c-0.2,1-0.5,1.9-0.8,2.8c-0.1,0.3-1.3,6.6-1.8,8.2
			c-0.9,2.9-1.2,10.9-1.2,11c-0.9,2.8-1.6,5.6-1.8,8.5c0,0.9-1.2,6.4-1,7.6c0,0-0.5,3.6-0.7,4.1c0.3,0.2,0.6,0.1,0.8-0.1v0
			c-0.2,0.2-0.5,0.3-0.8,0.1c-0.6,1.8-0.8,3.7-1.1,5.5c-0.3,2.2-0.5,4.5-0.6,6.7c0,0.1,0.3,6.5,0.5,6.9c0.3,1.3,2.4,21,2,26.2
			c-0.1,1.1,0,2.1-0.1,3.2c-0.2,2.8-0.6,5.5-0.8,8.3c-0.1,1.6-0.6,8.1-0.7,9.8c-0.2,3.2-8.1,39.7-9.9,43.6c-2.1,4.5-5.6,9.4-8,13.6
			c-3.1,5.3-7.8,8.8-13.7,10.7c-4.7,1.5-7.6,0.4-10.3-3.7c-0.9-1.4-2.9-9.2-2.6-11.9c0.6-5.3,0.8-10.6,1.4-15.8
			c0.3-2.8,1.3-5.2,2.6-7.7c1.9-3.5,0.3-7.1,1.8-10.8c2.3-5.7,3.7-11,4.9-17.8c0.6-6.3,2.4-8.4,3.5-14.7c0.5-2.9,2.4-9.5,2.8-12.4
			c0.8-5,3.6-10.4,4.2-15.5c0.1-1-0.3-2.1-0.5-3.2c-0.3-2-0.9-4-0.7-5.9c0.7-6.9,1.8-13.7,4.1-20.3c2.2-5.9,5.1-11.6,5.9-18
			c0.1-0.7,0.6-1.3,0.8-2c0.3-1,0.6-2.1,0.7-3.2c0.3-4,0.1-7.7,0.4-11.9c0.2-2.5,0.2-3.6,0.2-5.6c-0.1-3.6,0.4-5.3,1.1-10.5
			c0-0.2-0.1-0.4-0.1-0.5c-0.1-3.4-0.3-6.9-0.3-10.3c0.2-8.4,2.9-17,3.1-25.4c0.1-2.5,0.1-5.1,0.4-7.6c0.2-2-0.2-3.8-1.4-5.1
			c-2.2-2.3-4.1-5-7.3-6c-2.3-0.7-4.6-1.8-6.9-2.6c-1.6-0.6-3.2-0.2-4.5,0.8c-1.7,1.2-3.3,2.6-4.9,4c-1.1,0.9-2.1,1.9-3.1,2.9
			c-0.9,1-0.9,1.8-1.8,2.9c-0.5,0.7-2.1,2.7-2.9,4.7c-1.5,3.9-1.1,3.4-1.8,7.2c-0.3,1.7-1.5,3.4-2,4.6c-1.3,3.1-3,7.4-3.7,10.5
			c-1.9,7.5-4.9,13-5.6,20.3c-0.6,6.7-1.4,14.5-2.1,21.2c-0.7,6-1.5,23.2-2.5,29.1c-2.3,13-2.5,24.6-5,37.5c-0.5,2.5-0.5,6.5-2.2,10
			c-0.6-0.2-2.4-9.3-4.4-12.8c-2.1-3.5-5.3-6.1-9.9-6.8c-4.5-0.6-8.6-0.4-12.7,1.1c-4,1.4-7.6,3.5-11,6c-3,2.2-5.8,4.7-8.7,7
			c-3.4,2.8-6.7,5.8-9.2,9.6c-1,1.5-2.4,2.6-3.4,3.7c-0.7,3.6-5.5,6.9-4.3,11.9c-0.4,1.5-1.7,4.7-2.9,8c-1.4,3.8-3.3,16.1-3.8,5.7
			c3.5-9.5,2.1-15.8,3.3-21.1c-0.4-5-1.8-9.3-4.6-13.3c-0.9-1.4-1.8-2.7-2-4.4c-0.2-1.5-1.3-2.1-2.6-2.2c-3.2-0.3-5.7,1.2-8.1,3.1
			c-2.6,2.1-3.9,4.7-2.8,8.2c0.7,2.3,0,3.8-1.7,5.2c-2,1.7-3.9,3.5-6.2,5.6c0.3,2.1,0.6,4.4,0.9,6.8c0.5,4.9,1.6,9.9,0.4,14.9
			c-3,12.3-7.9,23.7-15.2,33.8c-1,1.4-2.4,2.6-3.8,3.7c-1.1,0.9-2.2,0.6-3.2-0.4c-1.9-1.9-2.4-4.4-2.6-7c-0.7-8-0.6-15.9-0.2-23.9
			c0.3-5,0.1-10,2.6-14.6c0.8-1.5,0.2-3.3-1.4-4.3c-2.4-1.4-3.8-3.6-5.2-6c-1.2-2.2-2.6-4.3-4.7-5.9c-2.7,0.6-5.4,1.3-8.1,1.9
			c-3.8,5.5-7.1,11.4-12.4,15.6c0.2,2.6,0.5,5,0.5,7.4c-0.1,6.5,0.2,13,0.6,19.4c0.8,11.1,4.3,21,10.2,29.9
			c4.2,6.4,9.6,10.9,17,12.7c3.8,0.9,7.3,1.8,11-0.1c1.2-0.6,2.7-0.8,4-1.1c2.7-0.4,5-1.6,6.9-3.5c2-2,4-4.2,5.5-6.6
			c2-3.1,3.6-6.6,5.5-10.1c0.8,1.2,1.5,2.5,2.3,3.6c1.5,2.2,2.9,4.6,4.7,6.6c4.8,5.3,10.5,8.3,17.6,7c0.5-0.1,1,0,1.5,0
			c0.4,0.4,0.9,0.7,1.2,1.2c4.8,7.3,11.8,11.2,19.5,13.6c6.2,1.9,13.6,1.4,18.8-3.2c1.5-1.4,2.2-1.1,3.9-2.8c2-0.3,4.2-3.9,6.1-5.9
			c0.3,3.2,2.4,6.4,3.8,8.6c8.8,13.3,24.5,19.5,42.6,18.2c0-0.1-0.1-0.2-0.1-0.2c4.1-0.6,7.8-2.4,11.3-4.9c0.2-0.2,0.3-0.5,0.4-0.9
			c1,0.3,6.1-4.1,9.1-7.1l8.7-10.3c1.2-1.9,3.8-5.9,3.7-5.6c1.3-0.6,2.4-2.7,2.7-2.8c0.7-0.4,0.7-1,0.6-1.8c0-0.3,0.5-1,0.9-0.9
			c0.3,0.8,0.5,1.6,1.1,2c2.7,2.1,3.6,5.1,5,8c2.3,4.7,4.9,9.3,9.4,12.3c0-0.4,0-0.4,0,0c0,0,0,0,0,0c4.1,4.5,9.6,6.8,15,9.1
			c1.7,0.7,3.3,1.4,4.5-0.3c2.5,0.2,5.1,0.3,7.7,0.2c1.5-0.1,3-0.7,4.4-1.1c0.9-0.3,1.8-0.7,2.6-1.1c1.7-0.9,3.2-0.8,4.8,0.3
			c2.8,2,6,3.4,9.4,4.2c1.1,0.3,2.3,0.6,3.2,1.3c5.2,4,11.9,3.8,17.6,6.3c1,0.4,17.7-0.3,19.5-1l0,0c7.2-0.8,13.5-4,19.6-7.5
			c4.9-2.9,9.7-6,14.6-9c4.9-2.9,9.1-6.9,10.2-13.1c0.4-2,1.1-4.1,2.5-5.7c1-1.2,1.4-2.7,2-4.1c2.5-6.4,3.6-13.2,5.5-19.8
			c0.6-2,0.5-3.8-0.7-5.5c-1.9-2.6-1.6-5.3-1-8.2c0.5-2.3,1.3-4.4,2.4-6.4c0.3-0.6,0.9-1.3-0.5-2c-3.2,1.8-6.3,4.3-10,5.8
			c-2.1,0.9-3.7,3.2-5,5.4c0.6,0.2,1.2,0.4,1.8,0.6c-0.6-0.2-1.2-0.4-1.8-0.6c-1.4,1.7-2.9,3.3-5,4.3c-3.1,1.4-5.6,3.7-7.4,6.6
			c0,0.2-0.1,0.4-0.1,0.7c0-0.2,0.1-0.4,0.1-0.7c-3.6,2.8-7.2,5.6-10.8,8.4c0,0,0.1,0,0.1,0c0,0-0.1,0-0.1,0
			c-0.7,0.2-1.3,0.4-1.6,1.1v0c-0.9,0.2-1.7,0.6-2.3,1.4l0,0c-1.1,0.1-2,0.7-2.8,1.4l0,0c-4,1-7.4,3.1-11.1,4.8v0
			c-0.7,0.3-1.4,0.5-2.1,0.8l0,0c-4.8,0.7-9.2,2.7-13.9,3.9c0.4,0.9,0.7,1.6,0.9,2.1c-0.3-0.5-0.6-1.2-0.9-2.1
			c-3.5,0.3-7,1.4-10.5,0.4c-0.3-1.8,0.5-3.1,1.3-4.4c1.6-2.8,3.3-5.5,4.9-8.3c2.3-3.9,4.9-7.6,6.2-12.1l0,0
			c0.9-1.4,2.1-2.8,2.6-4.4c1.6-4.9,4.1-9.4,6.4-14c3.7-7.1,6.7-14.4,8.6-22.2c1-4,2.6-7.9,3.9-11.9c2.3-7.1,4.3-14.2,1.7-21.7
			c-3-8.8-7.8-15.9-16.6-19.7v0c-1.4-1.1-9.5-2.1-11.3-0.7c1.7-5.1,5.9-7.7,10.4-9.8c4.3-2,5.6-1.4,8.2,2.7c0.3,0.5,0.7,0.9,1.1,1.3
			c0.8,0.9,0,3,2,3c1,0,0.9-1.6-0.2-4c-0.4-0.9-1-1.6-1.3-2.5c-1-2.3-2.8-4.1-4.9-4.4c-3.3-0.4-6.7-1.7-10-0.2
			c-0.8,0.4-1.5,1.1-2.1,1.9c-3.9,4.7-8.3,8.9-12.7,13c-3.9,3.6-7.9,7.2-10.4,11.9c-0.9,0.5-9.5,14.8-10.5,16.6
			c-2.4,4.6-4.1,9.5-5.5,14.4c-3.7,13.1-6.7,26.3-7.3,39.9c-0.2,4-0.4,8-0.6,12c0,1.4-0.1,2.7-1.3,3.6c-2.1,1.5-4.3,5-6.5,3.9
			c-1.6-0.8-3.5-4.4-3.9-5.8c-1.8-6.8-4.1-13.8-3-20.7c0.2-1.4,0.3-2.7,0.7-4.1c1.1-4.3,2.5-8.5,4.2-12.6c0.3-0.7,2.2-6.6,2.3-7.2
			c0.4-3.1,5.4-17.7,6.2-19.5c1.2-2.7,3.4-10,3.4-10.1c0.1-0.3,3.5-11,3.6-11.3c4-9.9,4.8-20.8,8.9-31c-0.3-0.4-0.1-0.9,0-1.3
			c0.4-1.9,0.6-3.7,0.5-5.6c0-1.7,0.5-3.4,0.2-5.2c-0.3-1.5,0.4-3,0.7-4.5c0.9-4.6,1.3-9.3,2-14c0.6-4.4,0.8-8.8,1.1-13.2
			c0.4-0.5,0.4-1,0.2-1.6c0.1-0.9,0.2-1.8,0.3-2.7c0.2-4.6,1.2-15.8,1.2-16.8c0.3-0.8,0.7-4.8,0.5-6c-0.1-1.2,0-9.9-0.2-10.6
			c-0.2-1.1-0.4-2.2-0.6-3.3c-0.6-3.9-1.4-7.7-3.9-10.9c-1.5-1.9-2.8-4.1-5.2-5 M758.8,244.3 M591.1,445.9
			c-4.2-5.4-3.5-17.1-2.5-20.4c2.2-11.6,9.3-18.9,16.4-22.2c0.5,1.2,0.8,10.6,0,14.1c-0.1,2-4.2,10.1-4.9,11.9
			C598.1,434.6,594.6,440.6,591.1,445.9z M625.3,462.5c-0.1,1.8-0.3,3.6-1.4,5.5c-0.9,0.9-1.3,1.6-2.1,2.5c-1.4,1.5-2.7,4.5-5.5,5.1
			c-3.3-0.1-6.5,0.8-9.7,0.7c-3.4-0.1-5.5-2-6.2-6.2c6.4-4.2,9.7-10.9,13-17.6c2-4.1,4.3-8,6.5-11.9c0.9-1.6,2-3,3.2-4.6
			c2.2,1.6,2.6,3.8,2.6,6.2c-0.1,3.7-0.3,7.3-0.3,11C625.2,457.6,625.1,458.1,625.3,462.5z M779.9,372.4c0,0-0.1,0.1-0.1,0.1
			C779.8,372.4,779.8,372.4,779.9,372.4z M754.5,376.3L754.5,376.3L754.5,376.3L754.5,376.3z M738.7,421L738.7,421L738.7,421
			L738.7,421L738.7,421z M738.6,420.9L738.6,420.9c-0.1-0.1-0.2-0.1-0.3-0.1C738.4,420.8,738.5,420.8,738.6,420.9L738.6,420.9z
			 M725.4,350.6c0-0.1,0.8-7.7,1.3-11.3c0.6-4.8,1.8-9.5,2.9-14.2c1.4-5.7,3.2-11.3,4.9-17c0.7-2.3,1.3-4.6,2-6.9
			c0.6-2.2,1.5-4.2,2.5-6.2c0.1,0,0.2,0,0.3-0.1c0.1,0.7,0.1,1.4,0.2,2.1h0c-0.2,0.6-0.3,1.1-0.2,1.7c-0.2,0.4-0.2,0.8-0.1,1.3
			c-1,1.7-0.8,3.7-0.9,5.6c-0.1,1.6-0.6,3.1-0.9,4.6c-0.1,0.5-0.3,1-0.3,1.4c-0.6,4.9-1.9,9.7-2.9,14.5c-0.9,4.1-1.9,8.2-2.7,12.3
			c-0.8,3.8-1.8,7.6-2.5,11.5c-0.6,3.5-1.6,7-2.5,10.5c-0.2,0.9-0.3,1.8-0.5,2.7c-0.1,0.7-0.2,1.4-0.8,2
			C724.9,364.2,725.4,352.2,725.4,350.6 M727,372.7c0.1-0.1,0.2-0.2,0.1-0.3c0.8-1.2,0.6-2.7,1-4.1c1.1-3.5,1.7-7.1,2.5-10.6
			c1.2-5.1,2.1-10.2,3.1-15.3c0.6-3,1.1-5.9,1.8-8.8c0.6-2.4,1.2-4.8,1.5-7.2c0.7-4.9,1.9-9.8,2.7-14.7c0.5-2.9,0.8-5.8,1.2-8.7
			c0.9-4.5,1.5-9,1.7-13.6c0.1-2,0.6-4,1.5-5.9c0.7-1.2,1.3-2.5,1.8-3.8c0.6-0.9,1.1-1.8,1.7-2.6c2.7,3.1,4.9,6.6,6.7,10.4
			c0,0.3,0.1,2.2,0,2.3c-0.1,1.4-0.3,2.8-0.4,4.2c-0.3,0.3-0.1,3.3-0.2,3.4c0.3,0.5,0.4,0.9,0.4,1.4c0,0.4-0.2,0.8-0.8,1.2
			c-0.3,4.8-0.8,9.6-1.9,14.4c-0.3,1.5-0.6,3-0.9,4.4c0,0,0,0.1,0,0.1c-0.2,0.8-0.3,1.6-0.5,2.4c-0.5,2.2-1.2,4.4-1.8,6.7
			c-0.1,0-0.2,0-0.2,0.1c0,0,0,0.1,0,0.2c0,0,0.1,0,0.1,0c-0.5,1.9-1,3.8-1.5,5.8c-0.8,2.6-1.3,5.2-2,7.9c-0.3,1.1-0.6,2.2-0.9,3.2
			c-0.8,2.2-1.3,4.5-1.7,6.8c-0.6,1.9-2,6.3-2.2,6.4c0.2-0.1-1.6,2.7-1.8,3.2c-1.1,4.3-2,8.6-3.3,12.8c-1.7,5.8-3.3,11.6-5.6,17.2
			c-0.2,0.5-0.3,1.1-0.9,1.4c-1.1-0.6-0.9-1.8-1.3-2.8c-0.9-2.1-1.4-4.1-1.3-6.5c0-2.2-0.2-4.5,0.3-6.7c0.3-1.3,1-2.5,0.9-3.9
			C727.1,373,727.1,372.9,727,372.7z M753.6,377.1L753.6,377.1L753.6,377.1L753.6,377.1z M679.9,508.9L679.9,508.9L679.9,508.9
			L679.9,508.9z M772.6,438.6c-1.3,1.9-2.7,3.7-3.9,5.6c-1.1,1.8-2.6,3.3-4.2,4.6c-0.6,0.5-1.3,1.1-2,0.4c-0.4-0.3-0.4-1-0.5-1.5
			c0.3-2.4,0.4-4.7,1-6.9c3.1-11.9,7.2-23.3,14.3-33.5c3.9-5.5,8.8-10.1,14.3-13.8c1.4-1,3-1.7,4.5-2.4c0.7-0.3,1.5-0.7,2.1,0.1
			c0.2,0.3,0,1,0,1.6c0,0.2-0.1,0.4-0.2,0.5c-1.6,4.1-3.3,8.1-5.4,12c-2.5,4.5-4.9,9-7.2,13.7C781.8,425.9,776.9,432.1,772.6,438.6z
			"/>
		<polygon class="st1" points="752.6,303.4 752.6,303.4 752.6,303.4 752.6,303.4 752.6,303.4 752.6,303.4 		"/>
		<path class="st1" d="M753.4,300c0.5-0.4,0.7-0.8,0.8-1.2c0-0.4-0.1-0.9-0.4-1.4C753.6,298.3,753.5,299.2,753.4,300z"/>
	</g>
</g>
</svg>
