<?xml version="1.0" encoding="utf-8"?>
<!-- Generator: Adobe Illustrator 22.1.0, SVG Export Plug-In . SVG Version: 6.00 Build 0)  -->
<svg version="1.1" id="Layer_1" xmlns="http://www.w3.org/2000/svg" xmlns:xlink="http://www.w3.org/1999/xlink" x="0px" y="0px"
	 viewBox="0 0 1920 1080" style="enable-background:new 0 0 1920 1080;" xml:space="preserve">
<style type="text/css">
	.st0{fill:#FFFFFF;}
</style>
<path class="st0" d="M492.8,308.5c-0.4-2-1.1-4.1-2.2-5.8c-2.4-4-4.9-7.9-7.8-11.6c-8-10.1-16.5-19.8-27.2-27.3
	c-0.6-0.4-0.9-1.2-1.4-1.9c0.8-1.4,1.6-2.7,2.3-3.9c1.6-2.8,2.9-5.8,3.4-9c0.6-4,0.9-8,1.1-12c0.1-1.4,0-2.9-0.4-4.3
	c-3.6-12.8-9.4-24.6-17.3-35.4c-2.2-3-4.9-5.6-7.8-7.8c-6-4.6-13-7.1-20.2-8.9c-6.6-1.6-13.2-2.8-20-3.5c-6.7-0.6-13.2,0-19.5,2.3
	c-4.1,1.5-8.1,3.2-12.2,4.7c-3,1.1-5.4,2.7-7.2,5.3c-0.6,0.9-1.6,1.5-2.4,2.3c-3.3,3.3-6.5,6.7-9.9,9.9c-1.9,1.8-2.5,4.1-2.5,6.6
	c0,0.8,0.2,1.6,0.2,2.4c0,0.9-0.2,1.8-0.3,2.8c0.7-0.2,1.2-0.2,1.6-0.4c4.2-2.4,8.3-4.9,12.5-7.3c2.3-1.4,4.3-3.4,7.4-2.9
	c0.4,0.1,0.9-0.3,1.3-0.6c2.3-1.7,5.1-2,7.7-2.5c3.5-0.7,7-1.2,10.5-1.7c9.7-1.5,19.3-0.8,28.6,2.6c7.2,2.7,12.9,7.3,15.9,14.6
	c1.8,4.3,2.4,9,2.1,13.7c-0.3,4.8-3,8.8-4.8,13c-5,5.4-9.5,11.7-18.2,10.6c-0.9-0.1-1.9,0.2-2.9,0.2c-0.9,0-1.8-0.3-2.9-0.5
	c0-2.8,0-5.4,0-7.9c0-8.4-1.8-16.3-5.3-23.9c-1.9-4.2-4.2-8.4-8.1-11.2c-0.5-0.4-1-0.8-1.4-1.4c-2.8-4.2-7-4.5-11.5-4.6
	c-0.4,1.6-0.5,3.1-1.1,4.3c-3.1,5.8-4.9,11.9-4.3,18.5c0.1,1-0.1,1.9-0.1,2.9c-0.3,4.5-0.7,9-0.8,13.5c-0.4,9.2-0.6,18.4-0.9,27.5
	c0,1.1,0,2.4-0.6,3.3c-0.5,0.9-1.7,1.4-2.6,2.1c0.2,2.1,0.8,4.2-1.4,5.7c-0.4,0.3-0.3,1.3-0.6,1.8c-1,1.8-1.5,3.8-3,5.5
	c-1.4,1.5-1.3,3.7,0.3,4.7c2.7,1.7,3.9,5,7,6.1c-0.2,7.7-0.3,15.1-0.5,22.5c0,0.9-0.5,1.7-0.8,2.6c-2.3-0.3-3.8-1.5-5.4-2.6
	c-1.7-1.1-3.5-2.1-5.7-3.3c0.2,1.8,1.1,2.7,1.7,3.7c1.8,3,1,6.1-2.1,7.6c-2.4,1.2-5.1,2-8.1,3.2c-1.8,2.3-3.9,5-6.1,7.7
	c-2,2.4-4.6,3.4-7.7,3.2c-0.8-0.1-1.7-0.3-2.3,0c-2.2,0.9-4.3,2-6.3,3c-0.5,3.1-1,5.9-1.4,8.7c-0.5,2.9-0.6,5.8,1.4,8.3
	c1.2,1.5,0.5,3.1,0,4.7c0.6,0.7,1.4,1.4,1.8,2.2c1.3,3,3.9,4.6,6.6,6c0.6,0.3,1.2,0.5,1.7,0.9c1.3,0.8,3.1,1.3,2.4,3.6
	c-0.1,0.4,0.6,1.1,1.1,1.4c2.5,1.5,5.6,2.4,7.4,4.4c2.4,2.6,5.3,1.8,7.9,2.7c0.9,0.3,1.9,0.4,2.8,0.1c1.2-0.3,2.2-0.2,3.3,0.3
	c6.7,2.9,13.8,4.2,20.9,5.9c8.5,2.1,17.2,2.3,25.9,2.1c4.2-0.1,8.4-0.5,12.4-1.5c7.1-1.6,14-3.8,20.6-6.7
	c9.2-4.1,17.6-9.3,25.4-15.7c5.5-4.5,10.1-9.9,15-15c3-3,5.5-6.3,7.1-10.3c0.8-2.1,2-4,3.1-6C494,332.2,495.1,320.6,492.8,308.5z
	 M350.4,388c0,0,0.2-0.3,0.3-0.3c0.4,0,0.9,0.1,1.4,0.2C351.4,388.7,350.9,388.5,350.4,388z M453.1,323.6c-1,2.5-2.2,5.1-3.7,7.3
	c-2.4,3.6-5.1,7-7.8,10.4c-3.1,3.9-7.4,6.3-11.9,7.9c-4.8,1.7-9.9,2.8-14.9,4.1c-0.8,0.2-1.6,0-3.1,0c-1.9-0.2-4.4-0.5-7-0.9
	c-1.9-0.3-3.8-0.6-5.7-0.9c-0.6-0.1-1.3-0.2-1.9-0.4c-2.2-0.7-2.8-1.8-2.3-4c0.2-0.8,0.3-1.6,0.6-2.3c1.8-4.9,2.2-10,2.6-15.1
	c0.6-8.7,0.9-17.3,1.2-26c0.1-2.3,0.9-3.6,3-4.3c2.7-0.9,5.5-1.8,8.2-2.9c3.8-1.6,7.7-3.4,11.4-5.3c1.7-0.9,3.2-2.2,4.6-3.5
	c1.9-1.8,3.9-2.1,6.1-0.8c0.7,0.4,1.4,0.7,2.1,1.2c7.8,4.7,13.5,11.4,17.3,19.6C454.2,312.8,455.2,318.2,453.1,323.6z"/>
<path class="st0" d="M811.1,345c-0.8-1.3-1.3-2.2-2-3.4c-1.6-0.2-3.6,0.8-5.4-0.3c-0.4-0.2-1.4,0.7-2.1,1.1
	c-3.9-0.9-6.4-3.8-9.2-6.2c-1.1-1-1.7-2.7-2.3-4.1c-3.8-8.9-6.5-18-7.8-27.6c-0.3-1.9-0.5-3.9-1.8-5.9c-0.6,0.6-1.2,0.9-1.5,1.4
	c-4.6,6.7-10.1,12.4-17,16.7c-3.1,1.9-6.2,3.5-9.7,4.3c-4.1,1-8.4,1.6-12.2,3.7c-1.3,0.7-3.1,0.8-4.7,1c-1.6,0.2-3.1,0.4-4.4,1.6
	c-1.8,1.6-3.9,1.5-6.1,1.1c-4-0.9-8-2-11.4-4.3c-4.3-2.8-8.6-5.7-12.7-8.8c-6-4.5-9.2-10.5-10.4-18c-1.5-9.1-1.5-18.1,0.4-27
	c0.8-4,2.2-7.9,3.8-11.6c7.3-17.5,18.1-32.6,31.8-45.6c4.5-4.3,9.4-8.2,14.2-12.2c1.6-1.4,3.3-2.7,5.6-2.8c0.8-0.1,1.7-0.6,2.5-0.9
	c5.1-2.1,10.4-3.6,16-4c0.8-0.1,1.7-0.3,2.5-0.5c0.2-3.2,0.7-6.2,0.6-9.2c0-1.5-0.8-3-1.4-4.5c-0.5-1.2-1.2-2.4-2-3.8
	c4.9-1,4.8,4.5,8.2,5.4c1.2-1.5,0-3.1,0.5-4.7c0.4-0.1,0.8-0.2,1.3-0.2c2.1,0.1,3.5,1,4.8,2.8c2.5,3.2,5.4,6.1,8.2,9.1
	c3.3,3.5,6.5,7.1,8.7,11.4c0.8,1.6,2,2.9,3.8,3.5c0.8,0.3,1.5,0.9,2.2,1.5c1.6,1.6,3.4,2.5,5.7,1.8c1.5-0.4,2.6,0.7,3.9,1.4
	c3.4,1.7,4.9,4.4,4.9,8.2c0,3,0.2,6,0.1,9.1c-0.1,3.5-1.1,6.8-3.4,9.4c-2.2,2.5-2.4,5-1.7,7.9c0.9,3.8,1.6,7.7,2.5,11.4
	c1.8,7.4,3.2,14.9,3.8,22.6c0.8,11,2,21.9,3,32.9c0.4,4.8,0.9,9.6,1.4,14.3c0.2,2.3,0.1,4.6-0.9,6.8c-1.2,2.4-1.6,5-1.4,7.8
	c0.1,0.9,0,1.8-0.2,2.6c-0.2,1.2-1.3,2.3-2.2,1.9C814.5,340.8,813.5,343.5,811.1,345z M774.7,239c-0.3-2.4-0.3-5-0.9-7.3
	c-1.6-6.7-3.5-13.4-5.3-20.1c-0.3-1.1-0.4-2.5-2.2-3.2c-1.9,1.4-4,3-6.2,4.4c-8.6,5.4-16.1,12.2-23.6,19
	c-9.5,8.6-17.8,18.3-24.2,29.6c-3.2,5.6-5.3,11.6-7.2,17.7c-0.9,3-0.1,5.7,2.1,7.8c2.3,2.2,4.7,4.4,7.1,6.4c0.9,0.8,2.1,1.4,3.3,1.7
	c11.1,3.4,23.3,1.2,30.8-8.6c1.7-2.3,3.5-4.5,4.9-7c5.3-9.7,10.9-19.1,14.3-29.7c0.3-1,0.7-2,1.2-3
	C770.2,243.9,771.8,240.9,774.7,239c-1,1.9-1.9,3.8-2.9,5.6c-1.9,3.4-1.9,7.2-3.3,11.1c3-2.1,3.9-5.1,5.2-7.8
	C775.9,243.4,775.9,243.4,774.7,239z"/>
<path class="st0" d="M626.2,323.4c-2.4,0.7-4.4-0.2-6.5-1.2c-1.7-0.9-2-2.3-0.8-3.9c0.4-0.6,0.9-1.2,1.4-1.9
	c-1.5-0.5-2.7-0.3-3.7-1.5c-1.5-1.9-3.7-3-6.2-3.2c-1.6-0.1-3.2-0.5-4.8-0.6c-9.5-0.7-18.9,0-28.3,1.6c-5.1,0.9-10.2,1.4-15.3,0.5
	c-1.7-0.3-3-0.9-3.9-2.4c-1.9-3.1-3.1-6.3-2.7-10.3c0.7-0.3,1.2-0.6,1.6-0.7c4.8-0.4,9.3-2.2,13.9-3.6c3.2-1,6.3-2.5,8.9-4.6
	c5.9-4.9,12.7-8.8,17.3-15.2c6.8-6.2,12.1-13.6,16.8-21.5c3.5-6,6.7-12.1,6.8-19.3c0-0.5,0.1-1,0.2-1.4c0.9-3.7,0.1-7.3-1.1-10.8
	c-1.7-5.2-4.6-9.8-7.9-14.1c-2.9-3.7-6.6-6-11.2-6.9c-0.9-0.2-1.9-0.5-2.8-0.7c-6.8-1.9-13.7-1.8-20.5-0.6
	c-7.6,1.3-15.1,2.8-22.4,5.2c-0.2,0.1-0.3,0.1-0.5,0.1c-5.3,1.4-10.5,2.8-15.4,5.3c-1,0.5-2.1,0.6-3.2,1c-2.2,0.8-3.9,2-3.8,4.8
	c0,0.8-0.2,1.6-0.5,2.3c-1.2,2.4-2.4,4.9-3.8,7.2c-1.8,2.9-3.3,5.9-4.6,8.9c-0.8,1.8-1.6,3.5-2.4,5.2c-0.7,1.6-1.6,3.2-3.5,3.6
	c-1.3,0.3-1.8,1.4-2,2.5c-0.2,1.4-0.3,2.9-0.1,4.3c0.4,2.8-0.3,5.5-1.3,7.9c-1.2,2.9-1.9,5.8-2,8.8c-0.5,8.3-1.7,16.5-3.4,24.7
	c-0.3,1.2-0.3,2.3,0.4,3.2c1.7,2.2,1.8,4.6,2,7.2c0.4,5.8,1.5,11.3,4.2,16.6c1.5,3,3,6,4.7,8.9c0.5,0.8,1.2,1.7,1.3,2.6
	c0.2,3,1.7,5.6,3.2,7.9c1,1.6-0.3,2.8,0.4,4.1c1.4,1,2.7,2.3,4.6,2.3c3.1,0,5.9,1.1,8.8,2c4.6,1.4,9.2,3,13.9,3.9
	c5.8,1.1,11.9,0.5,17.6-0.5c7.4-1.3,14.7-3.5,21.9-5.6c6-1.7,11.7-4.3,17.1-7.6c3.1-1.9,6.4-3.7,9.7-5.3c1.7-0.8,3.1-1.4,3.6-3.4
	c0.2-0.8,1.2-1.5,1.9-2c0.9-0.6,2.1-0.8,3-1.5c0.7-0.5,1-1.4,1.7-2.5C627.4,323.3,626.7,323.2,626.2,323.4z M551.8,276.3
	c-0.1-5.5,2-9.2,3.9-12.9c5.1-10,11.7-18.3,19.3-26.1c5.5-5.6,12-5.8,17.9-8.7c2.9-1.4,6.2-1.5,9.3-2.1c0.1,0.4,0.3,0.8,0.4,1.2
	c-3.9,3.3-7.8,6.5-11.9,9.9c1.6,2.3,0.4,4.3-1.1,6.7c-6.9,11.4-17.1,18.1-27,25.2C559.4,271.7,555.9,273.7,551.8,276.3z"/>
<g>
	<g>
		<path class="st0" d="M757.9,402.2c2.9-4.1,3.1-8.4,1.1-13.2c1-0.5,1.9-0.9,3.4-1.6c-1-2.1-1.9-4.3-2.9-6.4
			c4.7-2.5,8.1-2.6,11.6,0.6c3.9,3.6,8.4,6.1,12.6,7.4c1.6,2.8,2.6,5,4,7c1.7,2.3,2,4.7,1.8,7.5c-0.5,6.5-0.9,13-1.1,19.5
			c-0.2,4.2-1.5,7.9-4,11.4c-1.5,2-2.8,4.2-3.9,6.4c-7.9,16.1-11.5,30.7-17.7,47.4c-6.9,18.5-16.7,38.3-23.4,56.9
			c-3.9,10.9-8.3,21.6-12.4,32.3c-6,15.4-10.9,30.7-16.8,46.2c-1.6,4.1-2.6,8.5-4,12.7c-2,6.1-3.8,13.3-6,19.3
			c-5.4,14.7-9.1,29.9-12.3,45.1c-2.2,10.4-5.3,21-7.3,31.4c-1.4,7.8-1.9,15.7-4.3,23.2c-2.4,7.4-8.1,13.7-12.7,19.9
			c-5.2,6.9-10.2,14-15.2,21c-3.3,4.6-7.2,8.1-13.7,8.2c-1.9-19.4,4.1-44.7,5.2-63.8c0.3,5.6-1.5,17.8-1.2,23.4c0.3,0,0.7,0,1,0
			c1-9.7,1.8-19.5,3-29.2c1.5-12.5,5.9-25,8.3-37.4c4.4-23.1,10.4-46.3,16.3-69c4.9-19,11.3-39,18.5-59.5c5.4-15.8,9.5-31.3,15.4-47
			c4.5-12,7.6-24.1,11.9-36.2c1.7-4.8,3.4-9.6,3.9-14.9c0.5-5.2,4-10.2,5.6-15.3c4.8-14.7,10-29.3,14.8-44c1-3,2.2-6.3,2.8-9.7
			c1.6-0.9,4.7-2.5,6.9,0.1c0.2,0.2,0.9,0.3,1,0.1c2.9-3.7,5.7-0.3,8.5,0.2C756.8,402.2,757.2,402.2,757.9,402.2z"/>
	</g>
	<path class="st0" d="M611.1,550.2c1.2,4,2.6,7.9,3.4,11.9c1.7,8.8,6,17.4,7.4,26.3c0.7,4.1,0.8,7,1.5,11.1c1.1,2,2.9-6.4,2.9-6.4
		c0.1,8.8,2.3,23.6,3.8,19.9c0.4,2,0.9,4,0.8,5.9c0.5-2.4-0.1,7.9-1,11.9c-2.5,11.7-11,44.8-11.8,54.1c-1,11.8-6,23.9-8.2,35.6
		c-1.9,9.9-4.8,24.5-8.3,34.1c-1.3,3.6-5.5,1.6-8.2,4.9c-5.1,6.1-11.5,10.7-19.2,13.8c-2.4,1-5.1,2.3-6.5,4.2
		c-4.3,6.1-10.4,6.4-17,5.7c-2-5.3,2.2-9.1,3.5-13.4c1.8-6,4.6-11.7,4-18.2c-0.3-3.3,1.2-6.7,1.9-10.1c0.1-0.6,0.2-1.3,0.6-1.6
		c8.2-6.3,6.3-15.4,8.3-23.6c5.2-20.6,13.2-60.7,17.5-81.5c1.8-8.8,5.1-17.6,6.6-26.4c1.3-7.5,5.2-19,6.3-26.5
		c0.8-5.4,3.9-12.3,4.8-17.6c0.1-0.6,0.1-1.5,0.6-1.7c5.3-3,4.3-7.7,4.3-12.2C609.8,550.3,610.4,550.2,611.1,550.2z"/>
	<g>
		<path class="st0" d="M614.1,532.4c0-2.1,1.6-7.9,1.8-9.6c2.4-16.2,6.6-28.9,10.1-44.7c2-9.2,3.2-11.6,5.6-20.7
			c0.5-2,0.8-4,1.3-6.3c1,0,1.7,2.6,3.3,2.7c1.7-6.4,6-12.4,4.8-19.4c3.5-3.6,7-2.2,10.3,0.2c3.6,2.6,13.1,6.4,15.3,11
			c0.9,1.8,1.3,1.2,0.6,2.8c-2.5,5.6-1.2,10.1-0.3,15.8c0.9,5.5-3.3,10.8-2.4,16.3c0.4,2.5-1.2-2-2.2,0.3c-2.2,5.3-3,7.2-5.1,12.5
			c-0.5,1.2-1.2,1.9-2.5,2.5c-2.9,1.4-5.6,3.3-8,5.4c-3.6,3.1-7.3,5.7-12.1,6.5c-3.5,0.6-4.7,4.3-6.2,7.3
			c-2.3,4.7-5.2,9.8-10.1,12.4C617.7,527.6,615.3,531.9,614.1,532.4z"/>
	</g>
	<path class="st0" d="M570.8,555.3c0.3-1.8,1.1-3.6-1.4-4.6c-0.4-0.2-0.5-1.4-0.6-2.2c-0.4-3.1-6-6-5.1-9.1c0.8-2.8,1.5-5.9,1.3-8.8
		c-0.5-5.8-7.4-11.3-8.3-17.1c-1-6.5-2.2-13-3.3-19.5c-0.2-1.4-0.3-2.8-0.8-4.2c-1.1-3.3-2.8,1.8-3.9-13.7
		c-1.5,5.2-0.8,14.1-3.8,18.9c-2-1.2-5.3-2.5-5.3-4.7c0-2.7-1.6-3.8-3.9-4.4c-1,2.7-1.7,5.3-2.8,7.7c-6.2,13.5-8.9,27-14.4,40.8
		c-4.3,10.9-8.1,22.9-9.5,33.2c-4.2,16.8-6.3,18.2-9.8,42.2c-2.6,18.3-10.6,41.7-11.9,55.5c-0.2,1.9-0.5,3.8-0.8,5.7
		c-0.9-0.7-1-1.3-1-1.8c-5.6-13.2-10.5-30.6-13.1-45.8c-2.9-17-4.5-25.2-7-52.8c-0.7-7.4-1.5-11.9-9.1-13.6
		c-8.1-1.8-11.9,0.6-20,2.6c-6.5,1.6-8.7,7.8-12.6,14.4c-4.8,8.1-6.9,12.6-9.8,21.7c-7.6,23.8-12.9,37.6-16.6,52.1
		c-2.2,8.5-4.8,17.6-7.6,26c-0.6,1.7-0.7,5-2.8,6c-0.3-1.5-0.7-3.4-0.8-4.5c-0.9-9.2-0.2-17.9-1-27c-0.4-4.1-0.6-8.8-0.9-12.9
		c-0.2-3.1-0.5-6.3-0.3-9.3c0.3-7.6,0.9-15,0.7-22.6c-0.2-6.7,0.4-13,0-19.7c-0.1-2.2-0.3-4.9-0.9-7c0-0.1,0-0.2-0.1-0.5
		c0-0.2-0.3-0.9-0.3-1.2c0,0,0.2,1,0.2,1c0,0.1-0.1-0.2-0.2-0.3c-0.1-0.3-0.3-0.6-0.5-0.9c-0.2-0.4-0.4-0.8-0.5-1.2
		c-0.4-1.3,0-2.3-1.2-3.7c-1.1-1.4-2.4-6.6-4.7-7.9c-0.5-0.3-0.9-1.7-1.7-2c-0.8-0.4-3.8-1.1-4.5-1.1c-1.1,0-3-0.3-3-0.3
		c0,0.5-0.6,0.2-0.7,0.1c0,0-0.4-0.1-0.8-0.9c-0.1,0.8-0.3,2-0.7,3.1c-0.7,1.6-1,3.5-1.3,4.4c-1.4,5.8-0.8,8.9-1.8,14.8
		c-1.4,7.9-1.4,15.8-1.9,23.8c-0.8,11.8-1,23.6-1.2,35.3c-0.2,12.4-1.3,24.8-1.1,37.2c0.2,9.3,1.2,18.5,1.1,27.8
		c-0.2,16.9,4.2,32.9,8.3,49.2c5.2,0.8,8.4,5.2,10.9,8.6c3.9,5.5,8.3,8.2,14.1,10.6c2.5,1.1,4.9,0.6,7.1-1.1
		c5.3-4.1,9.3-8.2,9.3-15.8c0-2.7,0.6-5.3,1.1-7.9c0.9-4.9,1.5-10,3.2-14.7c2.8-7.5,2.4-15.4,5.6-22.7c2.9-6.8,4.9-14.6,7.3-21.6
		c2.1-6,6.5-10.4,8.2-16.6c0.2-0.1,0.5-0.2,0.7-0.2c0.6,1.6,1.4,3.1,1.8,4.7c3.1,13.1,5.9,26.4,9.2,39.5
		c4.4,17.4,11.3,32.6,20.5,48.2c1.1,1.8,1.6-3.3,3-1.7c2.6,2.9,5.2,5.6,7.1,9.2c2.3,4.5,7.5,8,11.8,9.3c2.5,0.8,4.7,0.8,5.9,1.1
		c4.4,1.3,7.4,1.2,11.7-0.7c4-1.8,7.6-3.2,10.5-6.9c0.7-0.9,1.9-2.7,2.8-4.2c2.4-4.2,4.7-6.5,5.9-10.5c1.7-5.4,0.9-8.9,2.1-14.4
		c3.3-14.3,6-24.8,8.1-40.3c1-7,3.9-14,5-20.7c0.5-3.4,0.8-6.9,1.6-10.2c3.8-17.6,8.7-29.4,11.5-44c3.7-18.7,8.5-34,12.2-50.8
		C568,568.7,568.7,566.4,570.8,555.3z"/>
	<path class="st0" d="M624.4,578.3c1.2-3.8-0.3-2.6-0.1,15.9c2.6-0.9,1-24.5,1.4-22.9C624.4,566.8,625.8,573.7,624.4,578.3z"/>
	<g>
		<g>
			<g>
				<path class="st0" d="M1134.7,545.8c0.5-0.7,1.4-0.2,1.4-0.2s-5.6,6.3-7.8,10.5c0,0,3.2-6,3.4-6.7c0.2-0.8,0.4-1.6,1-1.8
					C1132.7,547.6,1134,546.9,1134.7,545.8z"/>
				<path class="st0" d="M1136.5,449.2c1.1,0.2,2.5,2.3,2.9,1.6c0.3-0.4,0.6-0.7,0.8-1.1c0.3-1.1,1-1.5,1.5-2.3
					c0.3-0.4,0.6-0.8,0.9-1.3c0.4-0.4,0.4,1.5,0.5,1.9c0.7,1.3,1.3,1,2.1,1c0.2,0,0.4,0,0.6-0.1c0.4-0.1,0.8-0.3,1.2-0.5
					c1.1-0.6,2.1-0.9,2.6-2.2c0.1-0.2,0.1-0.5,0.2-0.8c0-0.3,0.1-0.6,0.1-1c0.1-3,0.4-4.7,1.3-5.5c0.2-0.2,0.5-0.3,0.7-0.4
					c0.8-0.3,2,0,3.5,0.5c0.4,0.1,0.7,0.3,1.2,0.4c0.4,0.2,0,1,1.4,0.5c-0.5,0.7,0.7,5.6,0.5,7.9c0,0.4,0,0.7,0,1.1
					c0,0.3,0.1,0.7,0.1,1c0.2,1.3,0.7,2.5,1.3,3.6c0.3,0.6,6.8-0.9,7.2-0.3c3.6,5.5,6.3,11.4,8.9,17.5c0.3,0.7,0.8,1.4,1.3,2
					c0.3,0.3-0.7,0.3-0.4,0.6c0.3,0.3,2.2,2.9,2.3,3.2c0.9,2,0.8,5,0.3,6.8c-0.1,0.4-0.1,0.8-0.3,1.2c-0.1,0.4-0.3,0.8-0.5,1.1
					c-0.5,0.9-1,1.7-1.5,2.6c-1.6,2.7-6.5,13.2-6.9,13.8c-2.7,3.4-13.7,23.1-15.8,28.3c-0.6,1.6,3-6.7,1.8-5.3
					c-4.9,5.8-15.1,9.5-15.1,7.4c0-1.3-3.1,1.6-4.3,2.5c-2.4,1.8-4.8,3.6-7.2,5.5c-1.2,0.9-1.2,1.9-2.4,2.8c-3.4,2.6-8.7,4.5-12.4,7
					c-1.6,1.1-3.3,1.8-4.8,3.2c-1.2,1.2-2.4,2.1-3.6,2.5c-0.9,0.4-1.8,0.5-2.8,0.3c-0.3-0.1-0.6-0.2-1-0.3c-0.2-0.1-0.5-0.1-0.7-0.1
					c-0.5,0-1.1,0.1-1.8,0.2c-0.3,0.1-2.3,7.7-2.7,7.7c0.3-2.5,2.4-12,2.8-13.9c0.7-3.4,1.6-6.6,2.5-9.8c0.9-3.2,0.6-6.2,1.3-9.4
					c3.1-13.8,9.2-26.7,13.5-38.9c1.4-3.8,2.7-7.6,4.1-11.4c1.4-3.8,2.8-7.5,4.1-11.2c1.3-3.6,2.7-7.3,3.2-11.3
					c0.1-0.8,0.1-1.6,0.2-2.5c0-1.7,0.8-1.4,0.4-3.3c-0.1-0.3,0.9-0.5,1-0.9c0.1-1.1,0.8-0.2,1.2-2c0.6,0.6,0.8-0.3,1.1-0.2
					C1134.3,450,1134.3,448.9,1136.5,449.2z"/>
			</g>
		</g>
	</g>
	<g>
		<path class="st0" d="M707.1,746.3c-0.3,4.1-0.7,10.9,0,11.6C707,754.3,706.9,750,707.1,746.3z"/>
		<path class="st0" d="M707.3,743.2c-0.1,0.9-0.1,2-0.2,3C707.2,744.5,707.3,743.2,707.3,743.2z"/>
		<path class="st0" d="M1572.2,709.5c0.2-6.1-3.6-11.8-5.8-17.5c-1.1-2.8-1.9-5.6-2.3-8.4c-0.1-0.6-0.1-1.1-0.1-1.7
			c0-0.3-0.5-1.6-0.6-1.9c-0.5-1.2,0.4-2.5,0.4-2.5l-0.4,0.3c-0.1-0.6-0.2-2.4-0.1-3c0-0.2-0.1-0.7,0-0.9c0.1-0.2,0.7-0.6,0.5-1.1
			l1.2-1.7c0,0-3.1,3-4.1,4.4c-0.3,0.4-0.5,0.8-0.8,1.1c-0.8,0.9-1.5,1.8-2.3,2.7c-0.7,0.8-1.3,1.6-2,2.4c-3.2,3.9-6.4,7.8-9.9,11.2
			c-7.1,6.9-11.4,16.6-18.9,23c-4.1,3.5-14.5,13.6-18.8,10.2c-4.1-8.5-3.8-16.2-2.3-24c1.5-7.4,5.8-18.5,8.6-25.3
			c5-12.1,2.9-23.5-4.3-34.2c-4.9-7.3-12.5-10.7-20.2-13.8c-8.5-3.4-17.7-3.2-26.6-4c-7.7-0.7-15.6,0.2-23.3,0.3
			c-1.2,0-2.4-0.3-3.7-0.5c-0.7-4.5,1-8.3,2.8-11.8c2.7-5.6,2.9-11.2,1.8-17.1c-0.4-2.1-0.7-4.2-0.9-6.3c-0.7-6.8-0.7-13.6-4.6-19.7
			c-1.6-2.5-3.1-4-5.8-4.8c-5.1-1.5-9.9-0.1-14.7,0.4c-0.3,1.8-0.3,3.2-0.8,4.5c-3,8.1-6,16.2-9,24.3c-0.5,1.5-1.5,3.1-1.3,4.5
			c1.6,9.6-0.6,19.4,2.2,28.9c0.5,1.6-0.5,3.8-1.1,5.6c-2,6-4.7,11.9-6.3,18c-4.6,18.3-12.1,35.4-21.1,51.9
			c-1.2,2.3-2.7,4.4-4.5,6.3c-11.5,12.2-25.4,21.2-40.8,27.6c-11.9,5-13,5-20.5-6.7c-4-6.2-3.8-13.3-2.8-21.4
			c0.5-4.4-0.5-13.3,1-14.2c5.5-3.4,0.6-1.6,4.6-5.9c1.8-2.4,8.7-6.1,14.4-10.5c3.8-2.9,12.2-10.1,18.3-16.2c7-7,16.1-19.7,18.6-27
			c2.3-6.7,7.8-26.4,7.1-33.3c-0.4-4.5-3.6-9.7-3.3-15.6c0.1-1.9-7-10.7-9.7-11.6c-3.4-1.2-6.1-2.7-10.1-3.9c-3.7-1.1-10.6-1.8-16,0
			c-5.3,1.8-11.6,3.9-16.8,7.2c-4.3,2.7-8.9,5.1-13.3,9.1c-2.3,2-7.7,8-9.6,10.3c-1.3,1.6-5.8,9.8-6.8,11.6
			c-5.5,9.7-8.5,18.6-12,29.3c-2.7,8.2-2,16.2-3.7,25.8c-0.3,2,0.6,4.4-0.9,5.2c-7.5,4.2-15.6,6.4-24,5.9
			c-3.4-5.4-6.5-10.4-11.5-13.9c-3.2-2.3-5.2-7.4-3.2-10.4c6.4-9.6,10.3-18.3,15.6-26.4c6.1-9.2,12.9-17.5,17.5-25.4
			c5.2-9,11.7-17.5,16.5-26.8c9-17.4,17.1-34.8,26.1-52.3c6.7-13.1,11.4-26.6,14-41.2c1.5-8.4,2.9-16.6,0.7-24.6
			c-2-7.5-4.7-14.9-4.6-22.7c0.1-7.4-3.5-12.7-7.8-17.9c-1.3-1.6-2.9-1.6-4.7-1.7c-6.2-0.1-11.1,3.2-16,6.2
			c-6,3.7-11.9,7.6-17.9,11.4c-2.7,1.7-5.9,2.7-8.1,4.9c-20.6,20.3-35.6,44.4-47.7,70.4c-3.6,7.7-6.8,15.5-10.2,23.3
			c-7.3,17.1-13.7,34.6-18.4,52.6c-6.7,26.3-10.5,53.1-15.3,79.8c-2.6,14.8-5.2,23-7.9,37.8c-0.4,2-1,4.3-2.2,5.8
			c-8.9,11-22,25.3-34.2,32.4c-2.6,1.5-6,2.4-9.1,2.2c-3.3-0.2-8.7,5-11.8-0.7c-3.7-6.7-2.6-17.4-2.6-17.4s16.3-39.8,20.9-50.5
			c3.6-8.4,5.7-23.2,9.4-31.6c3.2-7.3,5.3-25.5,5-33.4c-0.7-18.6-0.7-18.6-2.7-27c-2.8-1.5-5.2-2.6-7.9-3.2c-3.9-0.8-1.6-5.3-8.1-6
			c-3.1,1.7-11.3-0.2-13.9,1.4c-3.4,2.1-10.8,5.9-15,7.1c-1.8,0.5-6.5,4.1-6.2,8c0.1,0.9-2.6,1.8-3.2,2.9c-0.6,1-4.2,4.4-4.6,5.4
			c-1.9,4.7-2.4,6.6-3.7,11c-1.1,3.7-3.7,10.5-3.5,14.5c0.1,1.9-0.4,3.9-0.6,5.8c-0.7,5.5-1.2,17.7-1.3,23.3c0,7.8,1.3,38.7,2,43.4
			c1.9,12.3-1.6,19-10.5,31.9c-11.3,16.4-13.8,17.2-22.9,32.1c-7.1,11.6-7.3,8.2-13.5,14.2c-9,8.8-7.9,5.5-15.6,8.6
			c-5.2,2.1-8.1,8.3-10.9,5.1c-2.7-3.2-7.9-2.1-8.9-8.6c-0.5-3-1.2,3.9-1.1-4c0.1-7.8,1-3.8,1.6-19.3c0.2-4.1-0.1-6.2,1.2-9.9
			c1.8-5.2,2.9-10.4,3.4-15.6c0.8-7.7,6.9-15.5,9.9-22.8c2.6-20,9.7-28.5,15.2-43.1c4.6-12.2,8.7-24.6,12.7-37
			c3-9.2,8.1-18.5,10.5-28c2.1-8.4,9-17.1,10.6-25.6c1.5-7.8,5.7-15.9,8.2-23.4c5.4-16.6,12.9-33,18.6-49.5c3-8.5,2.3-17.2,4.7-25.8
			c0.8-2.9,2.1-5.7,3.8-7.9c1.2-1.5,2.9-4.4,3.3-6.6c1.7-8.1-0.2-2-0.4-2.8c-0.3-1.9-2-4.7-1.9-6.3c0.2-2.2,0-4.1,0.5-6.2
			c3-13.1-8.1-26-9.6-39c-0.8-6.2-1.4-6.2-7.7-5.9c-0.4,0-1-0.1-1.3-0.2c-5.6-1.6-11.3-0.8-16.9-1.4c-7-0.8-11.6,3.9-14.2,7.9
			c-3.1,4.9-6.1,9.4-10.3,13.3c-2,1.9-3.8,4.1-5.1,6.6c-3.7,7.2-7.5,14.4-10.7,21.9c-3.4,7.8-7.1,16-10.4,23.8
			c-4.5,10.6-11.8,28.7-15.7,40.4c-3.3,10.1-6.2,20-9.5,30.1c-4.7,14.3-8.1,28.6-12.4,43c-3,10.2-4.8,20.4-7.4,30.7
			c-2.3,9.2-3,18.5-4.4,27.9c-2.5,16.9-4.8,32.7-6.9,49.6c-0.8,6.8-2.7,11.8-3.7,18.4c-0.8,4.9-4.7,9.3-10.5,15.6
			c-3.2,1.9-9,0.5-13.9,0.2c-10.4-0.5-27.9-23.5-32.7-40.7c-3.6-13.1-9-29.7-9.6-43.4c-0.6-11.4,1.2-28,3.8-44.6
			c2.9-19.1,10.7-34.8,16.7-58.2c4.4-17.1,11.6-35.7,16.5-52.6c8.4-28.8,16.4-43.6,19.8-65.2c0.6-4,5-10.3,5.6-14.3
			c1-6.5,2.7-13,0.9-19.5c-1.1-3.9-1.2-7.5-0.8-11.4c0.6-5.8-1.6-11.2-4.1-16.2c-1.9-3.8-6.9-3-10.5-3.9c-0.3-0.1-0.6-0.3-0.6-0.3
			c-2.1-3-8.3-3.5-10.2-6.2c-4.3-5.9-12.3-7.8-19.3-6.1c-1.2,0.3-1.2,1.1-2.3,1.7c2,2,5.2,2.4,8,1.7c1.9,6.1,3.6,1.6,0.2,7.6l-3-1.5
			c-1.2,2.6-1.8,5.1-3.3,6.8c-2.3,2.6-7.3,4.9-10.2,6.8c-5.6,3.5-6.1,4.7-3.3,10.6c0.2,0.5,0.5,0.9,0.8,1.4c1.3,2.3,1.7,4.6,0.8,7
			c-3.1,1.9-8.3,3.2-12.1,3.3c-3.5,0-5.7,1.6-8.3,4.5c0.3,1.4,2.4,3,3.1,4.1c3.8,7.2-0.9,14.1-4.4,20.9c-0.4,0.9-2,2.4-2.1,3.4
			c-0.5,5.6-7.6,11.3-8.1,16.8c-0.2,2.8-1.6,4.9-3.8,6.7c-1.7,1.4-2.8,3.5-4.3,5.3c2.9,4.6,5.5,6.2,4.6,11.8
			c-1.1,7.3,3.1,13.5,1.8,20.8c-0.2,1-0.8,1.9-1.2,2.9c-0.8,1.5-1.9,2.9-2.4,4.5c-5.2,16-3.9,31.5-7.1,48
			c-1.9,9.9-3.2,19.7-5.3,29.5c-0.7,3.4-2.6,5.7-5.5,7.6c-1.9,1.3-3.6,3.1-5.8,4c-17.5,7.4-50.3,24.2-66.7,43.2
			c-11.1,12.1-14.9,21.2-21.4,31.4c-5.1,8-12.1,20.8-14.8,30.1c-0.7,2.4-1.6,7-1.6,7c-9.6,20.7-9.3,43.5-8.8,66.8
			c-0.3,0.1,0,0.3-0.3,0.5c-0.1,0-0.1,0-0.2-0.1c0.1,2.8,0.2,5.3,0.3,6.6c0,0.3,0.3,0.6,0.4,0.9c1.8,4.8,3.7,7.3,5.4,12.1
			c2.3,6.5,5.8,8.8,12.1,12.1c2.3,1.2,5.1,1.9,7,3.6c6.2,5.5,13.6,1,20.7,2.5c3.1-1.8,5.7-2,8.1-3.7c3-2.1,13.2-0.1,13.9-5
			c0.1-0.8,1.5-1.4,2.3-2.1c10-9,12.2-5.2,23.3-17c4.5-4.8,8.9-6.3,13.1-11.2c5.4-6.3,11.4-13.1,16-20c3.1-4.5,5.4-9.5,7.9-14.4
			c1.4-2.8,3.8-5.7,5.4-9.2c1.2,1.6,0.9,2.5,1.4,3.5c1.7,3.3,3.3,6.7,5,10c6.6,13.4,14.7,25.7,25.2,36.5
			c12.6,12.9,26.5,20,44.2,22.2c1.4,0.2,2.7,0.1,4.1-0.2c5.3-1.1,17.2-13.4,22.9-14.7c0.2,1.8,1.2,3.6,1.6,5.3
			c3.9,17.1,5.3,19.5,9,24.2c4.3,5.4,5.8,9.2,10.9,13.9c2.4,2.2,10.1,1.7,13.1,3.2c6.9,3.4,8,0.1,11.7-0.3c1.6-0.1,3.2-0.2,4.7,0
			c6.8,1.2,11.3-4.4,17.2-7.2c14.5-6.9,21.4-10.6,30.6-19.8c5-5,5.2-2,8.7-8.2c4.9-8.9,12.1-13,22-25.4c1.2-1.5,4.8-4.5,5.7-6.7
			c1.1,0.9,2,10.1,2.4,10.8c5,9.3,0.5,7.4,15.1,13.6c9.6,4.1,15.6,4.6,21.8,2.1c2.4-1,7,0.1,8.8-1.8c2.1-2.3,7.6-4.8,10.1-6.6
			c2.5-1.9,4.4-0.9,7.2-2.4c3-1.6,6.1-7.6,9.5-9.3c0.1,1.2-0.8,3.1-0.9,3.9c-0.8,7.4-1.5,4.8-2.3,12.2c-1.9,15.8-4.2,26.1-5.7,41.9
			c-2.2,23.1-4.4,35.3-4.2,49c0,1.6,0.3,3.2,0.3,3.2l1.8,3.9l-1.7-0.7c-0.5,7.1,2.6,15.4,2.4,21c-0.1,3.5,2.9,6.6,3.2,10
			c0.4,4.1,2.5,6.4,5.6,8.4c1.5,0.9,2.8,2.3,4.4,3c7.6,3.2,8.6,3,16.3,5.9c2.2,0.8,1.3-0.4,3.6,0c7.7,1.2,13.1-4.6,17.5-11
			c7.9-11.7,16.3-19.9,24.3-31.5c4.3-6.3,8.2-12.7,9.8-20.4c2.3-11.2,7.8-8.4,7.6-19.9c-0.1-3.7,1.9-7.5,2.6-11.1
			c2-9.7,3.7-11.2,5.2-19.6c1.7-8.8,2-17.5,4.1-26.3c1.4-6-0.2-12.1,0.3-18.2c0.5-5.6,0.2-11.4-0.9-16.8c-1.7-7.9-3.4-17.8-5.6-25.6
			c-0.7-2.4-1.6-4.7-1.6-7c0-0.8,0.1-1.6,0.4-2.3c0.9-0.7,2,0,3.1-0.2c4-0.5,14.2,0.2,17.6-0.7c1-0.3,2.1-0.3,3.2-0.4
			c0.4-0.2,0.2,1.6,0.5,2.4c0.5,1.1,0.6,3.8,0.9,5.2c1,4.3,1.9,8.7,3.3,12.8c1.3,3.9,2.5,7.6,2.7,11.8c0.1,4.1,1.5,7.8,3.7,11.5
			c7.7,13.2,18.9,18.3,31.4,26.6c3.9,2.6,8.3,3.9,13,4c5.3,0.1,10.6,0.8,15.9,0.6c6-0.2,12.3,0.1,17.8-1.7
			c6.8-2.1,14.5-5.4,20.1-10.2c7.8-6.6,16.6-9.2,25-14.9c9.9-6.7,15.3-18.1,24-25.9c1.9-1.8,2.5-3.8,3.8-6.1c1.7-2.9,3.4-6,1.1-9.5
			c-0.5-0.8-0.5-2.1-0.4-3.1c0.9-7.2,0.1-12.9-1.6-19.8c-0.5-2-1.2-4.2-0.9-6.2c1.2-7.1,2.5-13.1,4.2-20.2c1.7-6.8,3.9-8.1,10.8-7.4
			c1.2,0.1,2.4,0.4,3.7,0.7c3.8,0.8,7.3,0.6,10.8-1.3c4-2.1,8.3-2.3,12.7-2.1c1.6,0.1,3.3,0.1,4.9,0c8.1-0.8,13.3,4.6,11.4,12.5
			c-1,4.3-2.6,8.4-4.2,12.6c-1.6,4.3-5.3,12.8-6.3,17.2c-3.3,15.1-2.3,30.3,1.8,45.1c2.1,7.9,6,16.8,13.7,19.8
			c2.5,1,4.9,4.4,7.2,5.7c6,3.6,13.2,7.6,20.1,5.6c2.5-0.7,6.6-5.5,8.9-4.8c8.6,2.7,15.5-4.8,21.6-9.1c6.7-4.8,12.3-15.6,18.3-21.3
			c1-0.9,1.5-2.1,2.5-2.9c0.8-0.6,2.3-2.8,2.4-3.1c0,0-2.1,2.5-2,2.3C1574.7,724.6,1571.9,717.8,1572.2,709.5z M1563.4,677.7
			C1563.4,677.9,1563.4,677.9,1563.4,677.7L1563.4,677.7z M1311.8,638.7c1.6-11.8,5.2-22.7,12.5-31.7c5.3-6.5,4.7-4.2,10.8-7.9
			c2.9-1.8,6.3-1.1,9.6-2.2c1.7-0.9,5.9,0.4,5.9,2.2c-2.5-0.9-3.5-0.6-3.5-0.6c1.1-0.2,2.7,0.6,2.8,3c2.2,0.8-3,12.4-4.3,15.1
			c-8.4,17-11.4,19.5-22.9,28.4c-3.4,2.6-13.3,10-11.8,5.3C1310.9,644,1311.3,642.3,1311.8,638.7z M1015.3,559.2
			c0,0,0.7-0.9,1.6-2.1c8-38.7,22.7-65.3,31.7-89.5c-1,5-0.3,9.8-1.4,13.2c-8.6,26.6-16.2,51.9-24.9,78.4c-0.1,0.3-1.9,1.2-3.6,2
			l-8.2,19.6L1015.3,559.2z M820.2,639.5c-1.6,17.1-6.9,44-9.5,51.9c-2.4,7.3-4.6,17.9-13.6,28.2c-5.2,5.9-10.1,10.5-18,17.7
			c-3.9,3.5-6.5,1.5-10.5,6c-0.3,0.3-2.5,0.9-3.9,0c-1.1-0.7-3.2-3.4-3.4-3.4c-0.1,0,1.4,1.8,1.9,2.8c-1.9-0.5-6.4-10.2-6.9-14.7
			c-0.1-0.9,0.5-5.7,0.5-5.7c-0.2-0.1-1.1,5.4-1.1,4.6c0.6-7.9-2-15.4,0.2-23c4-13.6,8.4-38.9,16.4-50.5c8.6-12.6,18.4-27.1,38.9-37
			c7.2-4.7,12.7-7.1,12.7-7.1C824.5,617.1,820.5,635,820.2,639.5z M1098.9,650.2c0,0,0.2-20.2,2.4-29.9c1.2-5.6,2.8-11,5.6-14.6
			c4.1-5.2,5.5-5.1,4.4,3.5C1109.1,627.7,1098.9,650.2,1098.9,650.2z M1225.6,769.4c-2.5,25.1-14,37.6-15.2,59.2
			c-0.5,10.4-4.8,8.7-8,18.7c-2.4,7.4-13.7,20.1-19.7,26.8c-0.4-3-0.8-5-0.9-7c-0.4-14.7-1.4-16-0.9-30.6c0.5-14.3,2.5-23,4.1-37.2
			c1.2-10.3,2.4-20.7,4.2-30.9c2.8-16.9,6-39.3,9.1-56.1c0.7-4.1,6.2-11.4,7.2-16.1c1.6,1.7,2.3,2.1,3.4,2.5
			c4.5,1.6,9.5,8.4,10.1,12.5C1221.8,731.1,1227.7,749.4,1225.6,769.4z M1226.4,613c-0.6,1-2.5,6.4-4,7.1c0.7-3.5,2.4-11.4,3.1-14.9
			c5.5-25.6,13.7-52.9,24-77.7c7.3-17.5,15.9-34.4,27.9-49.2c4.7-5.8,10.8-10.6,16.4-15.7c0.9-0.9,2.3-1.3,4.2-2.3
			c-1.7,8.8,0.5,17.2-2,24.9c-10.2,31.3-27.8,52.9-41.7,81.1C1247.1,580.9,1233.3,601.5,1226.4,613z"/>
	</g>
</g>
</svg>
