<?xml version="1.0" encoding="UTF-8" standalone="no"?>
<svg width="110px" height="154px" viewBox="0 0 110 154" version="1.1" xmlns="http://www.w3.org/2000/svg" xmlns:xlink="http://www.w3.org/1999/xlink">
    <!-- Generator: Sketch 3.8.1 (29687) - http://www.bohemiancoding.com/sketch -->
    <title>Slice 1</title>
    <desc>Created with Sketch.</desc>
    <defs></defs>
    <g id="Page-1" stroke="none" stroke-width="1" fill="none" fill-rule="evenodd">
        <g id="WWF_square_free_tab" transform="translate(1.000000, 1.000000)">
            <polygon id="Fill-1" fill="#FFFFFF" points="0.379 151.622 108.135 151.622 108.135 0.149 0.379 0.149"></polygon>
            <polygon id="Stroke-2" stroke="#0A0A08" stroke-width="0.758" points="0.379 151.622 108.135 151.622 108.135 0.149 0.379 0.149"></polygon>
            <path d="M44.955,104.481 C44.389,104.481 43.912,104.841 43.73,105.329 L41.238,111.637 L41.017,112.356 L40.82,111.626 L38.891,105.49 C38.891,105.465 38.875,105.445 38.867,105.434 L38.867,105.418 C38.686,104.903 38.198,104.539 37.635,104.539 L34.524,104.539 C33.822,104.577 33.267,105.145 33.267,105.853 C33.267,106.041 33.356,106.29 33.416,106.526 L33.822,107.808 L32.295,111.646 L32.057,112.356 L31.858,111.637 L29.941,105.49 C29.92,105.465 29.92,105.445 29.913,105.434 L29.913,105.418 C29.734,104.903 29.236,104.539 28.682,104.539 L25.568,104.539 C24.879,104.577 24.312,105.145 24.312,105.853 C24.312,106.041 24.389,106.29 24.469,106.526 L29.127,120.413 C29.266,120.981 29.791,121.399 30.393,121.399 C30.985,121.399 31.479,121.017 31.641,120.481 L34.904,112.246 L35.146,111.513 L35.342,112.24 L38.09,120.413 C38.23,120.981 38.74,121.399 39.358,121.399 C39.955,121.399 40.45,121 40.62,120.444 L46.142,106.374 C46.223,106.198 46.273,106.006 46.273,105.808 C46.273,105.075 45.681,104.481 44.955,104.481" id="Fill-4" fill="#1A1918"></path>
            <path d="M68.174,104.481 C67.609,104.481 67.126,104.841 66.94,105.329 L64.461,111.637 L64.222,112.356 L64.041,111.626 L62.099,105.49 C62.099,105.465 62.099,105.445 62.092,105.434 L62.092,105.418 C61.904,104.903 61.416,104.539 60.847,104.539 L57.734,104.539 C57.037,104.577 56.487,105.145 56.487,105.853 C56.487,106.041 56.56,106.29 56.639,106.526 L57.044,107.808 L55.514,111.646 L55.266,112.356 L55.076,111.637 L53.159,105.49 C53.138,105.465 53.138,105.445 53.127,105.434 L53.127,105.418 C52.953,104.903 52.465,104.539 51.904,104.539 L48.785,104.539 C48.078,104.577 47.527,105.145 47.527,105.853 C47.527,106.041 47.615,106.29 47.678,106.526 L52.352,120.413 C52.49,120.981 53.002,121.399 53.615,121.399 C54.195,121.399 54.69,121.017 54.864,120.481 L58.125,112.246 L58.353,111.513 L58.559,112.24 L61.297,120.413 C61.445,120.981 61.957,121.399 62.57,121.399 C63.168,121.399 63.676,121 63.838,120.444 L69.362,106.374 C69.443,106.198 69.49,106.006 69.49,105.808 C69.49,105.075 68.898,104.481 68.174,104.481" id="Fill-5" fill="#1A1918"></path>
            <path d="M83.256,104.51 L72.369,104.51 C71.738,104.51 71.234,105.018 71.234,105.65 L71.234,105.656 L71.234,108.409 L71.234,120.11 C71.234,120.118 71.234,120.104 71.234,120.11 L71.238,120.11 C71.264,120.762 71.805,121.294 72.456,121.294 L75.541,121.294 C76.21,121.274 76.73,120.749 76.746,120.073 C76.746,120.189 76.746,113.323 76.746,113.323 C76.746,113.323 81.164,113.309 81.183,113.309 C81.834,113.305 82.355,112.774 82.355,112.112 C82.355,111.461 81.824,110.924 81.158,110.924 L76.754,110.924 L76.746,107.063 L83.316,107.063 C83.994,107.03 84.535,106.474 84.535,105.784 C84.535,105.078 83.955,104.51 83.256,104.51" id="Fill-6" fill="#1A1918"></path>
            <path d="M66.371,58.429 C68.353,60.648 68.563,67.249 73.541,64.623 C76.535,63.045 76.494,56.384 72.501,53.981 C69.271,52.072 67.505,54.647 66.333,57.807 C66.244,58.054 66.237,58.302 66.371,58.429" id="Fill-7" fill="#1A1918"></path>
            <path d="M58.641,57.374 C56.56,59.1 55.129,63.828 51.301,62.223 C48.209,60.648 47.912,54.52 53.242,51.689 C56.958,49.98 58.844,53.364 58.867,56.956 C58.867,57.08 58.746,57.269 58.641,57.374" id="Fill-8" fill="#1A1918"></path>
            <path d="M63.774,69.439 C65.83,69.227 65.366,67.321 63.811,66.842 C62.418,66.428 60.307,66.157 58.815,66.185 C56.172,66.246 56.236,68.264 57.613,68.606 C58.652,68.954 59.322,69.091 60.224,70.247 C61.043,71.838 60.678,69.771 63.774,69.439" id="Fill-9" fill="#1A1918"></path>
            <path d="M73.474,35.325 C76.055,31.026 80.548,31.859 82.797,34.002 C85.273,36.33 85.671,39.018 84.723,40.909 C83.43,43.446 80.125,46.529 77.976,43.545 C77.025,42.231 75.007,40.655 73.907,40.201 C72.217,39.489 71.893,37.962 73.474,35.325" id="Fill-10" fill="#1A1918"></path>
            <path d="M63.95,73.919 C62.827,76.896 56.984,75.876 56.802,72.994 C56.802,72.879 56.958,72.904 57.023,72.92 C59.626,73.527 62.099,73.816 63.775,73.809 C63.836,73.809 63.977,73.773 63.95,73.919 L63.95,73.919 Z M83.749,54.28 C83.519,53.518 83.138,53.561 83.156,54.19 C83.365,62.025 78.688,70.417 68.674,70.475 C66.113,70.479 66.882,74.581 62.211,72.518 C58.844,70.247 56.916,74.719 54.522,69.906 C54,68.52 53.209,67.966 52.187,67.711 C42.303,65.262 39.149,51.654 47.861,40.669 C49.584,41.698 50.216,41.856 52.053,40.169 C53.013,39.283 54.623,38.306 55.499,37.983 C57.593,37.182 58.729,36.289 56.916,32.292 C54.592,27.106 49.83,28.571 47.652,30.364 C45.196,32.394 43.471,35.657 46.637,39.502 C37.779,45.478 36.262,52.815 36.466,59.193 C36.674,65.977 34.939,65.399 37.105,72.305 C37.297,72.91 36.871,72.896 36.547,72.701 C27.316,66.79 22.326,48.768 36.713,38.83 C37.036,38.54 36.902,38.161 35.721,38.854 C23.267,45.44 22.122,58.196 24.188,66.79 C25.197,70.951 23.664,71.719 25.277,77.187 C28.982,88.583 32.144,89.483 36.605,89.813 C44.73,89.813 39.223,85.333 39.52,79.705 C39.52,79.374 39.92,79.215 40.149,79.892 C44.62,89.921 47.777,99.045 59.529,98.192 C66.333,97.307 62.559,93.927 62.145,92.012 C57.143,75.407 69.281,71.494 65.845,87.683 C63.575,96.957 70.748,96.026 75.799,92.699 C81.008,89.278 87.521,66.704 83.749,54.28 L83.749,54.28 Z" id="Fill-11" fill="#1A1918"></path>
            <path d="M35.696,91.439 C34.259,91.439 33.087,92.611 33.087,94.042 C33.087,95.485 34.262,96.656 35.696,96.656 C37.139,96.656 38.295,95.485 38.295,94.042 C38.295,92.611 37.139,91.439 35.696,91.439 L35.696,91.439 Z M37.875,94.042 C37.875,95.246 36.891,96.218 35.696,96.218 C34.496,96.218 33.523,95.246 33.523,94.042 C33.523,92.851 34.496,91.875 35.696,91.875 C36.891,91.875 37.875,92.851 37.875,94.042 L37.875,94.042 Z" id="Fill-12" fill="#1A1918"></path>
            <path d="M36.439,94.45 C36.389,94.765 36.123,94.985 35.762,94.985 C35.261,94.985 34.941,94.543 34.941,94.038 C34.941,93.509 35.229,93.112 35.758,93.112 C36.108,93.112 36.369,93.317 36.439,93.626 L36.805,93.626 C36.739,93.051 36.291,92.729 35.748,92.729 C34.97,92.729 34.524,93.293 34.524,94.038 C34.524,94.782 35.008,95.352 35.762,95.352 C36.291,95.352 36.715,95.01 36.82,94.45 L36.439,94.45" id="Fill-13" fill="#1A1918"></path>
            <path d="M81.514,97.657 C80.062,97.657 78.907,98.823 78.907,100.265 C78.907,101.716 80.062,102.87 81.514,102.87 C82.946,102.87 84.117,101.716 84.117,100.265 C84.117,98.823 82.946,97.657 81.514,97.657 L81.514,97.657 Z M83.691,100.265 C83.691,101.47 82.709,102.441 81.514,102.441 C80.303,102.441 79.328,101.47 79.328,100.265 C79.328,99.067 80.303,98.1 81.514,98.1 C82.709,98.1 83.691,99.067 83.691,100.265 L83.691,100.265 Z" id="Fill-14" fill="#1A1918"></path>
            <path d="M81.062,100.118 L81.062,99.351 L81.566,99.351 C81.824,99.351 82.102,99.419 82.102,99.719 C82.102,100.099 81.824,100.118 81.496,100.118 L81.062,100.118 L81.062,100.118 Z M81.062,100.443 L81.488,100.443 L82.146,101.503 L82.551,101.503 L81.848,100.414 C82.213,100.368 82.489,100.177 82.489,99.746 C82.489,99.254 82.205,99.045 81.627,99.045 L80.678,99.045 L80.678,101.503 L81.062,101.503 L81.062,100.443 L81.062,100.443 Z" id="Fill-15" fill="#1A1918"></path>
            <path d="M9.235,142.754 L99.325,142.754 L99.325,8.873 L9.235,8.873 L9.235,142.754 Z M7.355,144.637 L101.206,144.637 L101.206,7.134 L7.355,7.134 L7.355,144.637 Z" id="Fill-16" fill="#1A1918"></path>
        </g>
    </g>
</svg>