<svg xmlns="http://www.w3.org/2000/svg" viewBox="0 0 500 192.01"><defs><style>.cls-1{fill:#fff;}</style></defs><title>wildifer</title><g id="Layer_2" data-name="Layer 2"><g id="Layer_1-2" data-name="Layer 1"><path class="cls-1" d="M5.69,110.24a15.08,15.08,0,0,1-2.91-3.89c-.83-1.32-.15-2.9-.85-4.22a21.22,21.22,0,0,1,9.16-6.66c3.93-1.56,8-2.19,12.13-3A14.68,14.68,0,0,0,28,91c.26-2.48.5-5,.78-7.43.24-2.11.54-4.21.82-6.31.08-.58.21-1.15.26-1.74a10.87,10.87,0,0,1,2.19-5.39A6.35,6.35,0,0,1,36,70.5a2.36,2.36,0,0,1,1.54,2.2c.22,4.17,1,8.29.86,12.49a6.83,6.83,0,0,0,.3,1.49,3.86,3.86,0,0,0,.94.1c1-.17,2-.33,3-.6,3.17-.84,6.35-1.68,9.52-2.67.34-2.71.53-5.34,1-7.9s1.29-4.94,1.94-7.33c1.14-.63,2.35-.8,3.13-1.57.37-1-.34-1.61-.55-2.31a1,1,0,0,1,1.36-.45c1.22.49,2.42,1,3.6,1.62a4.11,4.11,0,0,1,1.66,2,31.59,31.59,0,0,1,3.29,11.33c.06.49.14,1,.22,1.55a10.33,10.33,0,0,0,3.57-.06c1-.18,2-.41,3-.55a18.35,18.35,0,0,1,2.62-.21A1.59,1.59,0,0,1,78.81,81a6.86,6.86,0,0,0,1,1.9c.48,1.18-.7,2.47.3,3.82-.23,2.54-2.24,3.75-4.29,4.94-1,.58-2,1.16-3,1.77a12.43,12.43,0,0,1-3.54,1.69,1.7,1.7,0,0,0-1.39,1.74c-.17,3.88-.35,7.76-.53,11.64,0,.06.06.13.17.33a3.55,3.55,0,0,0,2-.24c1.34-.36,2.65-.84,4-1.21,3.73-1,7.47-2.1,11.22-3.08,1.59-.42,2.14-.13,2.8,1.27a23.77,23.77,0,0,1,1.23,3,2.44,2.44,0,0,1,0,1.69c-.77,1.4-.8,3-1.17,4.54-1.16.78-2.35,1.62-3.58,2.41a29.42,29.42,0,0,1-7,3.71c-2.3.71-4.66,1.27-7,1.9A10.72,10.72,0,0,0,66.56,124a2.89,2.89,0,0,0-.18.65c-.09,3.15-.17,6.3-.26,9.45-.06,2.12,0,4.25-.23,6.37-.13,1.45-.47,2.91-2,3.67-.29.14-.44.55-.64.85l-2.45,3.71a12.57,12.57,0,0,0-5.13,1.73,4.07,4.07,0,0,1-2.35-1.06c-.62-.59-1.35-1.06-2.27-1.76C50.1,146,50,144,49.8,141.92c-.11-1.31-.07-2.64-.13-4-.08-1.75-.23-3.5-.31-5.26-.06-1.24,0-2.49-.08-3.74,0-.8-.07-1.59-.11-2.54a10.19,10.19,0,0,0-1.76,0,26,26,0,0,0-7.42,1.9,37.66,37.66,0,0,1-4.32,1.61,1.85,1.85,0,0,0-1.38,1.52c-.84,4.69-2.51,9.16-3.57,13.8-.49,2.13-1.27,4.19-1.93,6.28a.93.93,0,0,1-.2.39c-.15.14-.37.36-.5.33a1,1,0,0,1-.63-.45,3.13,3.13,0,0,1-.22-1.07c-.1-1.24-.21-2.48-.27-3.73-.2-4.39-.37-8.79-.56-13.18,0-.36-.09-.72-.15-1.2a8.45,8.45,0,0,0-1.29.08,77.26,77.26,0,0,1-10.14,1.85,29.54,29.54,0,0,1-3.5,0c-.66,0-1.31-.2-2-.23a5.89,5.89,0,0,1-5.32-3H.34a1.6,1.6,0,0,1,.4-2.35,13.58,13.58,0,0,1,2.84-1.63c2.18-.86,4.4-1.61,6.62-2.37a141.67,141.67,0,0,0,15.95-6.37c.85-1.36.66-3,.65-4.45s.52-2.94-.55-4.28c1.45-.9.86-2.16.88-3.46-3.81.06-7.32,1.16-10.9,1.81S9.21,109.55,5.69,110.24Zm45-10.82a8,8,0,0,0-1.19.12c-3.09.91-6.17,1.82-9.25,2.76a9.4,9.4,0,0,0-1.59.74,1.45,1.45,0,0,0-.81,1.22c-.26,2.84-.54,5.68-.81,8.52a3.79,3.79,0,0,0,0,.88.88.88,0,0,0,.87.84,13.23,13.23,0,0,0,2.17-.23q4.43-.78,8.85-1.61a4.68,4.68,0,0,0,.85-.35C50.15,108.06,50.52,103.86,50.65,99.42Z"/><path class="cls-1" d="M27.83,80.62V77.83H28v2.79Z"/><path class="cls-1" d="M228.42,20.47a4.25,4.25,0,0,0,.37-4.4l1.15-.55-1-2.14c1.57-.82,2.7-.88,3.87.2A11.49,11.49,0,0,0,237,16.06a26.85,26.85,0,0,0,1.33,2.34,3.52,3.52,0,0,1,.61,2.49c-.18,2.17-.29,4.34-.38,6.51a6.73,6.73,0,0,1-1.35,3.8,14.6,14.6,0,0,0-1.29,2.14c-2.65,5.36-3.84,10.25-5.9,15.81-2.29,6.18-5.57,12.77-7.81,19-1.31,3.62-2.75,7.19-4.15,10.78-2,5.13-3.65,10.24-5.59,15.39-.52,1.38-.87,2.83-1.33,4.23-.66,2-1.28,4.42-2,6.42A110,110,0,0,0,205,120c-.74,3.45-1.78,7-2.42,10.47a60.58,60.58,0,0,1-1.45,7.75c-.79,2.46-2.71,4.56-4.25,6.64-1.72,2.32-3.39,4.66-5.07,7a5.46,5.46,0,0,1-4.58,2.72c-.64-6.48,1.36-14.91,1.75-21.28.12,1.86-.51,5.94-.39,7.8H189c.33-3.25.62-6.49,1-9.73.49-4.16,2-8.35,2.77-12.45,1.46-7.7,3.46-15.43,5.44-23,1.65-6.35,3.77-13,6.16-19.85,1.79-5.28,3.17-10.45,5.12-15.68,1.49-4,2.52-8,4-12.08a20.79,20.79,0,0,0,1.31-5c.17-1.72,1.32-3.41,1.87-5.09,1.6-4.9,3.32-9.76,4.92-14.67a22.46,22.46,0,0,0,.93-3.23c.53-.3,1.58-.82,2.29,0a.41.41,0,0,0,.35,0c1-1.22,1.89-.11,2.83.06A3.8,3.8,0,0,0,228.42,20.47Z"/><path class="cls-1" d="M179.47,69.81c.38,1.32.87,2.62,1.13,4,.57,2.94,2,5.8,2.47,8.75.22,1.38.28,2.33.51,3.72.36.68,1-2.13,1-2.13,0,2.92.77,7.86,1.28,6.63a8.59,8.59,0,0,1,.25,2c.16-.81,0,2.64-.33,4-.82,3.89-3.67,14.92-3.94,18-.34,3.93-2,8-2.74,11.85a82.9,82.9,0,0,1-2.77,11.36c-.45,1.21-1.84.54-2.73,1.63a15.93,15.93,0,0,1-6.41,4.61,5,5,0,0,0-2.15,1.4c-1.44,2-3.46,2.13-5.66,1.91-.66-1.75.74-3,1.18-4.48.62-2,1.52-3.9,1.34-6.05a12.5,12.5,0,0,1,.62-3.36c0-.19.07-.44.21-.55,2.72-2.1,2.08-5.13,2.78-7.87,1.75-6.87,4.39-20.24,5.85-27.16.62-2.93,1.7-5.86,2.21-8.8.44-2.51,1.73-6.32,2.09-8.84.25-1.79,1.3-4.09,1.6-5.88,0-.2,0-.49.19-.57,1.77-1,1.45-2.57,1.42-4.06Z"/><path class="cls-1" d="M180.48,63.9a28.7,28.7,0,0,1,.6-3.19c.79-5.41,2.19-9.62,3.35-14.9.68-3.07,1.08-3.88,1.88-6.9.17-.66.28-1.34.44-2.11.35,0,.56.87,1.09.89.56-2.14,2-4.13,1.59-6.48,1.17-1.21,2.33-.72,3.43.07s4.38,2.14,5.11,3.65c.29.61.44.41.2.95-.82,1.86-.41,3.37-.11,5.27s-1.09,3.59-.8,5.42c.13.85-.41-.66-.73.11-.74,1.75-1,2.4-1.69,4.18a1.46,1.46,0,0,1-.83.84,13.09,13.09,0,0,0-2.68,1.79,8.21,8.21,0,0,1-4,2.16c-1.17.19-1.57,1.43-2.05,2.42a8.65,8.65,0,0,1-3.36,4.12C181.67,62.29,180.88,63.72,180.48,63.9Z"/><path class="cls-1" d="M166.05,71.53c.11-.59.38-1.21-.47-1.55-.14-.06-.17-.47-.21-.72-.13-1-2-2-1.69-3a8.15,8.15,0,0,0,.42-2.92c-.15-1.92-2.48-3.78-2.78-5.69-.34-2.16-.72-4.32-1.09-6.49a8.7,8.7,0,0,0-.26-1.39c-.38-1.1-.93.59-1.31-4.58-.51,1.74-.26,4.7-1.27,6.28-.66-.41-1.78-.85-1.77-1.55,0-.89-.52-1.26-1.31-1.46-.32.91-.55,1.78-.92,2.58-2.06,4.5-3,9-4.8,13.59a51.48,51.48,0,0,0-3.17,11.06c-1.41,5.61-2.11,6.07-3.26,14.07-.88,6.1-3.54,13.91-4,18.5-.06.63-.17,1.26-.26,1.89a.72.72,0,0,1-.33-.61,72.64,72.64,0,0,1-4.35-15.27,173.52,173.52,0,0,1-2.35-17.6c-.22-2.47-.5-4-3-4.54-2.7-.6-4,.22-6.65.88-2.16.53-2.91,2.62-4.2,4.81A30.08,30.08,0,0,0,113.75,85c-2.55,7.93-4.3,12.53-5.52,17.38-.72,2.85-1.58,5.88-2.55,8.68-.19.55-.23,1.67-.93,2-.1-.5-.25-1.15-.28-1.49-.29-3.06-.06-6-.33-9-.12-1.37-.19-2.92-.28-4.29a29.71,29.71,0,0,1-.12-3.12c.1-2.53.28-5,.22-7.54-.06-2.24.14-4.32,0-6.55a13.21,13.21,0,0,0-.28-2.34l0-.18c0-.06-.09-.31-.11-.41s.06.33.06.34,0-.07-.05-.11L103.4,78a2.8,2.8,0,0,1-.18-.38c-.15-.42,0-.76-.38-1.24s-.8-2.2-1.55-2.64c-.16-.09-.31-.55-.57-.67a6.8,6.8,0,0,0-1.49-.37,9,9,0,0,1-1-.09c0,.16-.18.07-.24,0a.54.54,0,0,1-.26-.29,4,4,0,0,1-.23,1,8.87,8.87,0,0,0-.42,1.47c-.47,1.92-.28,3-.61,4.92a73.11,73.11,0,0,0-.65,7.93c-.25,3.92-.33,7.85-.39,11.78-.06,4.14-.43,8.28-.36,12.42.05,3.09.4,6.18.36,9.27-.08,5.64,1.4,11,2.76,16.4,1.74.28,2.81,1.72,3.64,2.87a10,10,0,0,0,4.7,3.54,2.21,2.21,0,0,0,2.35-.36c1.78-1.36,3.09-2.74,3.1-5.28a14.73,14.73,0,0,1,.35-2.65,30,30,0,0,1,1.06-4.9c.93-2.49.8-5.12,1.87-7.57,1-2.25,1.62-4.87,2.44-7.18.71-2,2.18-3.48,2.75-5.54l.25-.08a12.41,12.41,0,0,1,.59,1.56c1,4.38,2,8.79,3.06,13.16a58.8,58.8,0,0,0,6.84,16.06c.36.61.52-1.09,1-.55a14.56,14.56,0,0,1,2.36,3.08,7,7,0,0,0,3.95,3.1c.83.26,1.58.26,2,.38a4.88,4.88,0,0,0,3.91-.24,8.08,8.08,0,0,0,3.49-2.29,14.29,14.29,0,0,0,.95-1.39,17.08,17.08,0,0,0,2-3.5c.56-1.79.29-3,.72-4.81a133,133,0,0,0,2.71-13.43c.32-2.35,1.32-4.68,1.67-6.9.18-1.14.27-2.29.52-3.41,1.27-5.86,2.89-9.79,3.84-14.66,1.22-6.25,2.83-11.34,4.06-16.92C165.1,76,165.35,75.23,166.05,71.53Z"/><path class="cls-1" d="M183.9,79.18c.38-1.27-.1-.86,0,5.3.88-.31.33-8.15.48-7.63C183.92,75.36,184.36,77.66,183.9,79.18Z"/><path class="cls-1" d="M354,68.36c.15-.24.47-.06.47-.06a24.49,24.49,0,0,0-2.6,3.49s1.08-2,1.14-2.23.14-.55.33-.6A2.06,2.06,0,0,0,354,68.36Z"/><path class="cls-1" d="M354.6,36.16c.35.06.84.77,1,.52a1.44,1.44,0,0,0,.25-.38c.1-.36.32-.48.51-.75l.3-.43c.14-.14.12.52.18.63.22.43.44.33.68.32l.19,0a2.24,2.24,0,0,0,.4-.17c.37-.19.7-.29.85-.74a1.52,1.52,0,0,0,.06-.26,2.67,2.67,0,0,0,0-.33c0-1,.15-1.57.43-1.83a.61.61,0,0,1,.24-.14,2,2,0,0,1,1.17.18l.39.14c.14.05,0,.32.46.17a26.41,26.41,0,0,0,.18,2.64,3.52,3.52,0,0,0,0,.36,3.1,3.1,0,0,0,0,.34,3.56,3.56,0,0,0,.44,1.21c.11.19,2.26-.3,2.39-.1a36,36,0,0,1,3,5.82,3.13,3.13,0,0,0,.42.67c.08.11-.22.1-.14.21s.72,1,.77,1.07a3.67,3.67,0,0,1,.1,2.28c0,.13,0,.28-.09.4a2,2,0,0,1-.17.37l-.51.87c-.52.88-2.16,4.4-2.31,4.6a78.49,78.49,0,0,0-5.25,9.43c-.21.54,1-2.24.6-1.76-1.62,1.92-5,3.18-5,2.47,0-.43-1,.53-1.43.82-.8.59-1.59,1.21-2.4,1.84-.41.32-.4.63-.82.95-1.14.86-2.89,1.5-4.12,2.32A11,11,0,0,0,345.74,71a3.93,3.93,0,0,1-1.19.85,1.57,1.57,0,0,1-.93.09,1.73,1.73,0,0,1-.33-.1.64.64,0,0,0-.24,0,3.27,3.27,0,0,0-.59.08c-.11,0-.77,2.56-.9,2.57.12-.83.79-4,.92-4.63.24-1.12.54-2.21.84-3.28s.21-2.08.44-3.13c1-4.61,3.06-8.9,4.51-13q.68-1.92,1.37-3.8L351,42.83a16.25,16.25,0,0,0,1.07-3.76,8.14,8.14,0,0,0,.05-.82c0-.56.27-.47.14-1.1,0-.11.3-.17.32-.29,0-.37.25-.08.39-.66.2.2.26-.1.37-.05C353.87,36.4,353.89,36,354.6,36.16Z"/><path class="cls-1" d="M211.48,135.17c-.09,1.36-.23,3.62,0,3.86C211.44,137.83,211.43,136.4,211.48,135.17Z"/><path class="cls-1" d="M211.53,134.16c0,.31,0,.65-.06,1C211.52,134.58,211.55,134.15,211.53,134.16Z"/><path class="cls-1" d="M499.85,122.91c.07-2-1.18-3.93-1.93-5.84a11.4,11.4,0,0,1-.76-2.81q0-.29,0-.57a3.82,3.82,0,0,0-.21-.65,1,1,0,0,1,.14-.84l-.13.1a6.12,6.12,0,0,1,0-1c0-.08,0-.24,0-.31s.22-.2.15-.35l.39-.55a16,16,0,0,0-1.36,1.47,4.26,4.26,0,0,1-.27.37l-.77.91-.67.81a45.42,45.42,0,0,1-3.31,3.75c-2.36,2.3-3.79,5.54-6.31,7.68-1.36,1.15-4.82,4.54-6.28,3.4a12,12,0,0,1-.76-8,54.17,54.17,0,0,1,2.86-8.44c1.66-4,1-7.84-1.44-11.4-1.64-2.44-4.17-3.58-6.74-4.61-2.84-1.14-5.91-1.07-8.88-1.33a77.45,77.45,0,0,0-7.78.09,7.87,7.87,0,0,1-1.24-.18,6.41,6.41,0,0,1,.92-3.93A8.8,8.8,0,0,0,456,85c-.13-.7-.24-1.4-.31-2.1-.22-2.26-.23-4.52-1.54-6.58a3.3,3.3,0,0,0-1.93-1.59c-1.69-.51-3.31,0-4.89.12a9.21,9.21,0,0,1-.26,1.49c-1,2.7-2,5.39-3,8.09a3.39,3.39,0,0,0-.44,1.49c.54,3.18-.21,6.46.73,9.62a3.5,3.5,0,0,1-.36,1.85c-.68,2-1.58,4-2.1,6a74.2,74.2,0,0,1-7,17.29,10,10,0,0,1-1.5,2.1A39.28,39.28,0,0,1,419.74,132c-4,1.66-4.35,1.68-6.84-2.23-1.33-2.08-1.26-4.42-.92-7.12.18-1.45-.16-4.43.33-4.73,1.84-1.14.19-.54,1.52-2,.6-.8,2.9-2,4.8-3.51a76.87,76.87,0,0,0,6.11-5.4c2.33-2.34,5.37-6.56,6.21-9,.76-2.23,2.59-8.81,2.38-11.09-.13-1.51-1.2-3.24-1.1-5.19,0-.62-2.33-3.55-3.24-3.87-1.14-.4-2-.9-3.35-1.29a9.87,9.87,0,0,0-5.35,0,25.74,25.74,0,0,0-5.61,2.4,31.86,31.86,0,0,0-4.44,3,44.23,44.23,0,0,0-3.2,3.45c-.43.54-1.93,3.27-2.28,3.88a50.62,50.62,0,0,0-4,9.75c-.9,2.75-.66,5.4-1.22,8.62-.12.66.21,1.45-.31,1.74a14.3,14.3,0,0,1-8,2,15.46,15.46,0,0,0-3.83-4.65c-1.07-.77-1.73-2.46-1.06-3.46,2.14-3.2,3.42-6.09,5.21-8.79,2-3.06,4.31-5.83,5.82-8.47,1.73-3,3.91-5.83,5.5-8.92,3-5.82,5.69-11.61,8.68-17.43A48.4,48.4,0,0,0,416.25,46c.5-2.8,1-5.52.24-8.2-.67-2.5-1.57-5-1.54-7.56s-1.16-4.23-2.59-6a1.8,1.8,0,0,0-1.58-.55c-2.08,0-3.69,1.06-5.33,2.06-2,1.23-4,2.53-6,3.79a15.09,15.09,0,0,0-2.69,1.62c-6.87,6.75-11.87,14.79-15.9,23.48-1.19,2.56-2.28,5.17-3.39,7.77a121.34,121.34,0,0,0-6.12,17.55c-2.24,8.76-3.51,17.71-5.09,26.6-.88,4.94-1.72,7.66-2.62,12.59a4.39,4.39,0,0,1-.75,1.94c-3,3.66-7.34,8.43-11.39,10.79a5.74,5.74,0,0,1-3,.74c-1.09-.06-2.89,1.66-3.94-.24-1.23-2.22-.86-5.81-.86-5.81s5.43-13.28,7-16.85c1.2-2.81,1.91-7.74,3.13-10.55,1.05-2.43,1.76-8.49,1.66-11.12-.24-6.21-.24-6.21-.9-9A9.34,9.34,0,0,0,351.88,78c-1.28-.28-.55-1.76-2.69-2-1,.58-3.77-.06-4.62.46a26.68,26.68,0,0,1-5,2.36c-.59.16-2.17,1.37-2.06,2.65,0,.29-.86.61-1.07,1s-1.4,1.48-1.53,1.79c-.62,1.57-.8,2.22-1.24,3.65-.38,1.23-1.23,3.5-1.18,4.83a12,12,0,0,1-.21,1.94c-.23,1.85-.41,5.92-.42,7.78,0,2.59.43,12.89.68,14.45.64,4.1-.53,6.34-3.49,10.64-3.76,5.47-4.61,5.73-7.64,10.69-2.37,3.87-2.42,2.72-4.51,4.74-3,2.93-2.64,1.82-5.2,2.87-1.72.71-2.71,2.77-3.62,1.71s-2.64-.71-3-2.85c-.15-1-.39,1.3-.36-1.32s.34-1.26.54-6.43a9.38,9.38,0,0,1,.41-3.3,22.2,22.2,0,0,0,1.13-5.21c.26-2.58,2.29-5.16,3.3-7.61.85-6.67,3.24-9.51,5.07-14.36,1.54-4.08,2.89-8.2,4.23-12.34,1-3.08,2.7-6.18,3.49-9.32.7-2.8,3-5.7,3.54-8.53.51-2.6,1.9-5.31,2.72-7.81,1.81-5.54,4.3-11,6.22-16.51,1-2.84.76-5.72,1.58-8.61a7.84,7.84,0,0,1,1.27-2.64,6.39,6.39,0,0,0,1.11-2.21c.57-2.7-.08-.67-.12-.94-.09-.64-.67-1.57-.62-2.12a14.92,14.92,0,0,1,.17-2.07c1-4.36-2.69-8.68-3.21-13-.25-2.06-.45-2.07-2.56-2a1.61,1.61,0,0,1-.44-.05c-1.85-.53-3.78-.26-5.64-.47a5,5,0,0,0-4.72,2.65,21.74,21.74,0,0,1-3.44,4.42,8.23,8.23,0,0,0-1.69,2.21c-1.25,2.41-2.49,4.82-3.57,7.3s-2.36,5.32-3.47,7.92c-1.51,3.53-3.94,9.56-5.22,13.48-1.11,3.37-2.05,6.67-3.16,10-1.56,4.76-2.7,9.52-4.12,14.32-1,3.4-1.61,6.81-2.48,10.25-.77,3.06-1,6.17-1.46,9.29-.84,5.62-1.61,10.89-2.3,16.53-.28,2.28-.89,3.94-1.25,6.14-.26,1.64-1.55,3.09-3.5,5.21-1.07.63-3,.16-4.62.07-3.48-.18-9.3-7.82-10.89-13.58-1.2-4.38-3-9.91-3.22-14.45a83.09,83.09,0,0,1,1.25-14.88c1-6.37,3.55-11.59,5.58-19.39,1.48-5.69,3.86-11.89,5.51-17.53,2.81-9.61,5.48-14.53,6.59-21.75.2-1.34,1.67-3.42,1.87-4.76.32-2.15.89-4.33.3-6.49a10.08,10.08,0,0,1-.25-3.81,9.88,9.88,0,0,0-1.37-5.39c-.64-1.27-2.28-1-3.51-1.3a.59.59,0,0,1-.2-.1c-.69-1-2.75-1.16-3.4-2.06a6.12,6.12,0,0,0-6.43-2c-.4.1-.39.38-.76.57a2.83,2.83,0,0,0,2.67.56c.63,2,1.18.54.08,2.54l-1-.49a9.53,9.53,0,0,1-1.1,2.28,17.15,17.15,0,0,1-3.4,2.26c-1.85,1.16-2,1.57-1.11,3.55.08.16.16.31.25.47a2.59,2.59,0,0,1,.26,2.35,9,9,0,0,1-4,1.09,3.45,3.45,0,0,0-2.75,1.5c.09.47.81,1,1,1.38,1.27,2.41-.31,4.71-1.45,7-.15.29-.68.81-.71,1.14-.17,1.85-2.52,3.75-2.69,5.61a3.3,3.3,0,0,1-1.26,2.25A12.37,12.37,0,0,0,256.36,36c1,1.54,1.82,2.05,1.52,3.94-.38,2.44,1,4.51.6,6.94a3.6,3.6,0,0,1-.41,1,10.82,10.82,0,0,0-.8,1.51c-1.73,5.34-1.31,10.49-2.36,16-.63,3.3-1.07,6.56-1.76,9.85a3.93,3.93,0,0,1-1.82,2.53,12.2,12.2,0,0,1-1.93,1.34c-5.82,2.47-16.75,8.08-22.23,14.4-3.7,4-5,7.06-7.14,10.46a45.8,45.8,0,0,0-4.92,10c-.23.81-.54,2.34-.54,2.34-3.21,6.9-3.12,14.49-2.93,22.25-.1,0,0,.11-.1.15a.06.06,0,0,1-.07,0c0,.95.07,1.75.11,2.2,0,.1.11.2.15.3.6,1.59,1.23,2.43,1.8,4,.77,2.18,1.93,2.92,4,4a11.3,11.3,0,0,1,2.32,1.2c2.06,1.83,4.55.33,6.91.82,1-.61,1.91-.68,2.7-1.24,1-.7,4.4,0,4.64-1.66,0-.27.5-.47.76-.71,3.32-3,4.08-1.74,7.75-5.65,1.49-1.58,3-2.09,4.37-3.73a75.17,75.17,0,0,0,5.35-6.65,48,48,0,0,0,2.63-4.79c.48-.92,1.25-1.89,1.8-3.07.4.54.31.82.48,1.16.57,1.1,1.11,2.22,1.66,3.33a47,47,0,0,0,8.42,12.17,23.52,23.52,0,0,0,14.72,7.39,4.25,4.25,0,0,0,1.36-.06c1.77-.36,5.75-4.47,7.64-4.89a14.49,14.49,0,0,0,.54,1.76c1.3,5.7,1.76,6.5,3,8.08,1.42,1.8,1.94,3.05,3.65,4.64.81.75,3.36.58,4.35,1.07,2.28,1.13,2.65,0,3.9-.1a6,6,0,0,1,1.57,0c2.27.38,3.78-1.48,5.73-2.41,4.82-2.31,7.13-3.52,10.21-6.6,1.67-1.66,1.75-.68,2.88-2.74,1.63-3,4-4.35,7.33-8.46a13.52,13.52,0,0,0,1.89-2.22c.36.3.66,3.37.79,3.61,1.66,3.08.18,2.45,5,4.55,3.19,1.38,5.2,1.54,7.26.7.79-.32,2.35,0,2.94-.59a28.32,28.32,0,0,1,3.36-2.2c.84-.62,1.47-.3,2.41-.79s2-2.52,3.16-3.11a7.25,7.25,0,0,1-.3,1.31c-.25,2.46-.49,1.6-.78,4.06-.63,5.27-1.39,8.69-1.9,14-.74,7.71-1.48,11.75-1.39,16.33a9,9,0,0,0,.09,1.06l.6,1.29-.57-.25c-.15,2.37.85,5.14.79,7,0,1.18,1,2.21,1.08,3.35a3.59,3.59,0,0,0,1.87,2.81,10.65,10.65,0,0,0,1.46,1c2.53,1.06,2.86,1,5.43,2,.72.27.44-.12,1.22,0,2.57.4,4.38-1.53,5.83-3.68,2.65-3.91,5.43-6.62,8.12-10.51a18.59,18.59,0,0,0,3.26-6.81c.76-3.74,2.6-2.8,2.52-6.63,0-1.24.63-2.51.87-3.71.66-3.24,1.22-3.75,1.75-6.54.55-2.95.68-5.83,1.36-8.76.47-2-.08-4,.09-6.07a19.52,19.52,0,0,0-.31-5.61c-.56-2.64-1.13-5.93-1.86-8.53a9.18,9.18,0,0,1-.55-2.35,2.37,2.37,0,0,1,.12-.78c.31-.23.66,0,1-.06,1.32-.17,4.74.07,5.87-.23a8.43,8.43,0,0,1,1.07-.14c.15-.06.07.54.18.8s.2,1.27.31,1.73c.35,1.43.62,2.88,1.09,4.27a13.42,13.42,0,0,1,.88,3.93,8,8,0,0,0,1.22,3.83c2.58,4.39,6.31,6.1,10.47,8.86a8,8,0,0,0,4.34,1.32c1.77,0,3.53.25,5.3.21a22,22,0,0,0,5.94-.56,19.75,19.75,0,0,0,6.72-3.4c2.61-2.21,5.52-3.07,8.34-5,3.31-2.24,5.09-6,8-8.65a7.29,7.29,0,0,0,1.26-2c.57-1,1.12-2,.36-3.18a1.67,1.67,0,0,1-.12-1,17,17,0,0,0-.55-6.6,5.46,5.46,0,0,1-.29-2.07c.39-2.38.82-4.38,1.39-6.72s1.3-2.71,3.61-2.48a10.22,10.22,0,0,1,1.22.23,5,5,0,0,0,3.61-.43,8,8,0,0,1,4.24-.7,11.86,11.86,0,0,0,1.64,0c2.7-.26,4.42,1.54,3.82,4.17a33.1,33.1,0,0,1-1.39,4.19,57,57,0,0,0-2.09,5.73,31.11,31.11,0,0,0,.59,15c.72,2.62,2,5.59,4.58,6.59.83.32,1.63,1.45,2.39,1.91,2,1.19,4.4,2.52,6.7,1.87.82-.23,2.19-1.83,3-1.58,2.85.89,5.16-1.59,7.21-3,2.23-1.59,4.1-5.18,6.09-7.11a11.55,11.55,0,0,1,.84-1,4.86,4.86,0,0,0,.8-1l-.65.77C500.67,128,499.75,125.68,499.85,122.91Zm-2.93-10.59ZM413,99.33a20.57,20.57,0,0,1,4.17-10.57c1.76-2.17,1.57-1.39,3.59-2.63,1-.59,2.09-.38,3.18-.73.57-.29,2,.12,2,.73a2.42,2.42,0,0,0-1.18-.21c.36-.05.91.19.93,1,.74.25-1,4.14-1.43,5-2.79,5.68-3.8,6.49-7.62,9.45-1.13.88-4.44,3.33-3.94,1.77A22.07,22.07,0,0,1,413,99.33ZM314.21,72.82l.55-.69c2.65-12.9,7.58-21.77,10.56-29.84-.35,1.67-.1,3.26-.46,4.39-2.86,8.86-5.4,17.29-8.32,26.13a4.91,4.91,0,0,1-1.21.67L312.58,80Zm-65,26.75A117.82,117.82,0,0,1,246,116.89c-.79,2.43-1.55,6-4.53,9.38a69.22,69.22,0,0,1-6,5.88c-1.3,1.18-2.17.51-3.49,2a1.4,1.4,0,0,1-1.3,0c-.37-.24-1.06-1.14-1.12-1.14s.48.61.64.94c-.64-.17-2.13-3.4-2.3-4.91a18.87,18.87,0,0,1,.16-1.9c-.06,0-.37,1.8-.38,1.55.19-2.65-.66-5.13.08-7.66,1.32-4.55,2.79-13,5.45-16.84,2.88-4.19,6.14-9,13-12.33a27.36,27.36,0,0,1,4.24-2.35C250.6,92.1,249.28,98.09,249.19,99.58Zm92.9,3.59a68.07,68.07,0,0,1,.8-10,12.42,12.42,0,0,1,1.87-4.86c1.38-1.75,1.84-1.7,1.48,1.17C345.48,95.63,342.09,103.16,342.09,103.16Zm42.24,39.72c-.84,8.38-4.68,12.53-5.06,19.75-.18,3.47-1.59,2.91-2.68,6.22-.81,2.47-4.56,6.71-6.55,8.93-.12-1-.27-1.66-.29-2.34-.13-4.88-.47-5.34-.29-10.21s.83-7.66,1.36-12.41c.38-3.44.81-6.89,1.39-10.31.94-5.63,2-13.09,3-18.7.25-1.35,2.06-3.8,2.4-5.37a2.42,2.42,0,0,0,1.14.82,6.41,6.41,0,0,1,3.35,4.18C383,130.11,385,136.2,384.33,142.88Zm.27-52.12c-.2.34-.83,2.13-1.33,2.35.22-1.17.79-3.82,1-5a152.67,152.67,0,0,1,8-25.91,66,66,0,0,1,9.29-16.41A52.16,52.16,0,0,1,407,40.58a7.42,7.42,0,0,1,1.4-.76c-.55,2.94.17,5.74-.67,8.3-3.41,10.42-9.28,17.64-13.9,27C391.48,80,386.89,86.9,384.59,90.75Z"/></g></g></svg>